<?xml version="1.0" standalone="no"?><!DOCTYPE svg PUBLIC "-//W3C//DTD SVG 1.1//EN" "http://www.w3.org/Graphics/SVG/1.1/DTD/svg11.dtd"><svg t="1602165206489" class="icon" viewBox="0 0 1024 1024" version="1.1" xmlns="http://www.w3.org/2000/svg" p-id="8333" xmlns:xlink="http://www.w3.org/1999/xlink" width="200" height="200"><defs><style type="text/css"></style></defs><path d="M626.1 304.1H242.6c-17.6 0-32-14.3-32-32s14.3-32 32-32h383.5c17.6 0 32 14.3 32 32 0 17.6-14.3 32-32 32zM626.1 496.1H242.6c-17.6 0-32-14.3-32-32s14.3-32 32-32h383.5c17.6 0 32 14.3 32 32s-14.3 32-32 32zM434.4 688.1H242.6c-17.6 0-32-14.3-32-32s14.3-32 32-32h191.7c17.6 0 32 14.3 32 32s-14.3 32-31.9 32z" p-id="8334"></path><path d="M176.8 848.2c-17.6 0-31.9-14.3-31.9-32V176c0-17.7 14.3-32 31.9-32h513.7c17.6 0 31.9 14.3 31.9 32v256.1c0 17.7 14.3 32 31.9 32 17.6 0 31.9-14.3 31.9-32V144c0-35.4-28.6-64-63.8-64H144.8C109.6 80 81 108.7 81 144v704.2c0 35.4 28.6 64 63.8 64h353.6c17.6 0 31.9-14.3 31.9-32s-14.3-32-31.9-32H176.8zM911 944c17.7 0 32-14.3 32-32V565c0-17.7-14.3-32-32-32s-32 14.3-32 32v347c0 17.7 14.3 32 32 32zM656.5 944c17.7 0 32-14.3 32-32V757c0-17.7-14.3-32-32-32s-32 14.3-32 32v155c0 17.7 14.3 32 32 32zM784.5 944c17.7 0 32-14.3 32-32V630c0-17.7-14.3-32-32-32s-32 14.3-32 32v282c0 17.7 14.3 32 32 32z" p-id="8335"></path></svg>