<?xml version="1.0" standalone="no"?><!DOCTYPE svg PUBLIC "-//W3C//DTD SVG 1.1//EN" "http://www.w3.org/Graphics/SVG/1.1/DTD/svg11.dtd"><svg t="1603729832086" class="icon" viewBox="0 0 1024 1024" version="1.1" xmlns="http://www.w3.org/2000/svg" p-id="1631" xmlns:xlink="http://www.w3.org/1999/xlink" width="200" height="200"><defs><style type="text/css"></style></defs><path d="M649.48424143 121.37499924L215.29748203 121.37499924C145.97142658 121.37499924 90.125 177.41663858 90.125 246.54750516L90.125 808.70249408C90.125 878.02858579 146.16663357 933.875 215.29748203 933.875L777.45248908 933.875C846.77860468 933.875 902.6249711 877.83335983 902.6249711 808.70249408L902.6249711 380.88665034 840.12497344 443.38664798 840.12497344 808.70249408C840.12497344 843.39813267 812.17828595 871.37500235 777.45248908 871.37500235L215.29748203 871.37500235C180.6018797 871.37500235 152.62499765 843.42827283 152.62499765 808.70249408L152.62499765 246.54750516C152.62499765 211.85186658 180.5717453 183.87500265 215.29748203 183.87500265L586.98424295 183.87500265 649.48424143 121.37499924ZM354.35676327 665.96372125L543.9503414 612.13602094 408.52810468 477.54186469 354.35676327 665.96372125ZM860.7361586 297.28261453L725.31223438 162.68670486 427.37597345 458.78930423 562.79821018 593.37209952 860.7361586 297.28261453ZM923.67695547 184.22163312L839.0333414 100.104435C825.00961408 86.16461795 801.51690155 86.92360733 786.55751563 101.78591998L745.92378125 142.15647689 881.34860938 276.75150735 921.97975235 236.3687161C936.93913828 221.50552345 937.6980914 198.16319782 923.67695547 184.22163312Z" p-id="1632"></path></svg>