<?xml version="1.0" encoding="utf-8"?>
<!-- Generator: Adobe Illustrator 15.0.0, SVG Export Plug-In . SVG Version: 6.00 Build 0)  -->
<!DOCTYPE svg PUBLIC "-//W3C//DTD SVG 1.1//EN" "http://www.w3.org/Graphics/SVG/1.1/DTD/svg11.dtd">
<svg version="1.1" id="图层_1" xmlns="http://www.w3.org/2000/svg" xmlns:xlink="http://www.w3.org/1999/xlink" x="0px" y="0px"
	 width="200px" height="200px" viewBox="0 0 200 200" enable-background="new 0 0 200 200" xml:space="preserve">
<g>
	<polygon fill-rule="evenodd" clip-rule="evenodd" fill="#FF7900" points="108.054,75.271 112.344,75.271 109.048,86.187 
		104.787,86.187 	"/>
	<polygon fill-rule="evenodd" clip-rule="evenodd" fill="#FF7900" points="126.185,75.271 130.91,75.271 135.171,75.271 
		139.557,75.271 138.842,77.916 134.396,77.916 131.908,86.187 127.615,86.187 130.106,77.916 125.468,77.916 	"/>
	<path fill-rule="evenodd" clip-rule="evenodd" fill="#077EE0" d="M144.346,80.838c0.497-1.805,1.524-3.204,3.079-4.199
		c1.555-0.997,3.481-1.494,5.752-1.494c2.334,0,4.014,0.498,5.007,1.462c0.964,0.997,1.214,2.364,0.718,4.137
		c-0.373,1.305-0.935,2.364-1.711,3.205c-0.778,0.805-1.774,1.459-2.956,1.927c-1.15,0.434-2.52,0.683-4.072,0.683
		c-1.588,0-2.833-0.218-3.763-0.59c-0.937-0.404-1.585-1.026-1.991-1.897C144.004,83.2,143.975,82.145,144.346,80.838
		 M148.668,80.867c-0.311,1.121-0.279,1.898,0.125,2.396c0.372,0.496,1.025,0.746,1.93,0.746c0.932,0,1.74-0.25,2.361-0.713
		c0.654-0.498,1.15-1.339,1.493-2.583c0.313-1.025,0.249-1.803-0.157-2.269c-0.401-0.498-1.056-0.717-1.957-0.717
		c-0.871,0-1.649,0.219-2.333,0.717C149.479,78.94,148.979,79.75,148.668,80.867"/>
	<path fill-rule="evenodd" clip-rule="evenodd" fill="#077EE0" d="M107.4,57.606c-5.94,3.016-12.565,7.213-21.801,11.039
		c-4.199,1.711-9.205,2.489-15.394,2.924c-32.468,2.395-41.705,7.215-45.281,9.921c-3.545,2.737-1.088,5.132,1.337,6.003
		c14.647,3.637,41.643-4.137,62.385-17.604c-11.226,8.426-12.564,15.922-0.528,16.669c-5.037-2.362-2.549-7.93,0.187-10.945
		C93.188,70.169,97.758,64.758,107.4,57.606 M74.714,73.436c0,0-23.542,10.295-37.38,11.91c-22.92,2.644-6.468-5.254,3.576-7.43
		C50.395,76.017,74.714,73.436,74.714,73.436"/>
	<polygon fill-rule="evenodd" clip-rule="evenodd" fill="#077EE0" points="171.683,75.271 175.973,75.271 172.677,86.187 
		168.417,86.187 165.153,80.278 163.38,86.187 159.088,86.187 162.385,75.271 162.415,75.271 166.676,75.271 166.706,75.271 
		169.909,81.149 	"/>
	<polygon fill-rule="evenodd" clip-rule="evenodd" fill="#077EE0" points="140.582,75.271 144.843,75.271 141.576,86.187 
		137.285,86.187 	"/>
	<polygon fill-rule="evenodd" clip-rule="evenodd" fill="#077EE0" points="120.057,75.271 122.297,75.271 123.602,75.271 
		125.626,86.187 121.146,86.187 120.338,78.162 114.955,86.187 110.416,86.187 118.844,75.271 	"/>
	<path fill-rule="evenodd" clip-rule="evenodd" fill="#077EE0" d="M90.948,75.271h3.918c0.622,1.366,1.182,2.954,1.524,4.447
		c0.187,0.714,0.217,1.306,0.312,2.053c0.061,0.248,0.403,0.31,0.622,0.06c1.648-2.206,3.389-4.322,5.036-6.56h4.294l-6.625,8.926
		c-1.058,1.368-1.806,1.958-3.452,1.99H94.4h-0.125h-4.477C93.966,84.197,93.405,81.332,90.948,75.271"/>
	<path fill-rule="evenodd" clip-rule="evenodd" fill="#077EE0" d="M140.521,94.49h-5.225l-0.251,0.684h5.227L140.521,94.49z
		 M140.987,93.12h-5.225l-0.22,0.625h5.226L140.987,93.12z M141.547,91.566h-5.226l-0.278,0.778h5.226L141.547,91.566z
		 M133.958,96.45l-1.211,3.513h6.187c0.313,0,0.592-0.279,0.685-0.466h-3.67c0.031-0.061,1.121-3.047,1.121-3.047H133.958z
		 M131.005,96.635l-1.274,3.172h2.455C132.686,98.967,133.18,96.76,131.005,96.635 M137.471,96.325l-0.401,2.518h2.58
		C139.649,98.842,139.961,96.292,137.471,96.325 M140.489,96.635l-0.437,3.141h2.489C142.542,99.776,143.381,96.977,140.489,96.635
		 M153.83,90.322h2.332l-0.218,2.83h-2.33L153.83,90.322z M152.711,93.745h2.33l-0.215,2.797h-2.33L152.711,93.745z M147.02,91.908
		h1.773l0.372-1.087h-1.74l0.248-0.747h5.912l-0.251,0.747h-1.524l-0.403,1.087h1.522l-0.248,0.748h-1.524l-2.582,7.338h-2.643
		l2.583-7.338h-1.743L147.02,91.908z M146.554,93.464h1.244c-0.652,1.834-1.244,3.452-1.866,5.286
		c-0.374,0.996-1.273,1.276-1.677,1.244L146.554,93.464z M151.31,93.464h1.218c-0.658,1.834-1.218,3.452-1.867,5.286
		c-0.343,0.996-1.246,1.276-1.648,1.244L151.31,93.464z M151.624,97.474l3.139-0.31l2.552-7.276h2.675l-2.456,6.995l0.434-0.029
		l-0.246,0.746l-0.471,0.033l-0.838,2.394h-2.642l0.712-2.116l-3.106,0.314L151.624,97.474z M159.831,96.418l1.09-0.156l1.275-3.607
		h-1.027l0.249-0.748h1.026l0.718-2.02h2.828l-0.715,2.02h0.932l-0.279,0.748h-0.899l-1.121,3.14l0.964-0.154l-0.25,0.745
		l-0.963,0.156l-0.685,1.961c-0.187,0.559-0.715,1.523-1.957,1.523h-1.433h-0.841l0.252-0.777h0.712
		c0.095,0,0.188-0.063,0.221-0.187l0.716-2.054l-1.06,0.157L159.831,96.418z M166.894,90.974h2.206l0.376-1.085h3.14l-0.373,1.085
		h2.301l-0.249,0.781h-2.332l-0.528,1.552h2.146l-0.374,1.09l-3.296,2.799l1.338,2.831h-3.079l-0.467-0.997l-1.181,0.997h-3.016
		l3.324-2.801l-1.212-2.611h3.081l0.338,0.746l1.525-1.273h-4.788l0.279-0.78h2.208l0.56-1.552h-2.21L166.894,90.974z M122.67,89.92
		h-2.89l-2.863,4.664h1.244l-1.896,5.378h0.715c1.088,0.03,2.331-0.683,2.674-1.709l2.052-5.816h-0.589L122.67,89.92z
		 M122.016,94.49h7.526l-0.248,0.684h-7.526L122.016,94.49z M122.67,92.655h7.496l-0.25,0.714h-7.496L122.67,92.655z
		 M125.875,96.574h-1.619l-0.964,2.736c0.374-0.029,0.747-0.029,1.118,0c0.312-0.029,0.561-0.187,0.687-0.56L125.875,96.574z
		 M121.52,95.861h7.525l-0.249,0.681v0.032l-0.746,2.115c-0.313,0.933-1.556,1.337-2.238,1.304h-0.684h-5.039l0.092-0.31
		l0.157-0.374l0.964-2.736l0.154-0.527L121.52,95.861z M104.477,90.26h10.666l-0.311,0.902h-10.667L104.477,90.26z M110.01,96.014
		l0.22,2.798h-5.564l3.389-4.354h6.592l0.372-0.994h-12.221l-0.373,0.994h2.675l-4.199,5.413h1.028h1.896h6.47h1.119h0.682
		c0.778,0,1.243-0.528,1.088-1.367l-0.434-2.489H110.01z M91.384,94.676l0.03-0.091c0.498-1.806,0.125-3.08-1.929-3.392
		l-2.457,8.678h-0.03h8.49h1.618c0.715,0,1.492-0.59,1.741-1.306l2.583-7.372h-0.094h-2.985h-2.676l1.152-1.336h-2.581L92.41,92
		h1.368h1.213h3.079l-0.932,2.676H91.384z M90.326,98.593l0.716-2.643h5.628l-0.932,2.643H90.326z M125.626,89.824h3.448
		l-0.339,0.934h2.27l-0.249,0.715h-7.993l0.25-0.715h2.271L125.626,89.824z M133.556,90.82h0.778h0.932l0.747-0.9h2.645l-0.717,0.9
		h3.887h0.808h2.208l-1.43,4.043c-0.218,0.587-0.871,1.087-1.463,1.087h-1.12h-0.84h-5.22h-2.243h-0.775L133.556,90.82z"/>
	<path fill-rule="evenodd" clip-rule="evenodd" fill="#077EE0" d="M139.538,58.222c0,2.003-0.523,3.926-1.483,5.635
		c8.346,0.667,15.637,4.485,20.273,10.066c-2.753-1.175-3.194-1.48-6.221-1.745c-1.216-0.108-1.668-0.046-1.97-0.055
		c-3.584-4.166-10.029-7.379-16.332-7.887c1.854-1.997,2.459-3.559,2.459-5.108c0-7.235-8.82-12.804-22.063-7.688
		C120.397,45.896,138.21,46.395,139.538,58.222"/>
	<path fill-rule="evenodd" clip-rule="evenodd" fill="#077EE0" d="M25.888,76.516c4.011-6.52,12.421-11.859,21.32-11.859
		c2.442,0,5.572,0.287,7.797,0.849c3.028-11.471,18.294-26.934,37.576-26.934c12.982,0,17.384,9.168,15.347,13.95
		c-1.186,2.779-4.014,4.743-4.014,4.743s2.294-2.25,2.934-5.136c1.213-5.472-4.636-11.211-13.6-11.236
		c-13.904-0.039-29.777,10.98-33.686,22.459c-0.277,0.817-0.928,2.636-1.113,3.727c-4.385-1.764-17.624-1.739-22.625,5.92
		C32.021,73.252,28.589,74.368,25.888,76.516"/>
</g>
<g>
	<path fill="#FFFFFF" d="M18.971,127.93h8.9v9.878h-2.404v-0.978H14.165v0.978h-2.313v-9.788c-0.476,0.178-0.95,0.415-1.424,0.71
		c-0.416-0.651-0.86-1.273-1.335-1.869c2.492-0.889,4.035-1.956,4.628-3.204h-4.45v-1.778h4.895
		c0.118-0.591,0.179-1.246,0.179-1.961h-2.136c-0.416,0.596-0.979,1.22-1.691,1.872c-0.12-0.12-0.267-0.268-0.445-0.446
		c-0.12-0.178-0.445-0.504-0.979-0.978c1.305-1.129,2.225-2.461,2.759-4.005l2.136,0.179c-0.178,0.591-0.416,1.126-0.712,1.6h6.408
		v1.778h-3.114c0,0.239-0.031,0.565-0.089,0.982c0,0.477-0.031,0.8-0.089,0.979h3.916v1.778h-4.184
		c0.653,0.417,1.661,1.039,3.026,1.869c0.474,0.298,0.83,0.505,1.068,0.624L18.971,127.93z M18.971,127.93
		c-0.712-0.532-1.69-1.247-2.937-2.137c-0.356-0.298-0.654-0.502-0.89-0.622c-0.534,0.948-1.602,1.868-3.204,2.759H18.971z
		 M14.165,129.797v1.872h11.303v-1.872H14.165z M14.165,133.269v1.957h11.303v-1.957H14.165z M21.196,126.415v-8.454h8.277v8.454
		H21.196z M23.332,119.917v4.631h4.005v-4.631H23.332z"/>
	<path fill="#FFFFFF" d="M41.933,124.28c-0.237-0.415-0.505-0.803-0.8-1.157c-1.722,0.062-3.976,0.15-6.765,0.266
		c-0.237,0-0.564,0.032-0.978,0.089c-0.416,0.062-0.743,0.12-0.98,0.179l-0.801-1.957c0.593-0.297,1.098-0.713,1.513-1.245
		c1.187-1.187,2.254-2.583,3.204-4.183l2.403,0.8c-0.178,0.179-0.444,0.477-0.801,0.89c-1.366,1.602-2.434,2.789-3.204,3.561
		c0.534-0.059,1.364-0.089,2.491-0.089c1.127-0.057,1.959-0.09,2.493-0.09l-1.513-1.958l1.602-0.979
		c1.126,1.187,2.432,2.73,3.916,4.628L41.933,124.28z M32.855,137.63v-12.726h9.167v10.232c0.058,1.484-0.684,2.256-2.226,2.314
		c-0.178,0-0.534,0-1.068,0c-0.653,0.059-1.128,0.09-1.424,0.09c-0.06-0.298-0.12-0.711-0.178-1.246
		c-0.12-0.354-0.178-0.622-0.178-0.8c0.356,0.059,1.009,0.089,1.958,0.089c0.712,0,1.068-0.239,1.068-0.713v-1.335h-5.073v4.094
		H32.855z M34.902,126.683v1.782h5.073v-1.782H34.902z M34.902,130.064v1.78h5.073v-1.78H34.902z M46.828,126.415
		c-1.9,0-2.848-0.946-2.848-2.848v-6.939h2.225v3.289c1.602-0.591,3.381-1.422,5.339-2.489l1.247,1.689
		c-2.137,1.069-4.332,2.048-6.586,2.937v1.069c-0.06,0.892,0.385,1.305,1.334,1.246h1.78c0.891,0.059,1.394-0.296,1.514-1.069
		c0.118-0.77,0.207-1.511,0.267-2.224c0.118,0.061,0.325,0.121,0.623,0.178c0.355,0.122,0.83,0.298,1.423,0.535
		c-0.059,0.771-0.208,1.6-0.444,2.491c-0.238,1.424-1.217,2.135-2.937,2.135H46.828z M46.828,137.362
		c-1.9,0.059-2.848-0.86-2.848-2.759v-7.206h2.225v2.935c2.136-0.83,3.974-1.691,5.518-2.58l1.246,1.78
		c-1.602,0.83-3.857,1.839-6.764,3.025v1.601c0,0.832,0.444,1.217,1.334,1.156h1.869c0.89,0.061,1.364-0.234,1.424-0.889
		c0.118-0.65,0.207-1.452,0.267-2.402c0.236,0.059,0.563,0.178,0.979,0.356c0.475,0.178,0.83,0.298,1.068,0.356
		c-0.059,0.652-0.178,1.454-0.355,2.4v0.089c-0.356,1.426-1.335,2.137-2.938,2.137H46.828z"/>
	<path fill="#FFFFFF" d="M54.926,122.767v-2.135h2.67v-4.093h2.225v4.093h2.582v2.135h-2.582v2.849l0.534-0.533
		c0.713,0.533,1.661,1.422,2.849,2.67l-1.425,1.602c-0.178-0.236-0.505-0.591-0.979-1.067c-0.417-0.476-0.742-0.83-0.979-1.069
		v10.502h-2.225v-10.147c-0.712,1.961-1.572,3.649-2.581,5.076c0-0.12-0.03-0.328-0.089-0.624c-0.178-1.126-0.355-1.959-0.534-2.491
		c1.305-1.663,2.373-3.917,3.205-6.766H54.926z M62.67,137.808c-0.179-0.178-0.505-0.445-0.979-0.8
		c-0.416-0.415-0.743-0.713-0.979-0.891c1.364-1.425,2.225-2.817,2.581-4.183c0.414-1.305,0.623-3.47,0.623-6.498v-7.741h8.366
		v16.463c0,0.654,0.207,0.952,0.623,0.889h0.267c0.535,0.063,0.831-0.293,0.891-1.067c0.058-0.711,0.147-2.015,0.267-3.915
		c0.653,0.179,1.247,0.356,1.78,0.535c-0.12,2.018-0.237,3.443-0.356,4.271c-0.178,1.482-0.979,2.226-2.403,2.226h-1.068
		c-1.543,0-2.314-0.832-2.314-2.493v-14.687h-3.738v5.608c0,3.204-0.238,5.637-0.712,7.298
		C65.042,134.426,64.094,136.086,62.67,137.808z"/>
	<path fill="#FFFFFF" d="M79.135,137.719c-0.178-0.119-0.505-0.326-0.979-0.622c-0.417-0.3-0.742-0.534-0.979-0.713
		c1.543-2.137,2.254-5.52,2.137-10.146v-7.653H87.5c-0.237-0.592-0.476-1.216-0.712-1.87l2.759-0.354l0.712,2.225h7.387v5.873
		h-16.02v1.691v0.354h7.297c-0.179-0.474-0.327-0.979-0.445-1.511l2.581-0.268c0.119,0.654,0.267,1.246,0.444,1.778h7.209v1.961
		H87.856c0,0.236-0.031,0.532-0.089,0.889c0,0.477-0.03,0.801-0.089,0.979h9.079c0,0.298-0.031,0.771-0.089,1.424
		c-0.061,1.189-0.12,1.989-0.179,2.402c-0.121,2.137-1.247,3.174-3.382,3.115c-0.653,0.059-1.839,0.089-3.56,0.089
		c-0.059-0.179-0.148-0.532-0.268-1.067c-0.119-0.476-0.208-0.83-0.266-1.069c1.068,0,2.136,0,3.204,0
		c1.247,0.119,1.898-0.324,1.958-1.335c0-0.115,0-0.385,0-0.8c0.058-0.413,0.089-0.711,0.089-0.89h-6.853
		c-0.297,2.018-1.811,3.916-4.54,5.696c-0.119-0.118-0.297-0.298-0.534-0.535c-0.534-0.591-0.95-1.009-1.245-1.245
		c3.143-1.603,4.596-4.152,4.361-7.652h-3.917C81.538,132.201,80.737,135.286,79.135,137.719z M81.627,120.632v1.957h13.705v-1.957
		H81.627z"/>
	<path fill="#FFFFFF" d="M101.563,122.5c-0.355-0.356-0.891-0.831-1.603-1.424c1.722-1.363,2.968-2.907,3.739-4.626l2.313,0.265
		c-0.237,0.535-0.504,1.011-0.8,1.424h5.963v1.778h-4.184c0.296,0.3,0.652,0.715,1.067,1.248c0.179,0.178,0.297,0.298,0.357,0.356
		l-1.959,0.532c-0.476-0.711-1.067-1.422-1.778-2.137h-0.624C103.343,120.75,102.511,121.61,101.563,122.5z M116.869,137.719v-0.8
		h-11.391v0.889h-2.402v-11.304h-2.226v-3.915h9.078l-0.534-1.156l2.136-0.356l0.624,1.513h8.812v3.915h-2.313v-2.135h-15.488v1.424
		h15.397v4.894h-13.083v1.337h13.706v5.695H116.869z M105.479,127.397v1.6h10.68v-1.6H105.479z M116.869,133.715h-11.391v1.6h11.391
		V133.715z M112.954,121.61c-0.653-0.298-1.335-0.563-2.047-0.8c1.364-1.604,2.284-3.057,2.759-4.36l2.226,0.265
		c-0.179,0.474-0.416,0.95-0.712,1.424h6.408v1.778h-4.271c0.473,0.537,0.919,1.069,1.336,1.604l-1.958,0.532
		c-0.596-0.711-1.158-1.422-1.692-2.137h-0.801C113.845,120.454,113.428,121.02,112.954,121.61z"/>
	<path fill="#FFFFFF" d="M123.102,120.187v-2.226h6.94v2.226h-2.314v5.25h2.226v2.135h-2.226v5.431l2.314-0.533
		c0,0.831,0.03,1.601,0.089,2.313c-0.297,0.061-0.772,0.149-1.424,0.265c-2.315,0.359-4.153,0.683-5.519,0.982l-0.354-2.226
		l2.668-0.445v-5.787h-2.225v-2.135h2.225v-5.25H123.102z M130.754,132.647v-1.961h5.341v-2.222h-5.073v-11.037h12.371v11.037
		h-5.072v2.222h5.34v1.961h-5.34v2.489h6.141v1.871h-14.864v-1.871h6.498v-2.489H130.754z M133.247,119.385v2.669h2.848v-2.669
		H133.247z M133.247,123.926v2.578h2.848v-2.578H133.247z M141.168,119.385h-2.848v2.669h2.848V119.385z M138.32,123.926v2.578
		h2.848v-2.578H138.32z"/>
	<path fill="#FFFFFF" d="M147.131,137.097c-0.476-0.654-0.979-1.277-1.512-1.871c1.602-0.828,3.499-2.135,5.695-3.915l1.601,1.602
		c-1.067,0.833-2.551,1.9-4.448,3.205C147.872,136.532,147.428,136.86,147.131,137.097z M148.467,125.525l-0.712-2.048
		c0.771-0.178,1.423-0.413,1.957-0.711c1.425-0.77,2.878-1.658,4.361-2.671c-2.434,0.061-4.717,0.149-6.853,0.27
		c-0.12-0.713-0.268-1.427-0.445-2.137c6.587-0.179,12.874-0.475,18.868-0.89l0.533,2.046c-1.245,0.061-3.203,0.178-5.874,0.356
		c-0.89,0.061-1.572,0.119-2.046,0.176c-2.197,1.37-4.244,2.552-6.142,3.561c2.491-0.117,4.598-0.178,6.318-0.178
		c1.425-0.89,2.817-1.748,4.183-2.578l1.87,1.6c-4.45,2.493-8.574,4.628-12.371,6.408c0.83,0,2.225-0.056,4.183-0.178
		c2.433-0.059,4.242-0.117,5.429-0.176l-1.957-1.961l1.691-1.067c2.253,2.135,4.004,3.828,5.251,5.073l-1.691,1.424l-1.513-1.602
		l-5.519,0.178v4.094c0.117,1.897-0.861,2.878-2.938,2.937c-0.534,0.059-1.483,0.09-2.848,0.09c-0.119-0.89-0.297-1.663-0.533-2.315
		c0.83,0.061,1.659,0.089,2.491,0.089c1.009,0.061,1.483-0.383,1.424-1.335v-3.469l-5.695,0.265c-0.713,0-1.396,0.063-2.047,0.179
		l-0.803-2.225c0.535-0.056,1.395-0.325,2.583-0.8c1.779-0.83,3.617-1.75,5.518-2.759c-0.535,0.06-1.335,0.09-2.403,0.09
		c-1.067,0.059-1.87,0.087-2.403,0.087c-0.06,0-0.149,0-0.267,0C149.535,125.469,149,125.525,148.467,125.525z M165.465,136.919
		c-1.602-1.189-3.531-2.493-5.784-3.917l1.602-1.691c1.66,1.069,3.56,2.374,5.695,3.915L165.465,136.919z"/>
	<path fill="#FFFFFF" d="M169.469,131.669l-0.622-2.05c0.712-0.592,1.334-1.274,1.869-2.048c0.058-0.057,0.146-0.146,0.267-0.266
		c0.295-0.415,0.712-1.067,1.246-1.958c-1.246,0.061-2.314,0.147-3.204,0.268l-0.624-2.048c0.476-0.356,0.979-1.007,1.514-1.957
		c1.246-2.195,2.106-3.915,2.581-5.16l2.403,0.8c-0.889,1.663-2.195,3.736-3.916,6.228l2.492-0.089
		c0.117-0.234,0.297-0.591,0.535-1.067c0.234-0.413,0.412-0.741,0.533-0.979l2.047,0.979c-2.374,3.561-3.948,5.876-4.718,6.943
		l3.826-0.268c0,0.237-0.029,0.565-0.088,0.979c0,0.417-0.03,0.743-0.089,0.979c-0.417,0.061-0.979,0.119-1.691,0.178
		C171.516,131.371,170.062,131.55,169.469,131.669z M168.757,136.206l-0.356-2.137c3.145-0.413,5.696-0.77,7.655-1.067l-0.09,2.135
		C173.71,135.375,171.309,135.729,168.757,136.206z M175.877,121.254v-2.048h5.784c-0.118-0.293-0.267-0.8-0.444-1.511
		c-0.178-0.417-0.297-0.743-0.355-0.98l2.491-0.265c0.059,0.117,0.147,0.354,0.269,0.71c0.355,0.948,0.562,1.633,0.623,2.046h5.428
		v2.048h-6.675c-0.533,0.713-1.365,1.691-2.492,2.939c-0.653,0.77-1.156,1.365-1.513,1.778c0.83-0.06,2.344-0.12,4.539-0.179
		c0.89-0.059,1.543-0.089,1.957-0.089l-1.69-2.227l1.69-1.067c1.483,1.783,2.907,3.562,4.272,5.342l-1.868,1.245l-0.979-1.426
		l-1.514,0.089v6.587c-0.059,0.654,0.236,0.979,0.891,0.979h0.355c0.771,0.061,1.187-0.268,1.247-0.979
		c0.117-0.652,0.207-1.511,0.267-2.578c0.178,0.059,0.415,0.147,0.712,0.266c0.475,0.236,0.859,0.385,1.157,0.445
		c0,0.059,0,0.117,0,0.178c-0.12,1.246-0.238,2.135-0.356,2.668c-0.177,1.367-1.156,2.018-2.937,1.958h-0.979
		c-1.78,0.06-2.643-0.741-2.581-2.401v-7.03l-1.959,0.089c0,0.296-0.03,0.711-0.089,1.245c0,0.594-0.029,1.009-0.089,1.246
		c-0.119,3.146-1.752,5.665-4.894,7.565c-0.18-0.237-0.447-0.594-0.803-1.067c-0.297-0.356-0.533-0.654-0.712-0.89
		c2.729-1.365,4.123-3.204,4.184-5.52c0-0.178,0-0.534,0-1.067c0.059-0.591,0.088-1.039,0.088-1.334
		c-0.355,0-0.948,0.059-1.779,0.178c-0.178,0.059-0.327,0.089-0.444,0.089l-0.892-2.137c0.653-0.476,1.188-0.979,1.603-1.513
		c0.949-0.95,1.839-2.076,2.671-3.383H175.877z"/>
</g>
<g>
	<path fill="#FFFFFF" d="M10.857,149.59h-0.698v-5.963h0.698V149.59z"/>
	<path fill="#FFFFFF" d="M17.231,149.59h-0.852l-3.076-4.754c-0.075-0.119-0.137-0.243-0.188-0.374H13.09
		c0.022,0.124,0.034,0.396,0.034,0.817v4.311h-0.699v-5.963h0.903l2.991,4.679c0.125,0.193,0.204,0.326,0.239,0.399h0.016
		c-0.028-0.169-0.042-0.463-0.042-0.878v-4.2h0.699V149.59z"/>
	<path fill="#FFFFFF" d="M22.336,144.256h-1.722v5.334h-0.699v-5.334h-1.721v-0.629h4.142V144.256z"/>
	<path fill="#FFFFFF" d="M26.417,149.59h-3.161v-5.963h3.025v0.629h-2.326v1.986h2.155v0.631h-2.155v2.089h2.462V149.59z"/>
	<path fill="#FFFFFF" d="M30.652,149.59h-3.093v-5.963h0.699v5.335h2.394V149.59z"/>
	<path fill="#FFFFFF" d="M34.657,149.59h-3.093v-5.963h0.699v5.335h2.395V149.59z"/>
	<path fill="#FFFFFF" d="M36.268,149.59H35.57v-5.963h0.698V149.59z"/>
	<path fill="#FFFFFF" d="M42.293,149.182c-0.597,0.341-1.261,0.513-1.995,0.513c-0.852,0-1.54-0.278-2.066-0.828
		s-0.788-1.278-0.788-2.181c0-0.921,0.291-1.676,0.873-2.271c0.583-0.596,1.322-0.889,2.22-0.889c0.648,0,1.193,0.104,1.637,0.315
		v0.773c-0.483-0.307-1.054-0.461-1.713-0.461c-0.67,0-1.218,0.23-1.645,0.691c-0.426,0.459-0.64,1.057-0.64,1.789
		c0,0.757,0.198,1.348,0.592,1.782c0.395,0.431,0.933,0.646,1.615,0.646c0.466,0,0.869-0.094,1.21-0.278v-1.674h-1.303v-0.629h2.002
		V149.182z"/>
	<path fill="#FFFFFF" d="M46.843,149.59h-3.161v-5.963h3.025v0.629H44.38v1.986h2.156v0.631H44.38v2.089h2.462V149.59z"/>
	<path fill="#FFFFFF" d="M52.791,149.59h-0.852l-3.076-4.754c-0.074-0.119-0.136-0.243-0.188-0.374H48.65
		c0.022,0.124,0.034,0.396,0.034,0.817v4.311h-0.698v-5.963h0.903l2.991,4.679c0.125,0.193,0.204,0.326,0.239,0.399h0.017
		c-0.029-0.169-0.043-0.463-0.043-0.878v-4.2h0.699V149.59z"/>
	<path fill="#FFFFFF" d="M57.896,144.256h-1.721v5.334h-0.699v-5.334h-1.722v-0.629h4.142V144.256z"/>
	<path fill="#FFFFFF" d="M64.814,149.59h-3.161v-5.963h3.025v0.629h-2.327v1.986h2.156v0.631h-2.156v2.089h2.463V149.59z"/>
	<path fill="#FFFFFF" d="M70.763,149.59h-0.852l-3.076-4.754c-0.074-0.119-0.136-0.243-0.188-0.374h-0.026
		c0.022,0.124,0.034,0.396,0.034,0.817v4.311h-0.699v-5.963h0.903l2.991,4.679c0.125,0.193,0.204,0.326,0.239,0.399h0.017
		c-0.028-0.169-0.043-0.463-0.043-0.878v-4.2h0.699V149.59z"/>
	<path fill="#FFFFFF" d="M76.787,149.182c-0.596,0.341-1.261,0.513-1.994,0.513c-0.852,0-1.541-0.278-2.067-0.828
		c-0.525-0.55-0.788-1.278-0.788-2.181c0-0.921,0.291-1.676,0.874-2.271c0.582-0.596,1.322-0.889,2.219-0.889
		c0.648,0,1.193,0.104,1.637,0.315v0.773c-0.483-0.307-1.055-0.461-1.713-0.461c-0.671,0-1.218,0.23-1.645,0.691
		c-0.426,0.459-0.639,1.057-0.639,1.789c0,0.757,0.198,1.348,0.593,1.782c0.395,0.431,0.933,0.646,1.614,0.646
		c0.466,0,0.87-0.094,1.21-0.278v-1.674h-1.303v-0.629h2.002V149.182z"/>
	<path fill="#FFFFFF" d="M78.875,149.59h-0.699v-5.963h0.699V149.59z"/>
	<path fill="#FFFFFF" d="M85.249,149.59h-0.853l-3.076-4.754c-0.073-0.119-0.136-0.243-0.187-0.374h-0.025
		c0.022,0.124,0.034,0.396,0.034,0.817v4.311h-0.699v-5.963h0.903l2.99,4.679c0.125,0.193,0.205,0.326,0.239,0.399h0.018
		c-0.029-0.169-0.043-0.463-0.043-0.878v-4.2h0.699V149.59z"/>
	<path fill="#FFFFFF" d="M89.979,149.59h-3.162v-5.963h3.025v0.629h-2.326v1.986h2.155v0.631h-2.155v2.089h2.463V149.59z"/>
	<path fill="#FFFFFF" d="M98.236,149.59H97.4l-0.997-1.669c-0.092-0.159-0.18-0.294-0.264-0.4c-0.085-0.108-0.173-0.197-0.265-0.27
		c-0.091-0.069-0.189-0.121-0.294-0.152c-0.104-0.03-0.223-0.048-0.353-0.048h-0.571v2.539h-0.699v-5.963h1.78
		c0.262,0,0.502,0.031,0.721,0.096c0.218,0.067,0.409,0.166,0.57,0.301c0.162,0.135,0.29,0.298,0.384,0.493
		c0.094,0.195,0.14,0.428,0.14,0.695c0,0.209-0.031,0.402-0.093,0.576c-0.063,0.172-0.152,0.326-0.269,0.463
		c-0.116,0.135-0.255,0.252-0.417,0.348c-0.163,0.099-0.345,0.172-0.551,0.225v0.015c0.104,0.046,0.191,0.096,0.265,0.154
		c0.074,0.057,0.143,0.122,0.208,0.2c0.065,0.076,0.131,0.165,0.196,0.266c0.065,0.098,0.139,0.213,0.218,0.343L98.236,149.59z
		 M94.656,144.256v2.165h0.945c0.176,0,0.338-0.026,0.486-0.081c0.148-0.052,0.276-0.13,0.384-0.226s0.193-0.218,0.255-0.36
		c0.063-0.146,0.094-0.307,0.094-0.483c0-0.319-0.104-0.567-0.311-0.745c-0.208-0.179-0.507-0.27-0.899-0.27H94.656z"/>
	<path fill="#FFFFFF" d="M101.457,149.694c-0.848,0-1.525-0.28-2.033-0.839c-0.508-0.561-0.762-1.287-0.762-2.178
		c0-0.959,0.259-1.727,0.779-2.298c0.519-0.57,1.226-0.854,2.117-0.854c0.824,0,1.487,0.273,1.99,0.83
		c0.503,0.555,0.755,1.278,0.755,2.179c0,0.969-0.259,1.738-0.775,2.309C103.01,149.41,102.318,149.694,101.457,149.694z
		 M101.508,144.153c-0.626,0-1.134,0.227-1.525,0.681c-0.393,0.45-0.589,1.046-0.589,1.782c0,0.735,0.191,1.324,0.571,1.771
		c0.38,0.45,0.877,0.675,1.492,0.675c0.653,0,1.168-0.214,1.547-0.64c0.377-0.426,0.564-1.026,0.564-1.798
		c0-0.782-0.183-1.392-0.549-1.821C102.653,144.371,102.149,144.153,101.508,144.153z"/>
	<path fill="#FFFFFF" d="M107.873,149.694c-0.847,0-1.525-0.28-2.032-0.839c-0.509-0.561-0.763-1.287-0.763-2.178
		c0-0.959,0.259-1.727,0.779-2.298c0.519-0.57,1.226-0.854,2.117-0.854c0.824,0,1.487,0.273,1.989,0.83
		c0.504,0.555,0.756,1.278,0.756,2.179c0,0.969-0.26,1.738-0.776,2.309C109.427,149.41,108.736,149.694,107.873,149.694z
		 M107.924,144.153c-0.626,0-1.134,0.227-1.524,0.681c-0.393,0.45-0.59,1.046-0.59,1.782c0,0.735,0.191,1.324,0.572,1.771
		c0.38,0.45,0.877,0.675,1.491,0.675c0.653,0,1.168-0.214,1.547-0.64c0.378-0.426,0.566-1.026,0.566-1.798
		c0-0.782-0.185-1.392-0.549-1.821C109.069,144.371,108.565,144.153,107.924,144.153z"/>
	<path fill="#FFFFFF" d="M117.971,149.59h-0.699v-4.004c0-0.311,0.02-0.697,0.059-1.158h-0.018
		c-0.066,0.267-0.126,0.461-0.178,0.578l-2.036,4.584h-0.34l-2.037-4.55c-0.058-0.135-0.117-0.341-0.18-0.612h-0.017
		c0.022,0.236,0.033,0.628,0.033,1.167v3.995h-0.673v-5.963h0.921l1.832,4.157c0.142,0.319,0.231,0.559,0.273,0.717h0.024
		c0.12-0.33,0.216-0.573,0.289-0.734l1.868-4.14h0.877V149.59z"/>
	<path fill="#FFFFFF" d="M128.452,149.59h-0.699v-4.004c0-0.311,0.02-0.697,0.06-1.158h-0.018c-0.067,0.267-0.127,0.461-0.178,0.578
		l-2.037,4.584h-0.34l-2.037-4.55c-0.057-0.135-0.116-0.341-0.179-0.612h-0.017c0.022,0.236,0.032,0.628,0.032,1.167v3.995h-0.672
		v-5.963h0.92l1.833,4.157c0.142,0.319,0.23,0.559,0.273,0.717h0.023c0.12-0.33,0.217-0.573,0.29-0.734l1.866-4.14h0.878V149.59z"/>
	<path fill="#FFFFFF" d="M134.63,149.59h-0.775l-0.63-1.669h-2.53l-0.597,1.669h-0.776l2.283-5.963h0.726L134.63,149.59z
		 M132.993,147.29l-0.937-2.539c-0.027-0.087-0.061-0.217-0.094-0.402h-0.018c-0.028,0.172-0.06,0.307-0.093,0.402l-0.928,2.539
		H132.993z"/>
	<path fill="#FFFFFF" d="M140.313,149.59h-0.853l-3.077-4.754c-0.072-0.119-0.136-0.243-0.187-0.374h-0.026
		c0.024,0.124,0.035,0.396,0.035,0.817v4.311h-0.699v-5.963h0.903l2.991,4.679c0.125,0.193,0.204,0.326,0.239,0.399h0.018
		c-0.028-0.169-0.044-0.463-0.044-0.878v-4.2h0.699V149.59z"/>
	<path fill="#FFFFFF" d="M146.5,149.59h-0.774l-0.631-1.669h-2.531l-0.597,1.669h-0.775l2.284-5.963h0.725L146.5,149.59z
		 M144.864,147.29l-0.937-2.539c-0.028-0.087-0.062-0.217-0.095-0.402h-0.018c-0.028,0.172-0.06,0.307-0.093,0.402l-0.929,2.539
		H144.864z"/>
	<path fill="#FFFFFF" d="M151.834,149.182c-0.596,0.341-1.261,0.513-1.994,0.513c-0.852,0-1.541-0.278-2.065-0.828
		c-0.525-0.55-0.788-1.278-0.788-2.181c0-0.921,0.29-1.676,0.874-2.271c0.58-0.596,1.321-0.889,2.218-0.889
		c0.648,0,1.193,0.104,1.637,0.315v0.773c-0.483-0.307-1.054-0.461-1.714-0.461c-0.669,0-1.217,0.23-1.644,0.691
		c-0.426,0.459-0.639,1.057-0.639,1.789c0,0.757,0.196,1.348,0.592,1.782c0.395,0.431,0.933,0.646,1.614,0.646
		c0.466,0,0.87-0.094,1.21-0.278v-1.674h-1.303v-0.629h2.002V149.182z"/>
	<path fill="#FFFFFF" d="M156.385,149.59h-3.162v-5.963h3.026v0.629h-2.327v1.986h2.155v0.631h-2.155v2.089h2.463V149.59z"/>
	<path fill="#FFFFFF" d="M160.091,149.354v-0.828c0.097,0.087,0.21,0.16,0.342,0.228c0.13,0.065,0.269,0.12,0.414,0.166
		c0.144,0.045,0.289,0.08,0.438,0.106c0.148,0.025,0.284,0.037,0.409,0.037c0.432,0,0.752-0.079,0.963-0.237
		c0.211-0.159,0.316-0.39,0.316-0.691c0-0.159-0.035-0.298-0.104-0.417c-0.068-0.118-0.165-0.23-0.29-0.329
		c-0.125-0.1-0.271-0.193-0.442-0.284c-0.171-0.092-0.355-0.185-0.555-0.28c-0.209-0.109-0.404-0.218-0.583-0.324
		c-0.179-0.108-0.335-0.229-0.469-0.36c-0.134-0.129-0.239-0.276-0.315-0.439c-0.076-0.168-0.115-0.361-0.115-0.58
		c0-0.274,0.06-0.512,0.18-0.711c0.118-0.205,0.275-0.368,0.467-0.496c0.194-0.126,0.416-0.224,0.667-0.291
		c0.25-0.063,0.502-0.096,0.758-0.096c0.591,0,1.02,0.069,1.286,0.213v0.782c-0.352-0.245-0.803-0.367-1.355-0.367
		c-0.152,0-0.306,0.018-0.458,0.053c-0.154,0.034-0.29,0.087-0.411,0.156c-0.118,0.071-0.215,0.163-0.288,0.278
		c-0.075,0.113-0.112,0.252-0.112,0.417c0,0.154,0.028,0.287,0.086,0.398c0.057,0.108,0.141,0.21,0.251,0.302
		c0.111,0.089,0.246,0.178,0.406,0.263c0.158,0.087,0.343,0.181,0.553,0.283c0.21,0.106,0.412,0.22,0.605,0.337
		c0.192,0.115,0.361,0.243,0.507,0.385c0.145,0.141,0.259,0.298,0.34,0.47c0.084,0.171,0.124,0.367,0.124,0.589
		c0,0.296-0.057,0.546-0.17,0.748c-0.114,0.206-0.269,0.371-0.464,0.5c-0.197,0.128-0.423,0.219-0.678,0.275
		c-0.256,0.057-0.525,0.087-0.811,0.087c-0.09,0-0.205-0.009-0.344-0.025c-0.141-0.018-0.282-0.042-0.427-0.067
		c-0.146-0.031-0.281-0.065-0.408-0.107C160.274,149.451,160.171,149.405,160.091,149.354z"/>
	<path fill="#FFFFFF" d="M168.766,143.627l-1.967,3.759v2.204H166.1v-2.188l-1.918-3.774h0.793l1.338,2.693
		c0.017,0.031,0.064,0.155,0.144,0.365h0.009c0.028-0.091,0.083-0.213,0.162-0.365l1.397-2.693H168.766z"/>
	<path fill="#FFFFFF" d="M169.32,149.354v-0.828c0.097,0.087,0.21,0.16,0.341,0.228c0.13,0.065,0.269,0.12,0.413,0.166
		c0.145,0.045,0.291,0.08,0.439,0.106c0.147,0.025,0.284,0.037,0.409,0.037c0.431,0,0.752-0.079,0.963-0.237
		c0.211-0.159,0.314-0.39,0.314-0.691c0-0.159-0.033-0.298-0.102-0.417c-0.068-0.118-0.165-0.23-0.29-0.329
		c-0.125-0.1-0.273-0.193-0.442-0.284c-0.171-0.092-0.355-0.185-0.555-0.28c-0.21-0.109-0.404-0.218-0.584-0.324
		c-0.178-0.108-0.334-0.229-0.468-0.36c-0.134-0.129-0.239-0.276-0.315-0.439c-0.076-0.168-0.115-0.361-0.115-0.58
		c0-0.274,0.06-0.512,0.178-0.711c0.12-0.205,0.275-0.368,0.469-0.496c0.193-0.126,0.415-0.224,0.665-0.291
		c0.251-0.063,0.504-0.096,0.759-0.096c0.592,0,1.02,0.069,1.287,0.213v0.782c-0.354-0.245-0.804-0.367-1.355-0.367
		c-0.153,0-0.307,0.018-0.46,0.053c-0.153,0.034-0.289,0.087-0.409,0.156c-0.119,0.071-0.216,0.163-0.289,0.278
		c-0.074,0.113-0.111,0.252-0.111,0.417c0,0.154,0.028,0.287,0.086,0.398c0.057,0.108,0.139,0.21,0.251,0.302
		c0.109,0.089,0.246,0.178,0.405,0.263c0.159,0.087,0.343,0.181,0.554,0.283c0.21,0.106,0.412,0.22,0.604,0.337
		c0.193,0.115,0.361,0.243,0.507,0.385c0.145,0.141,0.259,0.298,0.341,0.47c0.082,0.171,0.124,0.367,0.124,0.589
		c0,0.296-0.057,0.546-0.17,0.748c-0.114,0.206-0.269,0.371-0.465,0.5c-0.197,0.128-0.422,0.219-0.678,0.275
		c-0.255,0.057-0.524,0.087-0.81,0.087c-0.091,0-0.206-0.009-0.345-0.025c-0.14-0.018-0.281-0.042-0.426-0.067
		c-0.146-0.031-0.281-0.065-0.41-0.107C169.504,149.451,169.399,149.405,169.32,149.354z"/>
	<path fill="#FFFFFF" d="M177.653,144.256h-1.72v5.334h-0.699v-5.334h-1.721v-0.629h4.14V144.256z"/>
	<path fill="#FFFFFF" d="M181.736,149.59h-3.162v-5.963h3.025v0.629h-2.326v1.986h2.155v0.631h-2.155v2.089h2.463V149.59z"/>
	<path fill="#FFFFFF" d="M188.961,149.59h-0.697v-4.004c0-0.311,0.02-0.697,0.059-1.158h-0.018
		c-0.067,0.267-0.127,0.461-0.179,0.578l-2.036,4.584h-0.341l-2.037-4.55c-0.058-0.135-0.116-0.341-0.178-0.612h-0.018
		c0.021,0.236,0.034,0.628,0.034,1.167v3.995h-0.673v-5.963h0.92l1.832,4.157c0.141,0.319,0.232,0.559,0.272,0.717h0.025
		c0.12-0.33,0.215-0.573,0.29-0.734l1.865-4.14h0.878V149.59z"/>
</g>
</svg>
