<?xml version="1.0" standalone="no"?><!DOCTYPE svg PUBLIC "-//W3C//DTD SVG 1.1//EN" "http://www.w3.org/Graphics/SVG/1.1/DTD/svg11.dtd"><svg t="1607434917485" class="icon" viewBox="0 0 1024 1024" version="1.1" xmlns="http://www.w3.org/2000/svg" p-id="1204" xmlns:xlink="http://www.w3.org/1999/xlink" width="200" height="200"><defs><style type="text/css"></style></defs><path d="M994.98295572 481.36470764s-298.35804114-63.20209354-565.40009036-57.14253303c-53.06024251 64.06774505-12.17822945 86.57849764-12.17822948 86.57849765s-1.74083662 1.73130303-6.95953302 0.86565151c-73.06746994-19.04814657-37.4041533-58.87383602 18.26829751-116.88011381-92.20332572 77.05442436-213.11424847 110.82055323-286.1798117 124.67097735-30.44462027 6.06146725-59.1484039 11.25537629-90.46439579 6.92711876-39.14308319-5.19581577-48.71101105-16.44928533-45.23124457-27.7046616 1.73892989-6.05956054 6.08816135-12.1210278 11.30685778-17.31493683 17.39692589-17.31684356 46.10261621-27.70466164 68.71823849-36.36308343 101.77125359-37.22873492 223.55164131-45.02150518 280.08974362-47.61845973 9.56983461-0.86565151 20.00722741-0.86565151 30.44462026-1.731303 2.61030158 0 7.82899796-0.86565151 11.30876448-2.59695448 74.80639983-37.22873492 132.21587385-72.72616682 132.21587384-72.72616687s-2.60839483 5.19390902-71.32663332 63.20209354c-4.34923146 4.32825751-8.69846292 7.79086356-13.04769438 12.12102781 35.66522338 0 322.71259333 6.92521205 517.560451 74.45746982 4.34732473 1.73130303 19.13585578 6.05956054 20.0053207 9.52407329 0.86946494 0.86565151 0.86946494 1.73130303 0.86946494 1.73130305m-882.02642908 19.91189134c28.70569038-6.05956054 77.41670141-19.04623985 155.70286778-46.75280821 19.13585578-6.92711878 40.01254812-15.58363382 60.01977556-23.3764041-2.61030158-0.86565151-5.21869641-0.86565151-7.82709127-0.86565152-104.38155518 2.59695451-226.16003616 37.22873492-274.87295394 56.27497476-6.08816135 2.59695451-37.4041533 13.85233081-12.17822946 19.04814657 5.21869641 0.86565151 11.3087645 1.73130303 18.26639082 1.73130303 22.61562226 1.73320973 38.27361822-0.86374479 60.88924051-6.05956053" fill="#0089E0" p-id="1205"></path><path d="M267.78992948 573.13520757l-4.34923146 20.77754286h9.56792788c5.21869641 0 9.56792787-1.72939629 12.17822944-3.4606993s3.47976652-4.33016426 3.47976651-8.6584218c0-2.59695451-0.86946494-4.33016426-2.60839485-6.06146726-1.74083662-1.73130303-4.34923146-2.59695451-7.82899799-2.5969545h-10.43929953m6.95953304-31.16536096l-3.47976654 18.18058836h6.95953303c5.21869641 0 8.69846292-0.86565151 11.30876452-2.5969545s4.34923146-4.33016426 4.34923146-6.92711878-0.86946494-4.33016426-2.61030159-6.06146725c-1.73892989-1.72939629-4.34923146-2.59504778-6.95762631-2.59504783h-9.56983457m-17.39692589-12.98858602h40.01254814c2.61030158 0.86565151 5.21869641 0.86565151 6.95953302 1.731303 3.47976652 1.73130303 6.08816135 3.46260603 7.82899802 6.06146729 1.73892989 2.59695451 2.60839483 6.06146725 2.60839483 9.52216655 0 5.19581577-1.73892989 10.38972479-6.08816136 13.85423754a21.03685697 21.03685697 0 0 1-14.78662429 6.06146727c4.34923146 0.86565151 8.69846292 3.46069931 11.30876447 6.05956052s4.34923146 6.06146725 4.34923148 10.38972481-0.8713717 7.79277028-2.61030156 11.25346957c-1.74083662 3.46260603-4.34923146 6.06146725-7.828998 8.65842178a29.13470269 29.13470269 0 0 1-10.43929953 4.33016425c-3.47976652 0.86565151-9.56792787 0.86565151-16.52555419 0.86565152h-32.18355016l17.39501913-78.7876341m111.33918146 15.58363385l-16.52746089 30.30352286c-6.08816135 11.25537629-12.17822945 21.64510107-18.26639083 32.90047739h-22.61562225l46.97208115-78.78572737h26.0953888l13.04769439 78.78572737h-20.87669235c-2.61030158-20.77944959-5.21869641-42.42264396-7.82899802-63.20400025m53.06024253-15.58363385h20.87669238l-16.52555418 78.78572738H404.3569415l17.39501912-78.78572738m27.83622541 0h22.61562227l7.82709125 22.51075262c0 0.86565151 0 1.73130303 0.87137168 3.46260601 0.86946494 2.59695451 0.86946494 4.33016426 1.7389299 6.06146727 0.86946494-2.59695451 1.74083662-4.33016426 3.47976652-6.06146727 0.8713717-1.73130303 1.74083662-2.59695451 1.74083661-3.46260601l17.39692586-22.51075262h24.35455217l-39.14308317 49.34976274-6.08816139 29.43596464h-21.74615731l6.08816137-29.43596464-19.13585576-49.34976274m88.72546591 0h21.74425061l-9.56792789 44.15394698c-0.86946494 1.73130303-0.86946494 3.46260603-1.74083663 5.19581576v6.06146726c0 2.59695451 0.8713717 5.19581577 3.47976654 6.92711876 1.73892989 2.59504778 4.34923146 3.46069931 7.82709125 3.4606993 4.34923146 0 7.82899796-1.72939629 10.43929953-5.19390904 2.61030158-2.59695451 4.34923146-8.65842178 6.08816139-17.31684356l9.56983459-43.28829546h20.87478567l-10.43739285 49.34976274c-1.74083662 11.25537629-6.08816135 19.04623985-12.17822944 24.24205559s-14.78853102 7.79277028-25.22592385 7.79277031-18.26639082-2.59695451-23.48508719-6.9271188c-5.21869641-5.19581577-7.82709126-11.2534696-7.82709126-19.91189134v-6.06146728c0-1.73130303 0.86946494-3.46260603 0.86946492-5.19581576l9.56983461-43.28829546m85.24379268 0h26.09729551l13.0476944 39.82568943c0.86946494 3.46260603 1.73892989 6.92711878 2.61030156 9.52407331 0 2.59695451 0.86946494 5.19581577 0.86946495 6.92711874h0.86946493c0-1.73130303 0.86946494-4.33016426 0.86946496-6.92711874 0.86946494-2.59695451 0.86946494-6.06146725 1.73892988-9.52407331l8.70036965-39.82568943h19.13585578l-16.52746092 78.78572738h-26.09538881l-13.91906601-44.15394696c-0.86946494-1.73130303-0.86946494-4.33016426-1.73892992-6.06146728 0-1.73130303-0.86946494-4.33016426-0.86946494-6.92711876h-0.86946497c0 3.46260603-0.86946494 6.06146725-0.86946493 8.65842177-0.8713717 2.59695451-0.8713717 5.19581577-1.74083665 6.92711877l-8.69846291 41.55699246h-19.13776248l16.52746092-78.78572738m108.7307866 13.85423754l-4.34923146 21.64510109h5.21869643c5.21869641 0 9.56983461-0.86565151 12.17822942-3.46260601 2.61030158-1.73130303 4.34923146-5.19581577 4.34923147-8.6584218s-0.86946494-5.19581577-3.47976652-6.92711876c-1.73892989-1.73130303-5.2167897-2.59504778-8.69846291-2.5950478h-5.21869643m-18.2663908-13.85614426h23.48508723c11.3087645 0 20.00532071 1.73130303 25.2240171 5.19581576s7.82899796 8.65842178 7.828998 16.44928534c0 8.65842178-3.47976652 15.58554055-9.56983461 20.77754286-6.08816135 5.19581577-13.91715935 7.79277028-25.22401711 7.79277029h-11.30685778l-6.08816138 28.57031313h-20.87669236l16.52746091-78.78572738m120.90901607 31.16917438c0-6.06146725-1.74083662-10.38972479-4.34923148-13.85423754-2.61030158-3.46069931-6.08816135-4.32825751-10.43929956-4.32825752-3.47785979 0-6.08816135 0.86565151-9.56792786 2.5950478-2.61030158 1.73130303-5.21869641 4.33016426-6.95953303 8.65842177-2.60839483 2.59695451-3.47785979 6.06146725-5.21869639 10.38972479-0.86946494 4.33016426-1.73892989 8.65651505-1.73892992 12.98667931 0 5.19581577 1.73892989 9.52407328 4.34923145 12.98858603 2.60839483 3.46260603 6.08816135 5.19390902 10.43929956 5.19390904 3.47785979 0 6.08816135-0.86565151 8.69846293-3.4606993 3.47976652-1.73130303 6.08816135-4.33016426 8.70036966-7.79277026 1.73892989-3.46260603 2.60839483-6.92711878 4.34732473-11.25537633 0.86946494-4.32825751 1.73892989-8.65842178 1.73892991-12.12102779m-13.04960111-32.90047737c10.43929954 0 19.13776247 2.59695451 25.22592383 8.65842175s9.56792787 14.71798233 9.56792786 25.10770714c0 5.19581577-0.86946494 11.2534696-2.60839485 16.44928532-1.73892989 6.06146725-4.34923146 10.38972479-6.95762629 14.71988905-4.34923146 6.05956054-9.56983461 10.38781808-15.65799596 12.9866793-6.9576263 3.46260603-13.04769439 5.19581577-20.87478565 5.19581577-11.3087645 0-20.00722741-3.46260603-26.09729551-9.5240733s-8.69846292-14.71798233-8.69846294-25.10770709c0-6.06146725 0.86946494-11.2534696 1.73892989-16.44928534 1.73892989-5.19581577 4.34923146-9.52407328 6.95762633-13.85423755 4.34923146-6.05956054 9.56983461-11.2534696 15.65799596-13.85233082 6.09006807-3.46451274 13.04960112-4.33016426 21.74615733-4.33016423m73.06937665 15.58554053l-3.47976651 19.04623988h7.828998c4.34732473 0 8.69846292-0.86565151 11.30876448-2.59695456 2.60839483-1.73130303 3.47785979-4.33016426 3.47785979-7.79277024 0-2.59695451-0.86946494-5.19581577-2.60839486-6.06146729-1.73892989-1.73130303-4.34923146-2.59504778-7.82899796-2.59504779h-8.69846294m-17.39692584-13.85423754h30.44462024c9.56983461 0 16.52746091 1.73130303 20.87669237 4.33016426 5.21869641 3.46260603 7.82709126 8.65842178 7.82709126 14.71798232a20.84046468 20.84046468 0 0 1-6.08816136 14.71988903c-3.47785979 3.46260603-9.56792787 5.19581577-16.52746091 6.05956055 2.61030158 0.86565151 4.34923146 2.59695451 5.21869642 4.33016426 1.74083662 1.73130303 2.61030158 4.33016426 2.61030157 7.79277028l6.08816135 26.83901009h-20.87669237l-5.21869639-25.10770709c-0.86946494-2.59695451-1.73892989-4.33016426-3.47785981-5.19581577-0.8713717-0.86565151-3.47976652-0.86565151-6.08816136-0.86565148h-4.34923147l-6.08816136 31.16917434h-20.87669239l16.52555421-78.78954079m71.32663332 0h61.76061217l-3.47976654 14.71798232h-20.87478562l-13.04960112 64.06965178H951.4906411l13.91715933-64.06965178h-20.00532072l3.4778598-14.71798232M300.8448513 642.40067506c2.61030158 0 4.34923146 0.86565151 5.2186964 1.73130304 0.8713717 0.86565151 0.8713717 2.59504778 0 4.32825751l-11.30685778 63.20209354h-69.58770344l12.17822945-69.26165409h24.35455219c1.74083662-2.59695451 4.34923146-6.92711878 6.08816136-11.25537629h12.17822942c-1.73892989 4.33016426-4.34923146 7.79277028-6.08816135 11.25537629h26.96485375m-8.69846295 8.65651509h-45.23315125l-3.47976654 20.77754286h47.84154612l3.47976652-18.18058834v-1.73130302s-0.86946494-0.86565151-2.60839485-0.8656515m-54.80107913 51.94671723h47.84154612l4.34923146-22.51075259H241.69454067l-4.34923145 22.51075259m160.05209924-58.87192928h-60.01977556l1.74083662-9.52407327h60.01977558l-1.74083664 9.52407327m-73.9388416 31.16726764l1.74083661-10.38781805h78.28616634l-1.7408366 10.38781805h-40.01254814c-6.09006807 8.65842178-12.17822945 16.45119204-17.39692587 23.37640411h33.0530151l-6.9576263-17.31493684h11.30685778l13.04769439 27.70466164h-13.04769439l-2.60839486-6.06146727-2.61030154 5.19581575h-53.93161419l26.09538875-32.90047739h-25.22401708m175.71009519-43.29020217c2.61030158 0 3.47976652 0 5.21869638 0.86565152 0.86946494 0.86565151 0.86946494 2.59695451 0.86946498 5.19581573l-13.04769441 72.72616685H415.66379928l15.65608922-78.78572739h67.84877355m-5.21869641 10.38972478v-1.73130296c-0.86946494 0-1.73892989-0.86565151-2.61030158-0.86565152h-51.32131264l-12.17822945 63.2001868h55.67054411l10.43929956-60.60323232m-53.06024252 10.38781809l1.73892988-6.92711878h46.97208118l-0.87137169 6.92711878h-20.00722741l-2.61030156 12.12102779h18.2682975l-0.87137168 6.92521207h-18.26639078l-3.47976653 19.04814658h20.00722743l-0.86946496 6.92521204H431.31798179l1.7408366-6.92521204h19.1377625l2.61030156-19.04814658h-16.52746091l1.7408366-6.92521207h16.52555419l2.61030159-12.12102779h-18.2663908m30.44462024 35.4974319l-1.7389299-12.98858603h8.69846294c0.86946494 4.33016426 1.73892989 8.65842178 3.47976651 12.98858603h-10.43929955m79.1556313-46.75090149l-10.43929952 18.18058835c3.47976652 9.52407328 5.21869641 17.31493684 5.21869638 22.51075262 0 1.73130303 0 2.59695451-0.86946492 4.33016425 0 1.73130303-0.86946494 2.59695451-1.74083663 3.46260603-0.86946494 0.86565151-1.73892989 1.73130303-3.47785981 2.5969545-1.74083662 0.86565151-3.47976652 1.73130303-6.08816134 1.731303h-5.21869641l-1.73892993-7.79277025h4.34732476c1.74083662 0 3.47976652-0.86565151 4.34923146-1.73130303s1.73892989-2.59695451 1.7389299-4.33016424c0-5.19581577-1.73892989-12.11912107-4.34732474-20.77754288 4.34732473-7.79277028 6.9576263-13.85423754 9.56792787-19.91189133 0.86946494 0 0-0.86565151 0-0.86565151h-7.82709127l-13.04769438 72.72616681h-8.70036964l13.91906604-79.65137887h26.09348209v2.5969545c0 2.59504778 0 4.32635082-1.73892991 6.92521205m48.71101108 0.8656515h-40.8820131l1.73892991-7.79277023h40.01254814l-0.86946495 7.79277023m-50.45184771 12.98477263h53.06214929l-1.74083663 9.52407325h-20.87478568l-9.56983459 45.88524997h-16.52746093l-2.60839483-6.92711874h9.56792789l8.70036964-38.96003795h-21.7461573l1.73702314-9.52216653m5.22060313 15.58363381h10.43929957c-5.21869641 11.25537629-10.43929954 21.6470078-15.65799594 32.03482588h-11.30876452c6.95953303-10.38781808 12.17822945-20.77944959 16.52746089-32.03482588m26.0953888 0h8.69846295c0.8713717 11.25537629 1.74083662 21.6470078 2.61030155 32.03482588h-10.43929954c0-10.38781808-0.86946494-21.64510107-0.86946496-32.03482588m77.41670142-18.18058835h-11.3087645l-11.3087645 58.873836h-9.56792785l11.30876448-58.873836h-13.91906607l1.7389299-6.92711878h13.91906607l2.60839483-14.71798233h9.56983462l-3.47976653 14.71798233h11.30876451l-0.86946496 6.92711878m-32.18355013 7.79277028h7.82709122c-4.34923146 17.31493684-8.70036964 31.16917438-13.04769437 42.42264395h-9.5698346c6.09006807-14.71798233 10.43929954-29.43787135 14.79043775-42.42264395m20.87478563 0h7.828998l-4.34923147 37.2268282h-7.82899797l4.34923144-37.2268282m46.10261624-26.83901013c2.61030158 0 4.34923146 0.86565151 5.21869639 0.86565153 0.86946494 0.86565151 0.86946494 2.59695451 0.86946495 5.19581575l-13.0476944 64.06774504h8.69846294l-3.4778598 7.79277026h-16.52746092l13.91715936-67.53035108v-1.73130299c-0.86946494-0.86565151-0.86946494-0.86565151-1.73892989-0.86565151h-12.17822947c-1.73892989 9.52216657-3.47976652 18.18058835-6.08816135 27.70466165a161.46497979 161.46497979 0 0 1-6.9576263 24.24205559c-2.61030158 6.92521205-4.34923146 12.98667932-6.95762634 18.18058834h-11.30876447c3.47785979-6.06146725 6.9576263-12.1210278 8.69846294-19.04623986 2.61030158-6.92711878 5.21869641-13.85423754 6.9576263-22.51075257 2.61030158-7.79277028 4.34923146-19.91379809 7.82899798-36.36308343h26.09348208m48.71291776 47.61464628l-1.74083661 9.52407329c-10.43929954 4.33016426-20.00532071 7.79086356-30.44462027 11.25346956l0.86946495-8.65651506 11.30876449-4.33016423 6.08816138-30.30352289h-9.5698346l0.87137165-7.79277028h9.56792789l4.34923146-19.91189134h9.56983463l-3.47976654 19.91189134h8.70036966l-1.74083664 7.79277028h-8.6984629l-5.21869645 25.97335865 9.5679279-3.46069932m46.09880278-24.24205563c3.47976652 0 5.21869641 0 6.08816135 1.73130302 0.8713717 0.86565151 0.8713717 2.59695451 0 5.19581577l-8.69846292 46.75280821h-20.00532072l-3.47976651-8.6584218h14.78853101l7.82709128-36.36117668v-0.8656515s0-0.86565151-0.86946498-0.86565151h-0.86946495c-2.61030158 8.65651505-6.95953303 16.44928533-11.30876447 21.64510108-3.47976652 5.19581577-8.70036964 10.38781808-14.78853103 13.85233084-6.08816135 4.33016426-13.04769439 8.65842178-20.87669238 12.98858602l1.74083663-11.2553763c9.56792787-4.33016426 16.52746091-9.52216657 22.61562228-15.58363384s10.43739283-12.98858603 13.91715934-21.6451011h-5.21869642c-0.86946494 3.46260603-2.60839483 6.06146725-5.21869642 9.52216657-2.60839483 3.46260603-5.21869641 6.06146725-9.56792786 9.5240733-3.47976652 2.59695451-7.82899796 6.06146725-13.04960112 8.65842178l1.7408366-11.25537632c4.34732473-2.59695451 6.9576263-4.33016426 9.56792788-6.92711876 3.47976652-2.59695451 5.21869641-6.05956054 6.95762631-9.52216657h-13.04769438c19.13776247-12.1210278 29.57515532-19.04623985 33.05492182-22.51075258 0.86946494 0 0.86946494-0.86565151 0-0.86565149h-29.5751553l1.7389299-7.7927703h40.0125481c0.86946494 0 1.73892989 0 2.60839485 0.86565151 0.8713717 0 0.8713717 0.86565151 0.87137168 2.59695452 0 2.59695451-0.8713717 4.33016426-2.61030155 5.19581576-3.47785979 3.46260603-8.69846292 7.79086356-17.39692587 12.98667929l-4.34923146 2.59695454h17.40073931m54.80107912-24.24396233c2.60839483 0 4.34923146 0 5.21869643 0.8656515s0.86946494 1.73130303 0.86946494 4.33016426l-15.65799596 72.72616681h-9.56792788l6.08816135-27.70466162h-7.82899796c-2.60839483 10.38972479-5.21869641 19.04623985-8.69846293 27.70466162h-8.70036965c2.61030158-7.79277028 6.08816135-17.31493684 8.70036965-27.70466162l10.43929954-50.21541424h19.13776247m-3.4797665 9.52216655v-1.73130296h-7.82709127l-3.4797665 13.85233077h8.70036965l2.60648812-12.12102781m-15.65608924 33.76422219h7.82709125l3.47976652-14.71798231h-7.82899796l-3.47785981 14.71798231m60.8892405-18.18058834h9.56983458l-3.47976651 6.92711878h-18.26639079l5.21869639-23.37640413c0-0.86565151-0.86946494-1.73130303-1.73892988-1.73130298h-11.30876448c-2.61030158 10.38781808-6.08816135 19.04623985-11.30876451 25.97335861h-13.04960111c4.34923146-4.33016426 7.82899796-9.52407328 10.43929954-15.58554056 1.74083662-5.19390902 3.47976652-10.38781808 5.2186964-17.31493683h26.96676048c2.60839483 0 4.34923146 0 5.21869641 0.8656515s0.86946494 2.59695451 0 4.33016426l-3.47976652 19.91189135m3.47976652 12.98477259c0 2.59695451-0.86946494 5.19581577-2.61030157 6.92711875-4.34923146 5.19581577-9.56792787 11.25537629-14.78662431 16.45119206 4.34732473 6.05956054 9.56792787 11.2534696 15.65608926 16.44928536h-14.78662429l-7.82899798-9.52407331c-4.34732473 3.46260603-7.82709126 6.92711878-12.17822945 9.52407331h-14.7866243c8.69846292-5.19581577 16.52746091-11.25537629 22.61562227-16.44928536-4.34923146-5.19581577-7.82899796-11.25537629-10.43929954-17.31684355h9.5698346c1.73892989 3.46260603 4.34732473 6.92711878 6.95762633 11.25537629 4.34732473-4.33016426 6.9576263-8.65842178 9.56792785-12.98858603 0.8713717 0 0.8713717 0 0 0h-28.70569035l1.74083663-7.79086354h35.66331665c0.86946494 0 1.73892989 0 3.47976651 0.86565151 0.00190672 0.86755822 0.8713717 1.73320973 0.87137169 2.59695451m51.31940592-39.82568946c-2.60839483 6.92711878-6.08816135 14.71798233-11.30685779 21.64510111l-11.30876448 59.73948751h-9.56983464l8.69846294-46.7528082c-2.60839483 3.46260603-6.08816135 6.05956054-9.56792787 7.79086356l2.60839484-12.98667932 9.56983462-9.52407331c2.60839483-3.46260603 5.21869641-6.92521205 6.9576263-11.25346954 1.73892989-2.59695451 3.47976652-6.06146725 4.34923147-8.65842181h9.56983461m48.71291776 35.49933865h-9.56983459c0 0.86565151 0 2.59695451-0.86946495 5.19390903l-7.82709129 40.69324768h-19.13776245l-2.60839485-7.79277029h13.91715936l6.08816132-31.16917435c0-0.86565151-0.86946494-1.73130303-1.73892986-1.73130304h-11.30876449c-0.86946494 4.33016426-2.60839483 8.65842178-4.34923148 12.98858603-1.73892989 4.33016426-3.47785979 9.52407328-6.95762632 13.85233082-2.60839483 5.19581577-6.08816135 9.52407328-9.56792789 13.85423755h-13.91906604c6.9576263-6.92711878 12.17822945-12.98858603 16.52746091-19.91189137 3.47976652-6.06146725 6.08816135-12.98858603 7.82709126-20.77944958h-6.95762632l-0.86946494-5.19390901h-7.82709126c4.34732473-5.19581577 8.69846292-11.25537629 12.17822943-17.31684357 3.47785979-5.19390902 6.08816135-11.2534696 8.69846294-18.18058838h9.56983461c-2.60839483 6.06146725-4.34923146 12.1210278-6.95762633 17.31493687-2.61030158 5.19581577-6.08816135 11.25537629-10.43929953 15.58554053h30.44462025c1.73892989 0 2.61030158 0.86565151 3.4797665 0.8656515-4.34923146-11.25537629-6.9576263-22.5107526-8.70036965-33.7661289h9.56983462c1.73511645 12.98286587 6.08625465 25.10198695 11.30495104 35.49361848" fill="#2c2c2c" p-id="1206"></path></svg>