<?xml version="1.0" standalone="no"?><!DOCTYPE svg PUBLIC "-//W3C//DTD SVG 1.1//EN" "http://www.w3.org/Graphics/SVG/1.1/DTD/svg11.dtd"><svg t="1603605894999" class="icon" viewBox="0 0 1024 1024" version="1.1" xmlns="http://www.w3.org/2000/svg" p-id="1167" xmlns:xlink="http://www.w3.org/1999/xlink" width="200" height="200"><defs><style type="text/css"></style></defs><path d="M997.92221498 461.83606725s-298.35804114-63.20209354-565.40009037-57.14062628c-53.06024251 64.93339653-12.17822945 86.57849764-12.17822946 86.57849763s-1.74083662 2.59695451-6.95953303 0.86565152c-73.06746994-19.04623985-37.4041533-58.87192929 18.26829752-116.8801138-92.20332572 77.05442436-213.11424847 110.82055323-286.17981171 124.67288409-30.44462027 6.06146725-59.1484039 11.25537629-90.4643958 6.92711876-39.14308319-5.19581577-48.71101105-16.44928533-45.23124455-27.70466163 1.73892989-6.05956054 6.08816135-12.1210278 11.30685777-17.31684357 17.39692589-17.31493684 46.10261621-27.70466164 68.71823848-35.49743189 101.77125359-38.09438644 223.55164131-45.88524997 280.08974364-48.48411122 9.56983461-0.86565151 20.00722741-0.86565151 30.44462025-1.73130302 2.61030158 0 7.82899796-0.86565151 11.30876448-2.59695451 74.80639983-37.22873492 132.21587385-72.72616682 132.21587384-72.72616682s-2.60839483 5.19581577-71.32663332 64.06774502c-4.34923146 3.46260603-8.69846292 6.92711878-13.04769438 11.25537631 35.66522338 0 322.71259333 6.92711878 517.560451 74.45746983 4.34732473 1.73130303 19.13585578 6.06146725 20.0053207 9.52407328 0.86946494 0.86374479 0.86946494 1.72939629 0.86946494 1.7293963m-882.02642908 19.91379806c28.70569038-6.06146725 77.41670141-19.04814657 155.70286778-46.75280819 19.13585578-6.92711878 40.01254812-14.71798233 60.01977556-23.3764041-2.61030158 0-5.21869641-0.86565151-7.82709127-0.86565149-104.38155518 2.59695451-226.16003616 37.22873492-274.87295394 56.2768815-6.08816135 2.59695451-37.4041533 13.85233081-12.17822947 19.04623981 5.21869641 0.86565151 11.3087645 1.73130303 18.26639083 1.73130304 22.61562226 1.73320973 38.27361822-0.86565151 60.88924051-6.05956057" fill="#0089E0" p-id="1168"></path><path d="M270.72918874 554.47603214l-4.34923147 19.91189137h9.5679279c5.21869641 0 9.56792787-0.86565151 12.17822943-3.46260603 2.61030158-1.73130303 3.47976652-4.33016426 3.47976651-7.79277027s-0.86946494-5.19581577-2.60839486-6.92521203c-1.74083662-0.86565151-4.34923146-1.73130303-7.82899798-1.73130304h-10.43929953m6.95953303-31.16726764l-3.47976653 18.18058833h6.95953303c5.21869641 0 8.69846292-0.86565151 11.30876451-3.462606 2.61030158-1.73130303 4.34923146-3.46260603 4.34923147-6.92521206 0-2.59695451-0.86946494-4.33016426-2.61030159-6.06146728-1.73892989-1.73130303-4.34923146-1.73130303-6.9576263-1.73130299h-9.56983459m-17.39692587-13.85233081h40.01254813c2.61030158 0.86565151 5.21869641 0.86565151 6.95953303 1.731303 3.47976652 1.73130303 6.08816135 3.46260603 7.82899801 6.92521205 1.73892989 2.59695451 2.60839483 5.19581577 2.60839482 8.6584218 0 5.19390902-1.73892989 10.38781808-6.08816135 13.8523308-3.47976652 3.46260603-8.69846292 6.06146725-14.78662429 6.92711877 4.34923146 0.86565151 8.69846292 2.59695451 11.30876447 5.19581573 2.61030158 3.46260603 4.34923146 6.92521205 4.34923148 10.38781809 0 4.33016426-0.8713717 7.79277028-2.61030155 11.25537629-1.74083662 3.46260603-4.34923146 6.06146725-7.82899802 8.65651507a29.13470269 29.13470269 0 0 1-10.43929952 4.33016422c-3.47976652 0.86565151-9.56792787 1.73130303-16.52555418 1.73130303h-32.18355017l17.39501914-79.65137885m111.33918145 15.5836338l-16.5274609 30.3035229-18.26639082 33.76422215h-22.61562226l46.97208116-79.65137885h26.0953888l13.04769439 79.65137885h-20.87669236c-2.61030158-21.64510107-5.21869641-42.42455065-7.82899801-64.06774505m53.06024254-15.5836338h20.87669237l-16.52555419 79.65137885H407.29620076l17.39501913-79.65137885m27.83622539 0h22.61562229l7.82709124 23.37449736s0 0.86565151 0.87137168 2.59695452c0.86946494 2.59695451 0.86946494 4.33016426 1.7389299 6.06146726 0.86946494-1.73130303 1.74083662-4.33016426 3.47976652-6.06146726 0.8713717-0.86565151 1.74083662-2.59695451 1.74083661-3.46260602l17.39692586-22.50884586h24.35455217l-39.14308318 49.34785598-6.08816137 30.30352287h-21.74615733l6.08816139-30.30352287-19.13585578-49.34785598m88.72546592 0h21.74425061l-9.56792789 44.15585365c-0.86946494 1.73130303-0.86946494 3.46069931-1.74083664 6.05956057v5.19581576c0 2.59695451 0.8713717 5.19581577 3.47976654 7.79277026 1.73892989 1.73130303 4.34923146 2.59695451 7.82709126 2.59695454 4.34923146 0 7.82899796-1.73130303 10.43929953-4.33016428 2.61030158-3.46260603 4.34923146-9.52407328 6.08816138-18.18058835l9.56983461-43.29020215h20.87478566l-10.43739285 49.34785598c-1.74083662 11.25537629-6.08816135 19.04814657-12.17822944 24.24205562-6.08816135 5.19581577-14.78853102 7.79277028-25.22592384 7.79277027s-18.26639082-2.59695451-23.4850872-6.92711877c-5.21869641-4.32825751-7.82709126-11.2534696-7.82709127-19.91189137v-5.19581575c0-1.73320973 0.86946494-3.46069931 0.86946493-5.19390902l9.56983461-44.15394696m85.24379268 0h26.09729551l13.04769441 39.82568944c0.86946494 4.33016426 1.73892989 6.92711878 2.61030154 9.52216654 0 2.59695451 0.86946494 5.19581577 0.86946495 7.7927703h0.86946495c0-2.59695451 0.86946494-5.19581577 0.86946495-7.7927703 0.86946494-2.59504778 0.86946494-6.05956054 1.73892988-9.52216654l8.70036966-39.82568944h19.13585577l-16.52746092 79.65137885h-26.09538881l-13.91906602-45.01959847c-0.86946494-1.73130303-0.86946494-3.46260603-1.73892992-6.06146724 0-1.73130303-0.86946494-4.33016426-0.86946494-6.92521206h-0.86946497c0 3.46069931-0.86946494 6.05956054-0.86946492 8.65651506-0.8713717 2.59695451-0.8713717 5.19581577-1.74083665 7.79277028l-8.69846292 41.55699243h-19.13776247l16.52746092-79.65137885m108.7307866 13.85233081l-4.34923147 21.64510109h5.21869644c5.21869641 0 9.56983461-0.86565151 12.17822942-3.46260603 2.61030158-1.73130303 4.34923146-4.33016426 4.34923148-8.65842177 0-2.59504778-0.86946494-5.19390902-3.47976652-6.92521207-1.73892989-1.73130303-5.2167897-2.59695451-8.69846292-2.59695449h-5.21869643m-18.26639081-13.85423754h23.48508724c11.3087645 0 20.00532071 1.73130303 25.2240171 5.19390902 5.21869641 3.46260603 7.82899796 8.65842178 7.828998 16.45119206 0 8.65651505-3.47976652 15.58363382-9.56983461 21.64510107-6.08816135 5.19390902-13.91715935 7.79086356-25.22401711 7.79086356-0.8713717 0-2.61030158 0-4.34923147-0.86565149h-6.95762631l-6.08816137 29.43596463h-20.87669237l16.5274609-79.65137885m120.90901609 31.16726765c0-6.06146725-1.74083662-10.38781808-4.34923149-13.8523308-2.61030158-2.59695451-6.08816135-4.33016426-10.43929956-4.33016428-3.47785979 0-6.08816135 0.86565151-9.56792786 2.59695452-2.61030158 1.73130303-5.21869641 4.33016426-6.95953304 8.65651506-2.60839483 2.59695451-3.47785979 6.06146725-5.21869638 10.38972481-0.86946494 4.33016426-1.73892989 8.65842178-1.73892991 12.98667929 0 5.19581577 1.73892989 10.38972479 4.34923144 12.98858603 2.60839483 3.46260603 6.08816135 5.19581577 10.43929957 5.19581577 3.47785979 0 6.08816135-0.86565151 8.69846292-2.59695452 3.47976652-1.73130303 6.08816135-5.19581577 8.70036965-8.6584218 1.73892989-3.46260603 2.60839483-6.92711878 4.34732474-11.25346958 0.86946494-4.33016426 1.73892989-7.794677 1.73892992-12.1229345m-13.04960112-32.90047737c10.43929954 0 19.13776247 2.59695451 25.22592383 8.65842175 6.08816135 6.06146725 9.56792787 14.71988907 9.56792786 25.10770711 0 6.06146725-0.86946494 11.25537629-2.60839485 17.31493684-1.73892989 5.19581577-4.34923146 10.38972479-6.95762628 13.85423755-4.34923146 6.06146725-9.56983461 10.38781808-15.65799596 13.85233083-6.9576263 2.59695451-13.04769439 4.33016426-20.87478566 4.33016422-11.3087645 0-20.00722741-3.46260603-26.0972955-9.52216656-6.08816135-6.06146725-8.69846292-13.85423754-8.69846296-25.10770711 0-6.06146725 0.86946494-11.25537629 1.7389299-16.45119205 1.73892989-5.19581577 4.34923146-9.52216657 6.95762633-13.85233083 4.34923146-6.06146725 9.56983461-10.38972479 15.65799596-13.85423753 6.09006807-3.46451274 13.04960112-4.33016426 21.74615733-4.33016422m73.06937665 16.45119202l-3.47976652 18.18058835h7.82899801c4.34732473 0 8.69846292-0.86565151 11.30876448-2.59695451 2.60839483-1.73130303 3.47785979-4.33016426 3.47785979-7.79277028 0-2.59504778-0.86946494-4.32825751-2.60839486-6.05956053s-4.34923146-1.73130303-7.82899797-1.73130303h-8.69846293m-17.39692585-14.7179823h30.44462025c9.56983461 0 16.52746091 1.73130303 20.87669237 5.19390902 5.21869641 2.59695451 7.82709126 7.79277028 7.82709126 14.71988904 0 5.19390902-2.60839483 10.38781808-6.08816136 13.85233082-3.47785979 3.46260603-9.56792787 5.19581577-16.52746091 6.06146728 2.61030158 0.86565151 4.34923146 2.59695451 5.21869642 4.33016426 1.74083662 1.73130303 2.61030158 4.32825751 2.61030157 7.79086353l6.08816134 27.70466162h-20.87669236l-5.21869638-25.97335861c-0.86946494-1.73130303-1.73892989-3.46260603-3.47785982-4.33016426-0.8713717-0.86565151-3.47976652-1.73130303-6.08816137-1.73130297h-4.34923146l-6.08816136 32.03482584h-20.87669239l16.5255542-79.65328557m71.32663334 0h61.76061217l-3.47976655 15.5836338h-20.87478562l-13.04960112 64.06774505H954.42990036l13.91715932-64.06774505h-20.00532071l3.47785981-15.5836338M16.73292715 652.30990608h23.48508722c2.61030158-5.19581577 4.34923146-9.52407328 6.08816138-13.85423754l7.82899795 1.731303c-2.61030158 5.19581577-4.34923146 9.52407328-6.08816132 12.12102782h42.62284968v73.59181834h-7.82709124v-6.06146727h-58.27893895v6.06146727h-7.82899799v-73.58991162m7.82709125 36.3611767v25.10770711h58.27893897v-25.10770711h-58.27893897m0-30.30161615v24.2439623h58.27893897v-24.2439623h-58.27893897m144.39410328 30.30161615c13.04769439 14.71988907 21.74615732 25.10770711 26.09538881 31.16917438l-6.95762633 5.19581575c-0.86946494-0.86565151-0.86946494-1.73130303-1.74083659-2.59695453-1.73892989-2.59695451-3.47976652-5.19581577-5.21869643-6.06146724-14.78662431 0-33.0530151 0.86565151-53.92970747 1.731303 0 0-0.86946494 0.86565151-1.74083664 0.86565152-2.61030158 0-4.34923146 0-5.21869638 0.8656515l-3.47976653-7.79277028c3.47976652-0.86565151 6.08816135-3.46069931 8.69846291-6.92521206 6.08816135-6.06146725 12.17822945-14.71988907 18.26829756-25.10770709h-33.05492184v-6.92711877h88.72546593v6.92711877h-46.10261623c-9.56792787 13.85233081-17.39692589 24.24205561-23.48508722 32.03291915 2.61030158 0 7.82709126 0 14.78662429-0.8656515 14.78662431 0 25.22592385-0.86565151 32.18355016-0.86565152-0.86946494-0.86565151-1.74083662-2.59504778-2.61030158-4.32825751-5.21869641-6.06146725-8.69846292-10.38972479-11.3087645-12.98858603l6.09006808-4.32825754m-49.58047598-43.28829547h71.32854003v6.92711877h-71.32854003v-6.92711877m139.17540685 6.06146725v25.10770714c0 13.85233081-0.86946494 23.37640409-3.47976652 30.30352287-1.74083662 7.79086356-6.08816135 14.71798233-13.04769439 21.64510108-0.86946494-0.86565151-1.73892989-2.59695451-3.4797665-4.33016424-0.86946494-0.86565151-1.73892989-0.86565151-1.73892989-1.73130303 6.08816135-5.19581577 9.56792787-11.25537629 11.30685775-18.18058831 2.61030158-6.06146725 3.47976652-15.58554055 3.47976651-27.70466165v-31.16917436h33.05301513v65.79904804c0 4.33016426 0.86946494 6.06146725 3.47976647 6.06146723h0.87137169c2.60839483 0 4.34923146-1.73130303 4.34923146-4.33016424 0.86946494-2.59695451 0.86946494-6.92521205 0.86946495-12.98667932 0.8713717-1.73130303 0.8713717-2.59695451 0.87137168-2.59695448 1.73892989 0.86565151 4.34923146 1.73130303 6.9576263 1.73130301-0.86946494 3.46260603-0.86946494 6.92711878-1.74083661 12.11912108v3.46260602c-0.86946494 6.92711878-4.34923146 9.52407328-10.43739283 9.52407329h-1.74083664c-7.82709126 0-11.3087645-3.46260603-10.43739279-11.25537632v-61.46888381h-19.13585577m-48.71101106 45.01959849a126.56435166 126.56435166 0 0 0 15.65799598-32.90047739h-13.91715936v-6.92521205h13.91715936v-17.31684356h6.9576263v17.31684356h12.17822944v6.92521205h-12.17822944v14.71988905l3.47976652-3.46260602c4.34923146 3.46260603 7.82899796 6.92711878 11.30876449 10.38781808l-5.21869642 4.33016423s-0.86946494 0-0.86946494-0.86565151c-2.61030158-3.46260603-6.08816135-6.92521205-8.69846294-8.65651506v46.7528082h-6.9576263v-47.6184597c-2.61030158 9.52216657-6.95953303 17.31493684-12.17822946 24.24205562 0-0.86565151-0.8713717-1.73130303-1.74083661-3.46260606s-0.8713717-2.60076797-1.74083662-3.46641944m169.62002714-45.88524998h-34.79385172V644.5171358h47.84154608v6.06146727l-35.66331664 23.3764041h40.88201307v16.44928532c-0.86946494 8.65842178-0.86946494 13.85423754-1.74083662 17.31684357 0.8713717 12.11912107-4.34923146 18.18058835-13.91715934 17.31493685h-11.30876448c0-2.59695451-0.8713717-5.19581577-0.8713717-6.92711877h11.30876451c5.21869641 0.86565151 8.69846292-2.59695451 8.69846295-9.52216655 0-5.19581577 0-12.98858603 0.87137164-24.24396234v-4.32825752h-9.56983459c-2.61030158 19.91189135-12.17822945 36.36117669-27.8343187 47.6184597a6703.89889662 6703.89889662 0 0 1-5.21869638-5.19581578c14.78662431-10.38972479 24.35455216-24.24205561 26.09538877-42.42264392h-11.30876449c-3.47976652 14.71798233-11.3087645 26.83901012-25.22592384 36.36117666-1.73892989-0.86565151-3.47976652-2.59695451-5.21869643-4.33016424 13.04769439-8.65651505 20.87669238-19.04623985 23.48508723-32.03291915h-10.43929954v-6.92711877l33.92820022-22.50693916m-67.84877355 55.40932328c4.34923146-2.59695451 8.69846292-4.33016426 13.04769439-6.06146728v-31.16917437h-12.17822944v-6.06146726h12.17822944v-23.3764041h6.95762632v23.3764041h11.30876449v6.06146726h-11.30876449v28.57031311c2.61030158-0.86565151 6.08816135-2.59695451 10.43929954-5.19581573v2.5969545c0 1.73130303 0 3.46260603 0.86946495 4.33016427-4.34923146 1.73130303-12.17822945 5.19581577-23.48508722 10.38781806-2.61030158 1.73130303-4.34923146 2.59695451-5.21869642 3.46260605l-2.61030156-6.92139861m135.69754706-53.67802027v-6.92711877h48.71101107v67.53035106c0.86946494 8.65842178-4.34923146 12.98858603-13.0476944 12.98858604h-13.91715933v-1.731303c-0.86946494-2.59695451-0.86946494-4.33016426-1.73892991-6.06146727 1.73892989 0 4.34923146 0.86565151 7.828998 0.86565152h6.08816135c5.21869641 0 7.82709126-1.73130303 6.95762631-6.92711878v-59.7375808h-40.88201309m-27.8362254 5.19390905h7.82899798v69.26356078h-7.82899798v-69.26356078m4.34923148-14.71798233l5.21869639-4.33016426c3.47976652 3.46260603 7.82709126 7.79277028 12.17822945 12.98858602l-5.2186964 5.19581578c-4.34923146-5.19581577-8.69846292-9.52598001-12.17822944-13.85423754m91.33386074 52.81236874h87.85409426v6.06146727h-39.14117648v13.85233082c0 6.92711878-3.47976652 10.38972479-12.18013619 10.38972478h-9.56792786c0-1.73130303-0.86946494-4.33016426-1.74083662-6.92711875h10.43929956c4.34923146 0.86565151 6.08816135-0.86565151 6.08816136-5.19581577v-12.11912108h-41.75147803v-6.06146727m59.15031062-56.27688149h6.08816134v9.5240733h20.00722744v6.06146726H581.26545933c5.2167897 6.92521205 13.04769439 12.11912107 22.61371554 15.58363382 0 0.86565151-1.73892989 2.59695451-4.34732474 6.06146727-7.82899796-4.33016426-14.78853102-9.52407328-19.13776248-15.58554055v17.31684356h-6.08816134v-17.31684356c-4.34732473 6.92711878-10.43739283 12.1210278-16.52555419 16.45119204a6703.89889662 6703.89889662 0 0 1-5.21869641-5.19581574 58.86048895 58.86048895 0 0 0 20.87478565-17.31493684h-13.04769442v-6.06146726h13.91715937v-9.5240733m-57.41138072 9.52598001h19.13776249v-9.52407327h6.08816134v9.52407327h14.7866243v6.06146728h-14.7866243v5.19390902l0.86946497-2.5969545c1.73892989 0.86565151 4.34923146 1.73130303 6.9576263 3.46260599 2.61030158 1.73130303 5.21869641 2.59695451 6.08816136 3.46260603l-3.47785978 5.19581575c-4.34923146-2.59695451-7.82899796-5.19581577-10.43929958-6.92711874v15.58554054h-6.08816134v-16.45119207c-5.21869641 6.92711878-11.3087645 12.1210278-18.26639081 16.45119207a6703.89889662 6703.89889662 0 0 1-5.2186964-5.19581577c10.43929954-5.19581577 17.39692589-11.25537629 22.61562226-18.18058832h-18.26829754v-6.06146728m8.70227639 32.03291915h66.97930858v6.05956054h-66.97930858v-6.05956054m46.10070948 29.43596465l4.34923147-6.05956054c5.21869641 3.46260603 13.04769439 6.92521205 23.48508721 12.11912107l-3.4797665 6.92711877c-4.34923146-2.59695451-10.43929954-6.06146725-19.13585578-10.38972479-2.60839483-0.86565151-4.34923146-1.73130303-5.2186964-2.59695451m-33.92438677-6.05956054l5.21869643 5.19390903c-7.82709126 5.19581577-15.65799596 10.38972479-24.35455218 13.85423754-0.86946494-1.73130303-2.61030158-3.46260603-3.47976652-5.19581575 8.70036964-4.33016426 16.52746091-8.65842178 22.61562227-13.85233082m91.33576747-26.83901013h60.88924053v19.91189138h-54.79917243v6.06146726h56.54000902v23.37640408h-6.95953302v-3.46260602h-49.580476v3.46260602h-6.08816137v-49.34976272m24.35264545-18.18249507l6.08816136-1.73130299c0.86946494 0.86565151 2.60839483 3.46260603 4.34923146 6.06146723v1.73130305h36.53278162v13.85423752h-6.95762632v-7.79277028h-68.71823846v7.79277028h-6.08816138v-13.85423752h38.27361824c-0.8713717-1.73320973-1.74083662-3.46451274-3.47976652-6.06146729m31.3140852 50.21541423h-49.580476v8.65842179h49.580476v-8.65842179m-53.06024253-70.99486381h7.828998c-1.74083662 3.46260603-2.61030158 6.06146725-4.34923147 8.6584218h26.09538879v6.06146725h-21.7442506l5.21678969 5.19390904 2.61030155 2.59695452-5.21869641 3.46260602c-0.86946494 0-0.86946494 0-0.86946494-0.86565151-2.61030158-2.59695451-5.21869641-5.19581577-6.95762631-7.79086353l4.34732473-2.59695454h-7.82709125l-11.3087645 11.25346958c-1.73892989-1.73130303-2.60839483-3.46260603-5.21869643-5.19581574 7.82709126-6.05765382 13.91715935-12.98477259 17.39501915-20.77754289m40.01254813 0h7.82709126c-0.86946494 1.73130303-1.73892989 3.46260603-2.60839483 6.92711877-0.86946494 0.86565151-0.86946494 1.73130303-1.73892991 1.73130303h28.70569036v6.06146725h-22.61562228c0.86946494 0.86565151 2.60839483 1.73130303 4.34732476 4.32825754 1.74083662 1.73130303 2.61030158 2.59695451 2.61030155 3.46260602l-5.21869639 3.46260602s-0.86946494-0.86565151-0.86946497-1.731303c-0.86946494-0.86565151-2.61030158-3.46260603-6.08816135-6.92521204l3.47785979-2.59695454h-6.95762633c-1.73892989 2.59695451-3.47785979 5.19390902-6.08816135 7.79086356l-5.2186964-5.19390902c4.34732473-5.19390902 7.82709126-10.38972479 10.43548609-17.31684359m-36.5327816 45.02341192v8.65651506h47.84154612v-8.65651506h-47.84154612m113.94948302 15.58172711h22.61562226v-10.38972479h-20.87478564v-45.01959848h48.71101107v45.01959848h-20.87478568v10.38972479h22.61371559v6.06146725h-22.61371559v12.11912109h26.96485373v6.06146725h-61.75870543v-6.06146725h27.83431868v-12.11912109h-22.61562226v-6.06146725m-32.18545689-21.64319438h11.30876448v-24.2420556h-12.17822942v-6.06146725h30.44462025v6.06146725h-11.3087645v24.2420556h11.3087645v6.06146727h-11.3087645v24.2420556c3.47976652-1.73130303 7.82709126-2.59695451 11.3087645-3.46260599 0 2.59695451 0.86946494 5.19390902 0.86946495 6.92521203-0.86946494 0.86565151-2.60839483 0.86565151-4.34923147 1.73130299-12.17822945 2.59695451-20.87478563 5.19581577-26.09538879 6.92711878l-2.61030156-6.92711878c4.34923146-0.86565151 8.70036964-2.59695451 13.91906604-3.46260602v-25.97145187h-11.30876448v-6.06337401m40.01254815-8.65842179v13.85423753h14.78662427v-13.85423753h-14.78662427m21.74806402 0v13.85423753h13.91715936v-13.85423753h-13.91715936m-21.74806402-19.04623982v13.85233078h14.78662427v-13.85233078h-14.78662427m35.66331667 0h-13.91715937v13.85233078h13.91715937v-13.85233078m85.24569938 25.97335862c8.69846292 6.92711878 17.39692589 14.71798233 25.22401712 21.64510109l-6.08816138 4.33016423-6.95762629-6.92711875c-9.56983461 0.86565151-18.26829753 0.86565151-24.35645888 0.8656515v19.04623985c0 7.79277028-3.47785979 11.25537629-11.30685779 11.25537629h-11.3087645c0-0.86565151 0-2.59695451-0.87137167-6.06146725v-0.8656515h10.43739283c4.34923146 0.86565151 6.9576263-0.86565151 6.08816136-5.19581577v-17.31493684c-9.56792787 0-18.26639082 0-24.35455218 0.86565152-3.47976652 0-6.9576263 0-10.43929952 0.86565149l-2.60839486-6.92711877c3.47785979 0 6.9576263-1.73130303 10.43929954-3.462606l26.09538878-12.98667932h-15.65799595c-3.47785979 0.86565151-6.08816135 0.86565151-7.82709124 0.86565151-2.60839483 0-5.21869641 0.86565151-7.82709127 0.86565146l-2.61030157-6.06146722c3.47976652-0.86565151 6.08816135-1.73130303 8.70036965-3.46260606 4.34923146-2.59695451 10.43929954-6.92711878 20.00532071-12.11912105 1.74083662-1.73130303 3.47976652-2.59695451 5.21869641-3.46260605-4.34923146 0-9.56983461 0-15.65799599 0.86565152-8.69846292 0-14.78662431 0.86565151-19.13585573 0.86565151 0-1.73130303-0.86946494-3.46260603-1.7389299-6.92711876 31.31408522-0.86565151 56.54000906-2.59695451 76.54723647-4.33016425l1.7389299 6.06146727c-13.91715935 0.86565151-26.96485373 2.59695451-38.27171153 2.59695449l4.34732476 3.46260604c-10.43739283 6.05956054-20.00532071 12.11912107-27.83431869 15.58363383h18.2663908c5.21869641-0.86565151 8.69846292-0.86565151 11.30876451-0.86565151 6.9576263-4.33016426 13.04769439-7.79277028 18.26639081-12.11912109l6.08816134 5.19390903c-17.39692589 10.38972479-35.66331665 20.77944959-54.79917241 29.43596465 18.26639082-0.86565151 33.92248005-0.86565151 46.97208117-1.73130299-0.8713717-1.73130303-3.47976652-3.46260603-6.08816136-6.05956056-2.61030158-1.73130303-4.34923146-2.59695451-5.21869641-3.46260601l5.21488296-4.32825753m-3.4797665 29.43596462l4.34923147-5.19581575c5.21869641 3.46260603 12.17822945 8.65842178 21.74425056 14.71798233 1.74083662 1.73130303 2.61030158 2.59695451 3.47976653 2.59695451l-5.2186964 6.06146725c-0.86946494-0.86565151-2.60839483-2.59695451-4.34923148-3.462606-5.2167897-4.33016426-12.17632273-9.52407328-20.00532068-14.71798234m-34.79385172-4.32825752l6.08816135 3.46260602c-7.82709126 7.79086356-15.65799596 13.85233081-24.35455217 19.04623984-2.61030158-3.46260603-4.34923146-5.19581577-5.2186964-5.19581574 7.82709126-4.32825751 15.65799596-10.38781808 23.48508722-17.31303012m106.98994999-50.21541423h27.83622538c-0.86946494 0-0.86946494-0.86565151-2.60839484-2.5969545-0.86946494-3.46260603-1.74083662-5.19581577-2.61030155-6.92711879l6.08816137-2.59695451c1.74083662 2.59695451 3.47976652 6.06146725 6.08816134 10.38972479l-3.47785978 1.73130301h27.83622541v6.92521206h-36.53468834l4.34923144 1.73130299c-4.34923146 6.92711878-9.56983461 13.85423754-14.78662427 19.04814659 5.2167897 0 12.17822945 0 21.7442506-0.86565152h9.5698346c-1.73892989-3.46260603-4.34923146-6.92711878-6.08816136-10.38972477l5.2186964-3.46260606c4.34732473 5.19581577 9.56792787 12.98858603 15.65608923 22.51075265 0 0.86565151-0.86946494 0.86565151-1.73892987 0.86565146-1.73892989 1.73130303-3.47785979 2.59695451-5.21869642 3.46260602 0-0.86565151-0.86946494-1.73130303-1.73892989-3.46260602s-1.73892989-3.46069931-1.73892991-4.32825754c-3.47976652 0.86565151-6.08816135 0.86565151-9.56983462 0.86565153v29.43596463c0 3.46260603 1.73892989 5.19581577 6.08816139 5.19581576h3.47976654c2.60839483 0 3.47785979-0.86565151 4.34732471-3.462606 0.8713717-4.33016426 0.8713717-8.65651505 0.87137167-12.11912109 1.73892989 0.86565151 4.34732473 1.73130303 6.95762629 2.59695453 0 1.73130303 0 5.19390902-0.86946492 9.52216656v1.73130301c-1.74083662 5.19581577-5.21869641 7.79277028-10.43929954 8.65842178h-5.21869645c-7.82899796 0-11.3087645-4.33016426-11.30876448-12.12102781v-28.57031315h-9.56983458c0.86946494 22.51265931-7.82709126 36.36308341-24.35455217 43.29020218-2.60839483-3.46260603-3.47976652-5.19581577-4.34923147-6.06146726 8.70036964-3.46260603 13.91906608-7.79277028 17.39692586-12.12102781 2.61030158-5.19390902 4.34923146-12.98667932 4.34923148-24.24205559h-5.21869643-2.60839486c-1.74083662 0.86565151-3.47976652 0.86565151-4.34923146 0.86565151l-3.4797665-6.92521207c2.61030158-0.86565151 5.21869641-2.59695451 6.95953303-4.33016424 4.34732473-5.19581577 8.69846292-11.25537629 12.17822945-17.31684354h-19.13776248v-6.92711879m-18.26639083 43.28829547c2.61030158-0.86565151 6.9576263-1.73130303 12.17822948-2.59695452 3.47976652 0 6.08816135-0.86565151 7.82899796-0.86565153 0 0.86565151-0.8713717 1.73130303-0.87137168 3.46260605v3.46260603c-10.43739283 1.73130303-19.13585578 2.59695451-26.96485372 4.33016424l-1.73892989-6.92711878c2.60839483-1.73130303 8.69846292-8.65842178 16.52555418-19.04623983-6.9576263 0-12.17822945 0-16.52555418 0.8656515l-1.74083664-6.06146727c6.08816135-6.92711878 13.04960112-17.31493684 20.00722744-32.03482589l6.08816136 2.59695451c-6.08816135 11.25537629-12.17822945 20.77754287-17.39692587 28.57031316h13.04769442c2.60839483-3.46260603 4.34923146-6.92711878 6.08816135-10.38972478l6.08816135 3.46260601c-7.82518455 12.12484124-15.65418252 22.51265931-22.61371556 31.1710811m-11.30685776 19.04623983h2.61030159c8.69846292-1.73130303 18.26639082-4.32825751 28.70569033-6.05956051-0.8713717 1.73130303-0.8713717 4.32825751-0.87137165 6.92521203l-28.70378367 5.19581577-1.7408366-6.06146729" fill="#FFFFFF" p-id="1169"></path></svg>