<?xml version="1.0" standalone="no"?><!DOCTYPE svg PUBLIC "-//W3C//DTD SVG 1.1//EN" "http://www.w3.org/Graphics/SVG/1.1/DTD/svg11.dtd"><svg t="1603604679835" class="icon" viewBox="0 0 1024 1024" version="1.1" xmlns="http://www.w3.org/2000/svg" p-id="1171" xmlns:xlink="http://www.w3.org/1999/xlink" width="200" height="200"><defs><style type="text/css"></style></defs><path d="M988.12629332 459.11836445s-286.51861333-60.69361778-542.96689778-54.87388445c-50.95537778 61.52647111-11.69408 83.14311111-11.69408 83.14311111s-1.67139555 1.66343111-6.68330666 0.83171556c-70.16789333-18.29091555-35.91964445-56.53617778 17.54225778-112.24291556-88.54528 73.99879111-204.65777778 106.42318222-274.82453334 119.72721778-29.23633778 5.82087111-56.80241778 10.80775111-86.87502222 6.65031111-37.58990222-4.98801778-46.77859555-15.79690667-43.43694222-27.43637333 1.67025778-4.98915555 5.84704-10.80888889 10.85781333-15.79804445 16.70712889-16.62748445 44.27320889-26.60465778 65.99111111-34.91953777 97.73397333-35.75125333 214.6816-43.23441778 268.97749334-46.55900445 9.18869333 0 19.21251555 0 29.23633778-0.83171555 2.50652445 0 7.51843555-0.83171555 10.86008888-2.4940089 71.83815111-35.75125333 126.97031111-69.84021333 126.97031112-69.84021333s-2.50538667 4.98915555-68.49649778 60.69475556c-4.17792 4.15744-8.35356445 7.48316445-12.53148445 11.63946667 34.25052445 0 309.91018667 6.65144889 497.02570667 71.50364444 4.17564445 1.66229333 18.37624889 4.98915555 19.21251556 9.14432 0.83512889 0.83057778 0.83512889 1.66115555 0.83512888 1.66115556M141.09738666 478.24213333c27.56608-5.81859555 74.34581333-18.29091555 149.52561778-44.89557333 18.37624889-6.65258667 38.42389333-14.96632889 57.63754666-22.44949333-2.50652445-0.83171555-5.01191111-0.83171555-7.51729778-0.83171556-100.24049778 2.49400889-217.18698667 35.75239111-263.96558222 54.04330667-5.84704 2.49400889-35.91964445 13.30403555-11.69408 18.29091555 5.01191111 0.83171555 10.85895111 1.66343111 17.54112 1.66343112 21.71790222 1.66229333 36.75363555-0.83285333 58.47267556-5.82087112" fill="#0089E0" p-id="1172"></path><path d="M289.78673777 547.25176889l-4.17564445 19.12263111h9.18869334c5.01191111 0 9.18869333-0.83171555 11.69408-2.49400889 2.50652445-1.66343111 3.34165333-4.15744 3.34165333-8.31601778 0-2.49400889-0.83512889-4.98915555-2.50538667-5.81745778-1.67139555-1.66343111-4.17678222-2.49400889-7.51843554-2.49400888h-10.02496001m6.68330667-29.93265778l-3.34279111 17.4592h6.68330666c5.01191111 0 8.35356445-0.83057778 10.85895111-2.49400889 2.50652445-1.66229333 4.17564445-4.15630222 4.17564444-6.65031111 0-2.49400889-0.83512889-4.98915555-2.50652444-5.81973334-1.67025778-1.66343111-4.17564445-2.49400889-6.68216889-2.49400888h-9.18641777m-16.7071289-12.47345778h38.42503112c2.50652445 0.83057778 5.01191111 0.83057778 6.68330666 1.66229333 3.34165333 1.66343111 5.84704 3.32686222 7.51843556 5.82087111 1.67025778 2.49400889 2.50538667 5.81973333 2.50538666 9.14659556 0 4.98688-1.67025778 9.14432-5.84704 13.30062222a20.19555555 20.19555555 0 0 1-14.20060444 5.82087111c4.17678222 0.83057778 8.35356445 3.32572445 10.85895111 5.81973333s4.17678222 5.81859555 4.17678223 9.97717334c0 4.15630222-0.83626667 7.48316445-2.50652445 10.80888889-1.67139555 3.32572445-4.17678222 5.82087111-7.51843555 7.48202667-2.50652445 2.49400889-5.84704 4.15630222-10.02496 4.98915555-3.34165333 0.83057778-9.18869333 0.83057778-15.87086223 0.83057778h-30.90773333l16.70826666-75.65880889m106.92266667 14.96632889l-15.872 29.09980444c-5.84704 10.80775111-11.69408 20.78606222-17.54112 31.59381333H331.55342221l45.10833778-75.65994666h25.05955555l12.53034667 75.65994666h-20.04764444c-2.50652445-19.95434667-5.01304889-40.74040889-7.51843556-60.69361777m50.95424-14.96632889h20.04764445l-15.86972445 75.65994666h-20.88391111l16.70599111-75.65994666m26.73208889 0h21.71904l7.51729778 21.61664s0 1.66343111 0.83512889 3.32572444c0.83512889 1.66343111 0.83512889 4.15744 1.67025777 5.82087112 0.83512889-2.49400889 1.67139555-4.15744 3.34279112-5.82087112 0.83512889-1.66229333 1.67025778-2.49400889 1.67025778-3.32572444l16.70826666-21.61664h23.38929778l-37.58990222 47.39072-5.84817778 28.26922666h-20.88277334l5.84817778-28.26922666-18.37966222-47.39072m85.20362667 0h20.88277333l-9.18641778 42.40497778c-0.83512889 1.66229333-0.83512889 3.32344889-1.67253333 4.98688v5.81973333c0 2.49400889 0.83626667 4.98915555 3.34279111 6.65258667 1.67025778 2.49400889 4.17678222 3.32572445 7.51616 3.32572444 4.17792 0 7.51957333-1.66229333 10.02496-4.98915556 2.50652445-3.32572445 4.17792-8.31488 5.84817778-16.62748444l9.18869333-41.57212444h20.04650667l-10.02268444 47.39072c-1.67253333 9.97831111-5.84704 18.29205333-11.69408 23.28007111-5.84704 4.98915555-14.20060445 7.48316445-24.22556445 7.48316444s-17.54225778-2.49400889-22.55416889-6.65258667c-5.01191111-4.98688-7.51729778-10.80775111-7.51729778-19.1226311v-5.81973334c0-1.66115555 0.83512889-3.32458667 0.83512889-4.98801778l9.18755556-41.57212444m81.86197333 0h25.06069334l12.52920888 38.2464c0.83512889 3.32572445 1.67025778 6.65258667 2.50766222 9.14432 0 2.49400889 0.83399111 4.98915555 0.83399112 6.65258666h0.83512888c0-1.66343111 0.83399111-4.15744 0.83399112-6.65258666 0.83512889-2.49173333 0.83512889-5.81859555 1.67025778-9.14432l8.35470222-38.2464h18.37624888l-15.87086222 75.65994666h-25.05841778l-13.36661333-42.40270222c-0.83512889-1.66343111-0.83512889-4.15744-1.67025777-5.82087111 0-2.49400889-0.83512889-4.15630222-0.8351289-6.65031111h-0.8339911c0 3.32458667-0.83512889 5.81859555-0.8351289 8.31374222-0.83626667 2.49400889-0.83626667 4.98915555-1.67253333 6.65258667l-8.35242667 39.90755555H615.5655111l15.872-75.65994666m104.41841778 13.30289778l-4.17792 20.78606222h5.01191111c5.01191111 0 9.18869333-1.66343111 11.69408-3.32572444 2.50652445-1.66343111 4.17792-4.98915555 4.17792-8.31601778 0-3.32344889-0.83512889-4.98688-3.34279111-6.65031112-1.67025778-1.66229333-5.01077333-2.49400889-8.35356444-2.49400888h-5.00963556m-17.54225778-13.30289778h22.55303111c10.86008889 0 19.21251555 1.66229333 24.22442667 4.98915556 5.01191111 3.32572445 7.51843555 8.31488 7.51843556 14.96632888 0 9.14432-3.34165333 15.79690667-9.18869334 20.78606222-5.84817778 4.98688-13.36433778 7.48088889-24.22442666 7.4808889h-10.85895111l-5.84817779 27.4375111h-20.04878221l15.87313777-75.65994666m116.11249778 29.93152c0-5.81973333-1.67253333-9.97603555-4.17792-13.30062222-2.50652445-3.32686222-5.84704-4.98915555-10.02496-4.98915556-3.34051555 0-5.84704 1.66229333-9.18755555 3.32572444-2.50652445 1.66343111-5.01191111 4.15744-6.68330667 7.4808889-2.50538667 3.32686222-3.34165333 6.65258667-5.01191112 10.81002666-0.83512889 4.15630222-1.67025778 8.31488-1.67025777 12.47004444 0 4.98915555 1.67025778 9.14659555 4.17678222 12.47232 2.50538667 3.32686222 5.84817778 4.98915555 10.02496 4.98915556 3.34051555 0 5.84704-1.66229333 8.35242667-3.32572444 3.34279111-1.66343111 5.84817778-4.15744 8.35470222-8.31488 1.67025778-2.49400889 2.50538667-5.82087111 4.17564445-9.97717334 0.83512889-4.15744 1.67139555-8.31488 1.67139555-11.64060444m-12.53262222-32.42666667c10.02496 0 18.37852445 3.32572445 24.22670222 9.14545778 5.84704 5.82087111 9.18641778 13.30403555 9.18641778 24.11178667 0 4.98915555-0.83399111 10.80888889-2.50424888 15.79690666-1.67025778 5.81973333-4.17792 9.97831111-6.6821689 14.13461334-4.17792 5.82087111-9.18983111 9.97717333-15.0368711 12.47118222-6.68216889 3.32572445-12.53034667 4.98915555-20.04764445 4.98915556-10.85895111 0-19.21365333-3.32572445-25.05955556-9.14432-5.84817778-5.82087111-8.35356445-14.13575111-8.35356445-24.1106489 0-5.82087111 0.83512889-10.81002667 1.67139556-15.79918222 1.67025778-4.98915555 4.17678222-9.97603555 6.68216889-13.30176 4.17678222-5.81973333 9.18869333-10.80888889 15.03573333-13.30289778 5.84704-3.328 12.52920889-4.99029333 20.88163556-4.99029333m70.16903112 15.79804445l-3.34279112 18.29091555h7.51957333c4.17564445 0 8.35242667-0.83057778 10.85895111-2.49400889 2.50538667-1.66343111 3.34051555-4.15744 3.34051556-7.48316444 0-2.49173333-0.83399111-4.98688-2.50424889-5.81859556-1.67025778-1.66229333-4.17792-2.49400889-7.51843556-2.49400888h-8.35356443m-16.7071289-13.30403556h29.23633778c9.18869333 0 15.87086222 0.83057778 20.04878222 4.15630222 5.01191111 3.32686222 7.51616 8.31601778 7.51616 14.13575111 0 5.81859555-2.50424889 9.97717333-5.84704 13.30176-3.34051555 4.15744-9.18755555 5.81973333-15.872 6.65258667 2.50766222 0.83057778 4.17792 2.49400889 5.01191111 4.15744 1.67253333 1.66229333 2.50766222 4.15516445 2.50766222 7.48088889l5.84704 25.77408h-20.04878222l-5.01191111-24.11064889c-0.83399111-2.49400889-1.67025778-4.15744-3.34051556-4.98915556-0.83626667-0.83171555-3.34279111-0.83171555-5.84703999-0.83171555h-4.17792l-5.84704001 29.93265777H859.4823111l15.87313778-75.65994666m68.49763556 0h59.30894222l-3.34279112 14.13575111h-20.04650666l-12.53148444 61.52419555h-20.88277334l13.36433778-61.52419555h-19.21251556l3.34279112-14.13575111" fill="#FFFFFF" p-id="1173"></path></svg>