<?xml version="1.0" standalone="no"?><!DOCTYPE svg PUBLIC "-//W3C//DTD SVG 1.1//EN" "http://www.w3.org/Graphics/SVG/1.1/DTD/svg11.dtd"><svg t="1603605497620" class="icon" viewBox="0 0 1024 1024" version="1.1" xmlns="http://www.w3.org/2000/svg" p-id="3687" xmlns:xlink="http://www.w3.org/1999/xlink" width="200" height="200"><defs><style type="text/css"></style></defs><path d="M983.076 463.836s-287.795-60.13-545.386-55.119c-51.183 62.634-11.747 83.512-11.747 83.512s-1.678 2.506-6.713 0.835c-70.481-17.538-36.081-56.79 17.621-112.743-88.94 74.327-205.569 106.897-276.05 120.258-29.367 5.847-57.056 10.858-87.262 6.682-37.757-5.01-46.988-15.867-43.63-26.723 1.678-5.847 5.873-11.692 10.907-15.869 16.781-16.703 44.47-27.56 66.286-35.076 98.169-35.911 215.637-44.262 270.175-46.767 9.23-0.835 19.298-0.835 29.368-1.671 2.517 0 7.551-0.834 10.908-1.671 72.159-36.745 127.537-70.985 127.537-70.985s-2.516 5.01-68.803 61.8c-4.196 3.34-8.39 7.516-12.586 10.856 34.401 0 311.291 6.681 499.238 71.821 4.196 1.671 18.46 5.846 19.299 9.186 0.838 0.838 0.838 1.674 0.838 1.674m-850.802 19.208c27.689-5.846 74.676-18.373 150.191-45.097 18.459-6.682 38.596-14.197 57.895-22.549-2.517 0-5.035-0.836-7.551-0.836-100.687 2.506-218.154 35.912-265.142 54.285-5.874 2.504-36.08 13.362-11.748 18.373 5.035 0.835 10.909 1.67 17.621 2.505 21.815 0.836 36.918-1.67 58.734-6.681" fill="#0089E0" p-id="3688"></path><path d="M281.625 553.193l-4.194 19.211h9.229c5.035 0 9.229-0.836 11.747-2.506 2.517-2.505 3.356-5.012 3.356-8.353s-0.839-5.011-2.516-6.681c-1.679-0.836-4.196-1.672-7.552-1.672h-10.07m6.714-30.061l-3.357 17.537h6.713c5.035 0 8.39-0.835 10.907-2.507 2.518-1.668 4.195-4.173 4.195-7.516 0-2.505-0.838-4.175-2.517-5.845-1.678-0.835-4.195-1.67-6.712-1.67h-9.229m-16.782-13.362h28.528c4.195 0 7.552 0 10.068 0.834 2.518 0 5.034 0.836 6.712 0.836 3.356 1.671 5.873 4.176 7.552 6.681 1.678 2.506 2.517 5.012 2.517 8.352 0 5.845-1.678 10.022-5.874 13.362-3.355 4.177-8.39 5.847-14.263 6.681 4.196 0.836 8.39 2.506 10.908 5.01 2.517 3.342 4.195 6.682 4.195 10.858 0 3.34-0.839 6.68-2.517 10.022-1.678 3.339-4.196 5.844-7.551 8.351-2.518 1.67-5.873 3.341-10.069 4.174-3.356 0.837-9.229 1.671-15.942 1.671h-31.044l16.78-76.832m107.399 15.033l-15.942 29.229-17.62 32.57h-21.816l45.309-76.832h25.172l12.586 76.832h-20.138c-2.516-20.878-5.034-40.92-7.551-61.799m51.182-15.033h20.137L434.334 586.6h-20.977l16.781-76.832m26.85 0h21.817l7.55 22.547s0 0.836 0.839 3.341c0.839 1.672 0.839 3.342 1.678 5.012 0.84-1.67 1.68-3.34 3.356-5.012 0.841-1.668 1.68-3.341 1.68-4.175l16.781-21.713h23.493l-37.756 47.602-5.874 29.229h-20.977l5.872-29.229-18.459-47.602m85.586 0h20.974l-9.229 42.591c-0.838 1.67-0.838 4.176-1.68 5.846v5.012c0 3.341 0.842 5.845 3.357 7.518 1.678 1.67 4.196 2.505 7.551 2.505 4.196 0 7.553-0.835 10.069-4.178 2.518-3.34 4.195-9.185 5.875-17.538l9.229-41.755h20.136l-10.067 47.602c-1.679 10.859-5.875 18.373-11.746 23.385-5.872 5.011-14.265 7.516-24.333 7.516-10.07 0-17.62-1.671-22.656-6.682-5.034-4.174-7.55-10.854-7.55-19.207v-5.012c0-1.67 0.838-3.341 0.838-5.011l9.232-42.592m82.225 0h25.173l12.586 39.251c0.839 3.34 1.678 5.846 2.519 8.351 0 2.507 0.838 5.012 0.838 7.517h0.839c0-2.505 0.839-5.01 0.839-7.517 0.838-2.505 0.838-5.011 1.678-9.185l8.393-38.417h18.458L680.178 586.6h-25.172l-13.425-43.427c-0.84-1.669-0.84-3.34-1.678-5.845 0-1.672-0.839-4.177-0.839-5.847h-0.839c0 2.507-0.839 5.012-0.839 7.517-0.841 2.506-0.841 5.012-1.68 7.516l-8.39 40.086h-18.461l15.944-76.832m104.883 14.198l-4.196 20.044h5.035c5.034 0 9.23-0.837 11.747-2.506 2.518-2.506 4.195-5.011 4.195-9.188 0-2.505-0.84-5.011-3.356-6.679-1.678-1.671-5.033-1.671-8.391-1.671h-5.034m-17.621-14.198h22.655c10.907 0 19.298 1.67 24.333 5.011 5.034 3.34 7.552 8.352 7.552 15.866 0 8.353-3.357 15.868-9.229 20.878-5.874 5.012-13.426 7.517-24.334 7.517h-4.194c-1.677 0-4.196-0.835-6.713-0.835L716.26 586.6h-20.14l15.941-76.832m116.632 30.065c0-5.845-1.682-10.022-4.198-13.362-2.517-2.505-5.871-4.176-10.068-4.176-3.354 0-5.873 0.836-9.228 2.506-2.519 1.67-5.035 5.01-6.714 8.351-2.516 2.505-3.355 6.682-5.034 10.858-0.838 4.176-1.68 7.514-1.68 11.69 0 5.846 1.68 10.021 4.198 12.529 2.516 3.339 5.872 5.01 10.068 5.01 3.354 0 5.873-0.835 8.389-2.505 3.357-1.673 5.874-5.013 8.392-8.353 1.677-2.505 2.517-6.682 4.193-10.858 0.841-3.337 1.682-7.513 1.682-11.69m-12.589-31.736c10.068 0 18.461 2.505 24.333 8.352 5.874 5.846 9.229 14.196 9.229 24.219 0 5.846-0.838 10.855-2.516 16.702-1.678 5.012-4.195 10.023-6.713 14.198-4.194 5.01-9.229 9.187-15.103 12.527-6.711 2.504-12.585 4.175-20.136 4.175-10.907 0-19.3-2.505-25.172-8.353-5.875-5.843-8.391-14.196-8.391-25.053 0-5.01 0.839-10.855 1.678-15.867 1.678-5.01 4.196-9.188 6.713-13.361 4.194-5.847 9.229-10.022 15.103-13.364 5.873-2.504 12.586-4.175 20.975-4.175m70.481 15.869l-3.357 17.538h7.554c4.193 0 8.391-0.836 10.907-2.506s3.355-4.176 3.355-7.517c0-2.506-0.839-4.177-2.516-5.845-1.678-0.836-4.196-1.671-7.554-1.671h-8.389m-16.78-14.197h29.367c9.229 0 15.942 1.67 20.137 5.011 5.034 3.34 7.552 7.516 7.552 14.196 0 5.847-2.518 10.022-5.874 13.362-3.355 3.342-9.228 5.012-15.942 5.848 2.519 1.67 4.196 2.503 5.035 4.174 1.68 2.506 2.518 5.011 2.518 8.352l5.874 25.889h-20.139l-5.034-25.054c-0.839-1.669-1.678-3.341-3.355-4.176-0.84-0.835-3.357-1.67-5.874-1.67h-4.195L874 586.6h-20.138l15.943-76.832m68.801 0h59.574l-3.356 15.033h-20.137L962.099 586.6h-20.974l13.424-61.799h-19.298l3.355-15.033M193.525 645.061c2.517 0 5.035 0 5.874 0.834 0.839 0.836 0.839 2.507 0.839 5.01l-0.839 64.307H128.08l0.839-70.15h24.331c2.518-3.342 3.357-7.516 5.035-11.693h11.746c-0.839 4.178-2.516 7.518-4.194 11.693h27.688m-7.552 8.349h-46.147v20.879h49.503v-18.373-1.673c-0.839 0-1.677-0.833-3.356-0.833m-46.147 53.449h48.665l0.839-23.384h-49.503v23.384m152.707-60.965h-62.091l0.839-9.185h61.251v9.185m-70.48 31.735v-10.021h79.71v10.021h-40.275c-5.034 9.187-9.229 17.538-14.264 24.218h34.401l-10.068-18.371h10.907l18.459 29.229h-13.425l-3.357-6.682-1.678 5.012h-55.377l20.976-33.406h-26.009m138.444-22.549h-10.908l-1.678 60.13h-10.069l1.678-60.13h-14.264l0.839-7.514h13.425l0.839-14.2h9.229v14.2h11.747l-0.838 7.514m-31.045 7.518h8.391c-1.678 17.537-4.195 32.569-6.712 44.262h-9.23c3.356-15.867 5.873-30.066 7.551-44.262m21.816 0h7.551l1.678 38.416h-8.391l-0.838-38.416m41.952-26.726c3.356 0 5.035 0 5.874 0.837 0.839 0.835 0.839 2.503 0.839 5.009l-1.678 65.142h9.229l-2.516 8.351h-16.782l1.678-69.316c0.838-0.834 0.838-0.834 0-1.67 0 0-0.839-0.834-1.678-0.834H375.6c0 9.185 0 19.208-0.839 28.394-0.84 9.186-1.679 17.537-3.357 24.221-0.838 7.515-2.517 14.195-3.355 19.206h-11.747c2.517-5.846 4.195-12.527 5.873-19.206 0.839-6.684 2.518-14.199 3.357-22.551 0-8.352 0.839-20.879 0.839-37.581h26.849m57.895 48.436v10.023c-10.069 4.174-19.298 8.35-29.367 10.854v-9.184l10.069-3.343 0.839-30.9h-10.069v-8.351h10.069l0.838-20.879h10.07l-0.838 20.879h9.229v8.351h-9.229l-0.84 26.726 9.229-4.176m42.793-25.054c3.354 0 5.034 0.835 6.711 1.671 0.84 0.834 0.84 2.506 0.84 5.846l-0.84 47.603h-20.136l-5.035-8.352h15.104l0.838-37.58c0.838 0 0.838-0.835 0.838-0.835-0.838-0.836-0.838-0.836-1.676-0.836h-0.839c-1.679 9.186-4.196 15.866-7.552 21.714-3.355 5.847-7.552 10.856-12.585 15.032-5.035 4.174-11.748 8.352-19.3 12.526v-11.692c8.391-4.175 15.104-10.02 20.14-15.866 5.033-5.848 8.39-13.365 10.068-21.714h-4.196c-1.679 3.343-2.517 5.847-4.196 9.186-2.516 3.341-5.034 6.681-8.39 10.022-3.356 3.34-6.713 5.847-11.747 9.187v-11.691c3.356-2.507 6.711-5.012 8.391-7.518 2.518-2.505 4.195-5.843 5.873-9.186h-13.425c16.782-12.529 26.85-20.043 29.367-23.383 0.84 0 0.84-0.836 0-0.836h-30.206v-7.517h43.63c0.841 0.835 1.678 1.672 1.678 2.507 0 3.34 0 5.01-1.678 6.68-2.515 2.506-7.55 7.516-15.102 12.526l-4.196 2.506h17.621m36.918-14.196l-5.034 8.351h-11.747c2.517-3.341 4.194-6.681 6.711-10.021 2.519-3.341 4.197-6.681 5.875-10.023h10.907l-2.519 4.178h21.816v7.516H545.09c0 1.67 0.839 2.507 1.678 3.341 0.84 1.669 1.679 2.503 1.679 3.339h-10.908c-0.84-1.67-1.679-3.339-2.519-6.68h-4.194m41.953-7.517h25.171l-0.839 7.516h-13.424c0.838 1.67 2.516 4.173 4.196 7.515h-10.909c-1.68-2.505-2.518-5.008-3.356-7.515h-5.034l-4.194 5.844h-11.75c5.035-6.68 9.231-12.526 11.749-17.537h10.905l-2.515 4.177m14.264 19.206c3.354 0 5.871 0 6.713 0.837 0.837 1.669 0.837 3.34 0.837 5.846v8.351h-9.229v17.537H535.86v5.013h47.827c2.516 0 4.196 0 5.034 0.834 0.838 0.837 1.677 2.503 1.677 4.176v16.702h-66.284l1.679-44.262h-10.07l0.84-15.033h34.4l-1.678-4.176h10.909l2.517 4.176h24.332m-2.518 8.351c0.839-0.834 0-1.669-0.838-1.669h-57.056v5.846h52.861c2.517 0 4.194 0 5.032 1.671v-5.848m-9.23 12.527c0-0.835-0.838-1.671-1.677-1.671H535.86v5.847h38.597l0.837-4.176m3.357 23.385H535.02l0.84 7.514h44.468l-0.835-5.845c0.835-0.836 0.835-0.836 0-1.669h-0.842m69.642-13.365v9.189l-29.368 11.688 0.838-8.35 9.232-3.339v-24.22h-7.551v-8.352h7.551l0.838-19.208h-9.228v-7.516h28.527v7.516h-10.068v19.208h7.551v8.352h-7.551v20.042l9.229-5.01m31.046-17.534h8.391v-11.694h-8.391v11.694m-18.459 0h8.39l0.838-11.694h-9.228v11.694m26.85-28.397c0-0.834 0-0.834-0.839-0.834h-7.552v10.855h8.391v-10.021m-17.622-0.834h-8.389v10.855h8.389v-10.855m20.977-7.518c2.519 0 4.196 0.836 5.035 1.671 0.836 0.835 1.677 2.507 1.677 5.012l-1.677 36.745h-16.781l-0.839 10.855h18.456v7.518H678.5v11.692h21.814v8.351h-53.699v-8.351h21.814l0.84-11.692H650.81l0.839-7.518h17.62v-10.855h-17.62l0.839-43.428h38.597m81.39 56.79h11.746c5.034 5.848 10.908 12.526 16.781 19.208h-12.588c-5.031-5.845-10.065-12.525-15.939-19.208m-37.759 0h11.747c-1.678 2.505-3.356 5.848-5.873 9.187-2.517 4.176-5.035 7.517-7.553 10.021h-14.264c7.551-6.681 12.586-13.36 15.943-19.208m31.885-45.096c-6.714 5.01-11.749 9.184-15.943 11.69-0.838 0.837-2.517 1.671-5.034 2.506h19.298l10.908-7.517h17.621c-5.036 3.341-10.908 6.682-17.621 10.858-6.712 5.011-12.586 8.352-17.62 11.691-1.678 0.832-4.195 1.669-8.39 3.34h29.367l-6.712-9.186h10.908c5.031 5.846 10.067 11.691 16.78 18.372h-12.587l-5.873-5.847-1.677 4.177H765.76v30.064h-20.138l-3.355-8.351h12.584v-21.714h-33.56c10.066-5.011 20.976-11.692 32.722-19.208h-30.206c5.035-3.34 10.908-6.682 15.943-10.857 4.194-3.341 8.39-6.68 10.906-10.021-9.229 0.834-17.62 0.834-24.333 0.834v-8.35c10.908 0 22.654 0 35.241-0.835 12.586-0.837 24.333-1.672 33.563-2.507v8.352c-7.551 0.839-17.617 1.673-28.526 2.509m83.906 9.183c-5.035 9.189-10.908 18.376-17.621 28.396l13.425-1.67v7.518l-30.207 2.507c5.874-6.684 10.907-14.199 15.104-22.55h-15.104c5.874-11.693 10.907-23.384 14.264-34.241h10.909c-3.356 10.021-7.552 19.208-11.748 26.725h5.874l3.355-6.684h11.749m-34.403 59.295v-9.187l31.046-9.186-0.839 8.352-30.207 10.021m56.217-62.636c-1.678 3.34-4.193 7.518-8.39 13.364h17.619l-5.033-9.188h9.229c4.196 7.518 8.391 14.198 13.426 20.878h-11.748l-5.035-8.35-1.677 5.011h-32.725c5.875-7.518 10.069-15.032 13.426-21.716h-13.426v-8.35h20.14c-1.68-3.342-2.52-5.845-3.357-9.188h10.069c0.839 3.343 2.517 6.683 3.356 9.188h19.299v8.35h-25.173m10.907 26.727l0.841 28.395h13.426l-2.52 10.021h-21.813L874 677.63h9.228m-15.101 0c-0.839 15.032-4.196 27.559-10.07 38.416h-13.423c7.551-11.692 11.745-24.218 13.423-38.416h10.07" fill="#FFFFFF" p-id="3689"></path></svg>