<?xml version="1.0" standalone="no"?><!DOCTYPE svg PUBLIC "-//W3C//DTD SVG 1.1//EN" "http://www.w3.org/Graphics/SVG/1.1/DTD/svg11.dtd"><svg t="1603728934245" class="icon" viewBox="0 0 1024 1024" version="1.1" xmlns="http://www.w3.org/2000/svg" p-id="2388" xmlns:xlink="http://www.w3.org/1999/xlink" width="200" height="200"><defs><style type="text/css"></style></defs><path d="M512 317c105.6 0 201.8 64.4 288.7 193.2 10.9 16.2 11.7 37.2 1.9 54.2l-1.9 3.1-4.8 7.1C710.2 698.7 615.6 760.8 512 760.8c-105.6 0-201.8-64.4-288.7-193.2-10.9-16.2-11.7-37.2-1.9-54.2l1.9-3.1 4.8-7.1C313.8 379.1 408.4 317 512 317z m0 51.2c-84.6 0-164.8 52.6-241.6 163.8l-4.7 6.9 4.7 6.9C347.3 657 427.5 709.6 512 709.6c84.6 0 164.8-52.6 241.6-163.8l4.7-6.9-4.7-6.9C676.7 420.8 596.5 368.2 512 368.2z m0 62c40.8-0.5 78.7 21 99.2 56.2s20.5 78.8 0 114-58.4 56.7-99.2 56.2c-62-0.8-111.8-51.2-111.8-113.2S450 431 512 430.2z m0 51.2c-22.4-0.4-43.2 11.4-54.5 30.7-11.3 19.3-11.3 43.3 0 62.6 11.3 19.3 32.2 31.1 54.5 30.7 33.8-0.6 61-28.1 61-62 0-33.8-27.2-61.4-61-62z m0 0" p-id="2389"></path></svg>