<?xml version="1.0" standalone="no"?><!DOCTYPE svg PUBLIC "-//W3C//DTD SVG 1.1//EN" "http://www.w3.org/Graphics/SVG/1.1/DTD/svg11.dtd"><svg t="1603729796164" class="icon" viewBox="0 0 1024 1024" version="1.1" xmlns="http://www.w3.org/2000/svg" p-id="1631" xmlns:xlink="http://www.w3.org/1999/xlink" width="200" height="200"><defs><style type="text/css"></style></defs><path d="M512 427.12177778c-46.87644445 0-84.87822222 38.00177778-84.87822222 84.87822222 0 46.99022222 38.00177778 84.992 84.87822222 84.992 46.87644445 0 84.992-38.00177778 84.992-84.992 0-46.87644445-38.11555555-84.87822222-84.992-84.87822222z" p-id="1632"></path><path d="M512 172.14577778C230.51377778 172.14577778 2.27555555 512 2.27555555 512s228.23822222 339.85422222 509.72444445 339.85422222S1021.72444445 512 1021.72444445 512 793.48622222 172.14577778 512 172.14577778z m0 552.27733333c-117.30488889 0-212.42311111-95.11822222-212.42311111-212.42311111S394.69511111 299.57688889 512 299.57688889 724.42311111 394.69511111 724.42311111 512 629.30488889 724.42311111 512 724.42311111z" p-id="1633"></path></svg>