<?xml version="1.0" standalone="no"?><!DOCTYPE svg PUBLIC "-//W3C//DTD SVG 1.1//EN" "http://www.w3.org/Graphics/SVG/1.1/DTD/svg11.dtd"><svg t="1614410373743" class="icon" viewBox="0 0 1024 1024" version="1.1" xmlns="http://www.w3.org/2000/svg" p-id="1753" xmlns:xlink="http://www.w3.org/1999/xlink" width="200" height="200"><defs><style type="text/css"></style></defs><path d="M820.26308114 209.85901148c-1.02034918 0-78.09593032-1.02034918-158.23255819-33.47529017C580.89316886 143.88953525 527.10901148 105.35174427 527.10901148 105.35174427L506.78052295 90.125 486.49127869 105.33212213s-52.78343033 37.55668606-134.94113361 71.03197706C271.39389508 207.83793606 194.31831394 209.87863361 193.29796475 209.87863361L158.80232541 210.87936066V559.87790738c0 175.48037786 226.20348852 361.14462214 347.97819754 361.14462131 121.67659918 0 347.97819754-185.66424427 347.97819836-361.14462131V210.87936066l-34.49564016-1.02034918z m-27.92223852 352.53052377c0 140.78851721-203.10828525 301.51308115-286.48255737 301.51308115-82.45203525 0-287.52252869-161.74491311-287.52252952-301.51308115V270.88372131c36.18313935-3.98328525 94.42151148-15.03052295 154.81831394-39.14607623 61.27979673-25.11627869 108.58866311-52.29287786 133.72456394-68.34375 25.11627869 16.05087214 72.34665738 44.14970902 132.62572705 69.26598853 60.27906968 25.15552295 118.61555246 34.24055246 153.85683114 38.2238377v291.58430164h-1.02034918v-0.0784877zM345.95784918 501.07049427a29.88444754 29.88444754 0 0 1 42.01090082 0l61.22093032 61.22093032 176.50072706-176.50072705a29.88444754 29.88444754 0 0 1 41.99127868 0c11.51816886 11.49854673 11.51816886 30.41424427 0 42.01090165L470.16569754 625.25872131a29.88444754 29.88444754 0 0 1-42.01090081 0l-82.17732542-82.1577041a29.88444754 29.88444754 0 0 1 0-42.03052294z" fill="#2c2c2c" p-id="1754"></path></svg>