<?xml version="1.0" standalone="no"?><!DOCTYPE svg PUBLIC "-//W3C//DTD SVG 1.1//EN" "http://www.w3.org/Graphics/SVG/1.1/DTD/svg11.dtd"><svg t="1614347449649" class="icon" viewBox="0 0 1024 1024" version="1.1" xmlns="http://www.w3.org/2000/svg" p-id="8360" xmlns:xlink="http://www.w3.org/1999/xlink" width="200" height="200"><defs><style type="text/css"></style></defs><path d="M897.28 170.667H146.347c-28.16 0-51.2 23.04-51.2 51.2v665.6c0 28.16 23.04 51.2 51.2 51.2H897.28c28.16 0 51.2-23.04 51.2-51.2v-665.6c0-28.16-22.613-51.2-51.2-51.2zM880.213 870.4h-716.8V238.933h716.8V870.4z" p-id="8361"></path><path d="M744.96 699.733H333.227c-18.347 0-32.854-14.933-32.854-32.853v-2.133c0-18.347 14.934-32.854 32.854-32.854H744.96c18.347 0 32.853 14.934 32.853 32.854v2.133c0 17.92-14.506 32.853-32.853 32.853z m-1.28-153.6H521.813c-18.773 0-34.133-15.36-34.133-34.133s15.36-34.133 34.133-34.133H743.68c18.773 0 34.133 15.36 34.133 34.133s-14.933 34.133-34.133 34.133zM718.08 307.2c-18.773 0-34.133-15.36-34.133-34.133v-153.6c0-18.774 15.36-34.134 34.133-34.134s34.133 15.36 34.133 34.134v153.6c0 18.773-14.933 34.133-34.133 34.133z m-392.533 0c-18.774 0-34.134-15.36-34.134-34.133v-153.6c0-18.774 15.36-34.134 34.134-34.134s34.133 15.36 34.133 34.134v153.6c0 18.773-14.933 34.133-34.133 34.133z" p-id="8362"></path></svg>
