<?xml version="1.0" standalone="no"?><!DOCTYPE svg PUBLIC "-//W3C//DTD SVG 1.1//EN" "http://www.w3.org/Graphics/SVG/1.1/DTD/svg11.dtd"><svg t="1611904789911" class="icon" viewBox="0 0 1024 1024" version="1.1" xmlns="http://www.w3.org/2000/svg" p-id="1477" xmlns:xlink="http://www.w3.org/1999/xlink" width="200" height="200"><defs><style type="text/css"></style></defs><path d="M25.494 320.856h337.795v461.855H25.494V320.856" fill="#25221E" p-id="1478"></path><path d="M210.986 554.438L65.793 401.076h929.231l1.778 293.156-933.972 1.771 148.156-141.565" fill="#FDFA00" p-id="1479"></path><path d="M200.318 553.848L60.459 406.385l-11.853-12.387h954.122v7.078l1.778 293.156v7.669h-7.705l-933.972 1.18-5.334-12.389 142.823-136.844m16.001-4.719l4.741 5.309-5.333 5.309L81.201 688.334l908.491-1.179-1.779-278.411H82.979l133.34 140.385" fill="#242729" p-id="1480"></path><path d="M412.476 626.989H294.545l22.52-159.26h36.743l-18.964 130.948h81.782l-4.15 28.312m154.675 0H441.515l23.113-159.26h123.265l-4.741 29.492H496.63l-4.742 34.211h80.597l-4.149 29.493h-81.188l-5.334 37.752h89.485l-4.148 28.312m178.972 0h-39.707l-6.518-34.802h-61.04l-16.594 34.802h-39.113l82.375-159.26h43.261l37.336 159.26m-49.187-61.933l-12.445-55.446c-0.592-4.719-1.185-9.438-1.778-13.568h-0.593c-1.185 5.311-2.963 10.028-5.333 14.157l-26.076 54.857h46.225m123.857 61.933h-52.15l23.112-159.26h49.779c57.485 0.59 82.968 26.544 76.45 78.449-5.927 56.037-38.521 82.582-97.191 80.811m16.001-129.768H824.35l-14.816 101.457h12.445c33.188 0 52.743-17.106 57.484-51.908 3.556-32.443-10.667-48.957-42.669-49.549M516.186 759.706h-9.481v-41.289h9.481v41.289m31.409-43.059l-2.37 6.488c-1.187-0.59-2.371-1.179-3.557-1.179-2.371 0-4.147 1.768-4.147 4.128v4.129h7.11v6.488h-7.11v23.004h-8.891v-23.004h-4.741v-6.488h4.741v-3.54c0-8.257 3.556-11.797 11.26-11.206 2.964 0.001 5.927 0.001 7.705 1.18m35.557 28.312c0 9.439-5.333 14.747-16.001 14.747-10.074-0.591-15.407-5.308-16-14.747 0.593-10.026 5.926-15.335 16.593-15.335 10.075 0 15.408 5.309 15.408 15.335m-8.889 0c-0.593-5.896-2.964-8.257-7.112-8.846-4.147 0-6.518 2.949-6.518 8.846 0 5.311 2.37 8.26 6.518 8.26 4.741 0 7.112-2.949 7.112-8.26m38.52-14.156l-2.963 7.669c-1.186-0.59-2.371-1.179-3.557-1.179-4.148 0-5.926 2.358-6.52 7.666v14.156h-8.889v-28.901h8.889v5.309c1.778-4.129 4.148-6.488 8.299-6.488 1.186-0.001 2.963 0.589 4.741 1.768m53.928 28.312h-9.48V742.6c0-4.129-1.186-6.487-4.741-6.487-3.557 0-5.335 2.358-5.335 7.077v15.925h-8.889V742.6c0-4.129-1.777-6.487-4.741-6.487-3.556 0.589-5.332 2.358-5.332 7.077v15.925h-8.892v-28.901h8.892v4.719c1.776-4.13 5.332-5.898 10.073-5.898 4.148 0 7.111 2.359 8.296 5.898 2.371-3.539 5.928-5.898 10.076-5.898 6.518 0 10.073 4.129 10.073 12.387v17.693m39.705 0h-8.889c-0.592-1.18-1.185-2.947-1.185-4.128-2.964 2.948-7.111 4.719-12.444 4.719-5.928 0-9.482-2.948-9.482-7.667-0.593-5.31 2.962-8.849 10.667-10.029 5.333-0.589 8.889-1.769 10.667-2.947 0.593-2.36-1.778-3.54-5.927-3.54-2.963 0-5.333 1.18-6.518 3.54l-8.299-0.591c1.779-6.489 6.521-9.438 14.816-8.848 10.668-0.59 15.409 3.539 14.816 12.386v11.209c0.002 2.949 0.595 4.717 1.778 5.896m-10.073-12.975v-1.77c-1.778 1.18-4.148 1.77-7.704 2.359-4.148 1.18-5.927 2.36-5.927 4.129 0 2.36 1.187 2.949 4.742 2.949 5.333 0.001 8.296-2.949 8.889-7.667m19.557 4.718v-14.156h-4.741v-6.488h4.741v-10.027l8.889-1.77v11.797h7.112v6.488h-7.112v12.388c0 2.949 1.186 4.129 3.557 4.129 1.185 0 1.777 0 2.963-0.591l1.778 5.898c-1.778 1.18-4.149 1.18-7.705 1.18-6.52 0.59-9.482-2.359-9.482-8.848m33.186-24.773h-9.481v-7.668h9.481v7.668m0 33.621h-9.481v-29.492h9.481v29.492m39.706-14.747c0 9.439-5.334 14.747-16.001 14.747-10.074-0.591-15.408-5.308-16.001-14.747 0.593-10.026 5.927-15.335 16.001-15.335 10.667 0 16.001 5.309 16.001 15.335m-9.481 0c0-5.896-2.371-8.257-6.52-8.846-4.741 0-6.52 2.949-6.52 8.846 0 5.311 2.371 8.26 6.52 8.26 4.741 0 6.52-2.949 6.52-8.26m46.817 14.156h-9.483V742.6c0-4.129-1.777-6.487-5.332-6.487-3.557 0.589-5.335 2.949-5.928 7.077v15.925h-8.89v-28.901h8.89v4.129c2.371-2.949 5.928-4.719 9.482-4.719 7.705-0.59 11.261 3.539 11.261 11.797v17.694m49.778-20.052l-8.888 1.768c-1.186-2.948-3.557-4.128-5.928-4.717-4.74 0.589-7.11 3.538-7.703 8.846 0 5.311 2.371 8.26 7.703 8.26 3.557 0 5.335-1.771 5.928-5.31l9.48 1.181c-2.37 7.668-7.703 11.206-16.001 10.616-10.666 0-16-4.719-16.593-14.747 0.593-10.026 5.927-15.335 16.593-15.335 7.706-0.001 13.038 3.538 15.409 9.438m39.115 5.896c0 9.439-5.334 14.747-16.001 14.747-10.075-0.591-15.408-5.308-16.001-14.747 0.593-10.026 5.926-15.335 16.594-15.335 10.074 0 15.408 5.309 15.408 15.335m-8.89 0c-0.593-5.896-2.963-8.257-7.111-8.846-4.148 0-6.52 2.949-6.52 8.846 0 5.311 2.371 8.26 6.52 8.26 4.741 0 7.111-2.949 7.111-8.26m25.484 14.747h-9.482v-9.437h9.482v9.437m10.666-8.848v-14.156h-4.741v-6.488h4.741v-10.027l8.889-1.77v11.797h7.112v6.488h-7.112v12.388c0 2.949 1.185 4.129 3.556 4.129 1.186 0 1.777 0 2.371-0.591l2.37 5.898c-1.777 1.18-4.741 1.18-7.705 1.18-6.517 0.59-9.481-2.359-9.481-8.848m53.335 8.257h-9.481v-3.537c-1.185 2.948-4.148 4.128-8.889 4.128-7.704 0-11.852-5.308-12.444-14.156 0-10.617 4.147-16.516 13.63-15.926 3.555 0 6.519 1.77 7.703 4.719v-18.875h9.481v43.647m-8.888-14.156v-1.769c-0.593-4.128-2.37-6.488-6.52-7.077-4.147 0.589-5.925 2.949-6.518 8.846 0.593 5.311 2.37 8.26 6.518 8.26 4.15 0 6.52-2.949 6.52-8.26" fill="#25221E" p-id="1481"></path></svg>