<?xml version="1.0" standalone="no"?><!DOCTYPE svg PUBLIC "-//W3C//DTD SVG 1.1//EN" "http://www.w3.org/Graphics/SVG/1.1/DTD/svg11.dtd"><svg t="1603262643496" class="icon" viewBox="0 0 1024 1024" version="1.1" xmlns="http://www.w3.org/2000/svg" p-id="4054" xmlns:xlink="http://www.w3.org/1999/xlink" width="200" height="200"><defs><style type="text/css"></style></defs><path d="M319.95 362.61h63.99v85.32h-63.99v-85.32zM639.9 106.65h181.305c53.011 0 95.985 42.974 95.985 95.985V383.94h-64.033l0.043-181.305c0-16.63-12.689-30.298-28.914-31.849l-184.386-0.043V106.65z m-255.96 0v64.033l-181.305-0.043c-16.63 0-30.298 12.689-31.849 28.914l-0.043 184.386H106.65V202.635c0-53.011 42.974-95.985 95.985-95.985H383.94zM639.9 917.19v-64.033l181.305 0.043c16.63 0 30.298-12.689 31.849-28.914l0.043-184.386h64.093v181.305c0 53.011-42.974 95.985-95.985 95.985H639.9z m-255.96 0H202.635c-53.011 0-95.985-42.974-95.985-95.985V639.9h64.033l-0.043 181.305c0 16.63 12.689 30.298 28.914 31.849l184.386 0.043v64.093zM639.9 362.61h63.99v85.32H639.9v-85.32zM387.522 671.854l-26.621-17.748 35.495-53.243 26.622 17.748c20.889 13.926 50.34 21.289 88.902 21.289 38.561 0 68.013-7.363 88.902-21.289l26.622-17.748 35.495 53.243-26.621 17.748c-32.436 21.624-74.084 32.036-124.398 32.036-50.314 0-91.962-10.412-124.398-32.036z" p-id="4055"></path></svg>