<?xml version="1.0" standalone="no"?><!DOCTYPE svg PUBLIC "-//W3C//DTD SVG 1.1//EN" "http://www.w3.org/Graphics/SVG/1.1/DTD/svg11.dtd"><svg t="1609405961854" class="icon" viewBox="0 0 1024 1024" version="1.1" xmlns="http://www.w3.org/2000/svg" p-id="4203" xmlns:xlink="http://www.w3.org/1999/xlink" width="200" height="200"><defs><style type="text/css"></style></defs><path d="M814.745453 882.109386a34.790487 34.790487 0 0 0 34.108321-35.268003 34.72227 34.72227 0 0 0-34.108321-35.268003 34.790487 34.790487 0 0 0-34.10832 35.268003 34.790487 34.790487 0 0 0 34.10832 35.268003z m0 75.856905c-44.88655 0-86.362268-23.602958-124.29072-70.67244a57.165545 57.165545 0 0 1 0-70.399573c37.928452-47.137699 79.40417-70.67244 124.29072-70.672441s86.362268 23.602958 124.29072 70.672441a57.165545 57.165545 0 0 1 0 70.399573c-37.928452 47.205916-79.40417 70.67244-124.29072 70.67244z m-306.974885-464.009593c113.034974 0 204.649923-94.752915 204.649924-211.676237s-91.614949-211.676237-204.649924-211.676237-204.649923 94.752915-204.649923 211.676237 91.546732 211.676237 204.649923 211.676237z m-104.712544 49.047765c-98.777696-42.430751-168.222237-143.18673-168.222237-260.724002 0-155.875025 122.176004-282.280461 272.866565-282.280461s272.866565 126.405436 272.866564 282.280461c0 116.17294-67.807341 215.973886-164.743188 259.291453a440.747718 440.747718 0 0 1 113.648924 44.954766 35.881953 35.881953 0 0 1 13.575112 47.888083 33.630804 33.630804 0 0 1-46.3191 13.984411 371.439611 371.439611 0 0 0-184.116714-48.570249c-209.970821 0-380.034908 173.884218-380.034908 388.152688 0 19.509959-15.280528 35.268003-34.108321 35.268004s-34.108321-15.826261-34.10832-35.268004C64.294184 773.235627 208.435947 593.075478 403.058024 543.004463z"  p-id="4204"></path></svg>