<?xml version="1.0" standalone="no"?><!DOCTYPE svg PUBLIC "-//W3C//DTD SVG 1.1//EN" "http://www.w3.org/Graphics/SVG/1.1/DTD/svg11.dtd"><svg t="1603638539982" class="icon" viewBox="0 0 1024 1024" version="1.1" xmlns="http://www.w3.org/2000/svg" p-id="1380" xmlns:xlink="http://www.w3.org/1999/xlink" width="200" height="200"><defs><style type="text/css"></style></defs><path d="M756.5 122v60L909.5 333.5l-85.5 85.5c-12-10.5-25.5-15-40.5-15-34.5 0-61.5 27-61.5 61.5V782c0 33-27 60-60 60H362c-33 0-60-27-60-60V465.5c0-34.5-27-61.5-61.5-61.5-15 0-30 6-40.5 15L114.5 333.5 266 182h37.5l1.5 1.5C347 246.5 426.5 287 512 287c85.5 0 165-39 207-103.5 0-1.5 1.5-1.5 1.5-1.5h36V122m-451.5 0H272c-21 0-36 6-46.5 18L72.5 291.5c-24 24-24 61.5 0 84l88.5 88.5c10.5 10.5 25.5 16.5 39 16.5s28.5-6 39-16.5h1.5c1.5 0 1.5 0 1.5 1.5V782c0 66 54 120 120 120h300c66 0 120-54 120-120V465.5c0-1.5 0-1.5 1.5-1.5h1.5c10.5 10.5 25.5 16.5 39 16.5 15 0 28.5-6 39-16.5l88.5-88.5c24-24 24-61.5 0-84L800 140C788 128 773 122 756.5 122h-37.5c-21 0-39 10.5-51 28.5-31.5 46.5-90 76.5-157.5 76.5s-126-31.5-157.5-76.5C344 132.5 324.5 122 305 122z" p-id="1381"></path></svg>