<?xml version="1.0" standalone="no"?><!DOCTYPE svg PUBLIC "-//W3C//DTD SVG 1.1//EN" "http://www.w3.org/Graphics/SVG/1.1/DTD/svg11.dtd"><svg t="1614347297643" class="icon" viewBox="0 0 1024 1024" version="1.1" xmlns="http://www.w3.org/2000/svg" p-id="4141" xmlns:xlink="http://www.w3.org/1999/xlink" width="200" height="200"><defs><style type="text/css"></style></defs><path d="M392.064 957.12c20.224 0 36.672 17.792 36.672 39.68 0 21.824-24.448 27.2-44.736 27.2H128c-27.776 0-64-39.68-64-68.864v-210.56C64 616.064 163.072 512 285.312 512h172.544c20.288 0 36.672 17.728 36.672 39.68 0 21.824-26.24 24.32-46.528 24.32H275.456C192 576 128 704 128 756.544v200.576h264.064zM736 1024a224 224 0 1 1 0-448 224 224 0 0 1 0 448z m0-64a160 160 0 1 0 0-320 160 160 0 0 0 0 320z m-106.688-320L896 906.688l-53.312 53.312L576 693.312 629.312 640zM448 512a192 192 0 1 0 0-384 192 192 0 0 0 0 384z m0 64a256 256 0 1 1 0-512 256 256 0 0 1 0 512z" p-id="4142"></path></svg>