<?xml version="1.0" standalone="no"?><!DOCTYPE svg PUBLIC "-//W3C//DTD SVG 1.1//EN" "http://www.w3.org/Graphics/SVG/1.1/DTD/svg11.dtd"><svg class="icon" width="200px" height="200.00px" viewBox="0 0 1024 1024" version="1.1" xmlns="http://www.w3.org/2000/svg"><path  d="M933.93125001 347.8625l-128.98125001-62.60625001-64.6875 125.60625001 51.69375001 26.6625 20.8125-40.3875c17.775 40.10625001 27.61875001 83.41875001 27.61874999 127.35 0 177.58125001-149.2875 322.0875-332.775 322.0875a342 342 0 0 1-158.56875001-38.8125l-27.05624999 51.46875001a400.5 400.5 0 0 0 185.68125001 45.61874999c215.60625001 0 390.9375-170.60625001 390.93749998-380.30625001 0-49.10625001-10.125-97.81875001-29.02499998-143.21249998l38.925 18.95624999 25.425-52.425zM211.23124999 626.80625001a314.71875001 314.71875001 0 0 1-27.61874999-127.35000002c0-177.58125001 149.2875-322.14375001 332.775-322.14374999 55.35 0 110.19375001 13.44375001 158.56875001 38.86875001l27.05624999-51.46875001a400.21875001 400.21875001 0 0 0-185.625-45.50625001c-215.55 0-390.9375 170.55-390.9375 380.30625001 0 49.1625 10.125 97.875 29.08125001 143.2125l-39.03750002-19.0125L90.125 676.1375l128.925 62.55 64.74375001-125.60625001-51.75-26.66249998-20.8125 40.3875z m2e-8-2e-8" /></svg>