<?xml version="1.0" standalone="no"?><!DOCTYPE svg PUBLIC "-//W3C//DTD SVG 1.1//EN" "http://www.w3.org/Graphics/SVG/1.1/DTD/svg11.dtd"><svg t="1603640223174" class="icon" viewBox="0 0 1024 1024" version="1.1" xmlns="http://www.w3.org/2000/svg" p-id="16297" xmlns:xlink="http://www.w3.org/1999/xlink" width="200" height="200"><defs><style type="text/css"></style></defs><path d="M160 160h704a32 32 0 0 1 0 64h-704a32 32 0 0 1 0-64z m298.666667 213.333333h405.333333a32 32 0 0 1 0 64h-405.333333a32 32 0 0 1 0-64z m-298.666667 426.666667h704a32 32 0 0 1 0 64h-704a32 32 0 0 1 0-64z m298.666667-213.333333h405.333333a32 32 0 0 1 0 64h-405.333333a32 32 0 0 1 0-64z m-298.666667-43.733334a32 32 0 0 1 0-64h114.752l-50.986667-50.986666a32 32 0 1 1 45.269334-45.226667l105.6 105.6a32 32 0 0 1 0 45.226667l-105.6 105.6a32 32 0 0 1-45.248-45.248l50.965333-50.986667H160z" p-id="16298"></path></svg>