<?xml version="1.0" standalone="no"?><!DOCTYPE svg PUBLIC "-//W3C//DTD SVG 1.1//EN" "http://www.w3.org/Graphics/SVG/1.1/DTD/svg11.dtd"><svg t="1603519482750" class="icon" viewBox="0 0 1069 1024" version="1.1" xmlns="http://www.w3.org/2000/svg" p-id="1079" xmlns:xlink="http://www.w3.org/1999/xlink" width="208.7890625" height="200"><defs><style type="text/css"></style></defs><path d="M220.96219766 317.01911328a53.09358662 53.09358662 0 0 1-47.63556563-76.45476357l0.61588565-1.26362725a53.09358662 53.09358662 0 0 1 95.34546211 46.72235566l-0.61588565 1.26362725a53.09358662 53.09358662 0 0 1-47.70989648 29.73240791zM221.28075898 813.47600146a53.09358662 53.09358662 0 0 1-47.64618456-76.45476445l0.61588564-1.26362724a53.09358662 53.09358662 0 0 1 95.37731807 46.72235654l-0.61588477 1.26362724a53.09358662 53.09358662 0 0 1-47.73113438 29.73240791z" p-id="1080"></path><path d="M860.03907646 300.44329648h-133.79583691a37.16551055 37.16551055 0 0 1 0-74.33102109h133.79583691a37.16551055 37.16551055 0 0 1 0 74.33102109zM860.03907646 796.90018379h-133.79583691a37.16551055 37.16551055 0 0 1 0-74.33102022h133.79583691a37.16551055 37.16551055 0 0 1 0 74.33102021z" p-id="1081"></path><path d="M945.95511816 471.25598222H117.93940244A56.00311523 56.00311523 0 0 1 62 415.31657979V117.93940244A56.00311523 56.00311523 0 0 1 117.93940244 62h828.01571573a56.00311523 56.00311523 0 0 1 55.93940243 55.93940244v297.37717735a56.00311523 56.00311523 0 0 1-55.93940243 55.93940244zM125.71230342 407.54367792h812.46991377V125.71230342H125.71230342zM945.95511816 962H117.93940244A56.00311523 56.00311523 0 0 1 62 906.06059756V608.68342021a56.00311523 56.00311523 0 0 1 55.93940244-55.93940243h828.01571573a56.00311523 56.00311523 0 0 1 55.93940243 55.93940243v297.37717735a56.00311523 56.00311523 0 0 1-55.93940243 55.93940244zM125.71230342 898.28769658h812.46991377V616.45632208H125.71230342z" p-id="1082"></path><path d="M375.99546904 317.65623682a53.09358662 53.09358662 0 0 1-47.64618368-76.45476445l0.61588563-1.26362726a53.09358662 53.09358662 0 0 1 95.37731807 46.72235567l-0.61588564 1.26362725a53.09358662 53.09358662 0 0 1-47.73113438 29.73240879zM375.68752666 814.10250606a53.09358662 53.09358662 0 0 1-47.63556562-76.45476446l0.61588564-1.26362725a53.09358662 53.09358662 0 1 1 95.34546211 46.72235567l-0.61588564 1.26362725a53.09358662 53.09358662 0 0 1-47.70989649 29.73240878z" p-id="1083"></path></svg>