<?xml version="1.0" standalone="no"?><!DOCTYPE svg PUBLIC "-//W3C//DTD SVG 1.1//EN" "http://www.w3.org/Graphics/SVG/1.1/DTD/svg11.dtd"><svg t="1600938914154" class="icon" viewBox="0 0 1024 1024" version="1.1" xmlns="http://www.w3.org/2000/svg" p-id="2412" xmlns:xlink="http://www.w3.org/1999/xlink" width="200" height="200"><defs><style type="text/css"></style></defs><path d="M512.8 320c25.7 0 50.6 5.1 74.2 15.1 22.8 9.7 43.3 23.6 61 41.2 17.7 17.7 31.5 38.2 41.2 61 10 23.5 15.1 48.5 15.1 74.2v256.3H320.1V512.6c0-25.8 5.1-51 15.2-74.6 9.7-22.9 23.7-43.6 41.5-61.4 17.8-17.8 38.4-31.7 61.4-41.5 23.6-10 48.7-15.1 74.6-15.1m0-64c-141.2 0-256.7 115.5-256.7 256.7v307.1c0 6.6 5.4 12 12 12h488.1c6.6 0 12-5.4 12-12V511.4c0-140.5-114.9-255.4-255.4-255.4zM103.7 402.2c-15.1 0-28.6 10.8-31.5 26.1-3.3 17.3 8.2 34.2 25.5 37.5l62.3 11.8c2 0.4 4 0.6 6 0.6 15.1 0 28.6-10.8 31.5-26.1 3.3-17.3-8.2-34.2-25.5-37.5l-62.3-11.8c-2-0.4-4-0.6-6-0.6zM246.5 160.2c-7.2 0-14.5 2.4-20.5 7.4-13.6 11.3-15.4 31.6-4.1 45.1l40.6 48.8c6.3 7.6 15.5 11.5 24.7 11.5 7.2 0 14.5-2.4 20.5-7.4 13.6-11.3 15.4-31.6 4.1-45.1l-40.6-48.8c-6.3-7.6-15.4-11.5-24.7-11.5zM510.8 64.3h-0.1c-17.6 0.1-32 14.6-31.9 32.2l0.3 63.4c0.1 17.6 14.5 31.9 32.1 31.9h0.1c17.6-0.1 32-14.6 31.9-32.2l-0.3-63.4c-0.1-17.6-14.5-31.9-32.1-31.9zM775.7 158.4c-9.3 0-18.6 4-24.9 11.7l-40.2 49.1c-11.2 13.7-9.1 33.9 4.5 45.1 5.9 4.8 13.1 7.2 20.2 7.2 9.3 0 18.6-4 24.9-11.7l40.2-49.1c11.2-13.7 9.1-33.9-4.5-45.1-5.9-4.8-13-7.2-20.2-7.2zM920.1 399.5c-2.1 0-4.1 0.2-6.2 0.6l-62.2 12.4c-17.3 3.4-28.6 20.4-25.2 37.7 3 15.2 16.5 25.8 31.5 25.8 2.1 0 4.1-0.2 6.2-0.6l62.2-12.4c17.3-3.4 28.6-20.4 25.2-37.7-3-15.2-16.5-25.8-31.5-25.8zM800.4 895.7H224.1c-17.6 0-32 14.4-32 32s14.4 32 32 32h576.3c17.6 0 32-14.4 32-32s-14.4-32-32-32z" p-id="2413"></path></svg>