<?xml version="1.0" standalone="no"?><!DOCTYPE svg PUBLIC "-//W3C//DTD SVG 1.1//EN" "http://www.w3.org/Graphics/SVG/1.1/DTD/svg11.dtd"><svg t="1600954852525" class="icon" viewBox="0 0 1024 1024" version="1.1" xmlns="http://www.w3.org/2000/svg" p-id="1364" xmlns:xlink="http://www.w3.org/1999/xlink" width="200" height="200"><defs><style type="text/css"></style></defs><path d="M478.75102725 278.88728939v319.77762834l-135.35587569 93.90387089 28.87714742-93.90387089h-142.23664694c-56.68142425-3.38264145-53.29710766-56.68142425-53.29710896-56.68142425h109.12994266c61.75622269 0 10.15127203-27.06950078 10.15127202-27.06950078H166.58559723c-57.52666582-3.38264145-44.83632009-54.14569821-44.83632009-54.1456982h123.51077153c17.76514547-12.69034574-7.61387215-23.68351166-7.61387215-23.68351167H113.28848827c-48.22063537-1.69383084-47.37371996-61.75454885-47.37371867-61.75454885H434.75660106l43.99442619-96.44294459z m0 0v319.77762834l135.35587569 93.90387089-28.87547488-93.90387089h142.23330056c56.68142425-3.38264145 53.29710766-56.68142425 53.29710766-56.68142425h-109.12826881c-61.75622269 0-10.15127203-27.06950078-10.15127202-27.06950078h129.43416053c57.52499199-3.38264145 44.83464625-54.14569821 44.83464626-54.1456982h-123.51077154c-17.76514547-12.69034574 7.61387215-23.68351166 7.61387215-23.68351167h124.35768824c48.22398306-1.69383084 47.37706764-61.75454885 47.37706636-61.75454885H522.74210446l-43.99107721-96.44294459z" fill="#CC0505" p-id="1365"></path><path d="M246.67603923 800.2342033h6.27654809v6.27487555h40.79422273v5.88489201h-34.12434211c9.4131496 7.32431501 21.96624838 12.41585054 37.65594738 15.29804291a47.32685509 47.32685509 0 0 0-3.92326136 7.05986157c-16.73746462-4.70657481-30.2027546-11.50365933-40.4008928-20.3962738v21.57291846h-6.27654939v-21.57291846c-10.72536739 8.62816359-24.19065739 15.55412588-40.4008915 20.78793116a161.8680195 161.8680195 0 0 0-2.74494413-5.09823217c-0.52723049-0.7849873-0.91888657-1.31221778-1.17664338-1.56997331 15.689699-3.66550454 28.24112395-9.02316736 37.65594738-16.08135636h-34.51767333v-5.88489201h41.1858788v-6.27487555z m0.78498601-54.52229105l5.49156208-3.52993143a140.08588293 140.08588293 0 0 1 7.45319407 9.80648081l-4.31491872 2.74494413h36.47763017v5.88489203h-36.08597409v6.66820546h31.77105536v5.48988956h-31.77105536v7.0615354h31.77105536v5.48988826h-31.77105536v6.66820676h36.47763018v5.88489202h-69.42700276v3.9215875h-6.66820547v-34.12434212a175.21279963 175.21279963 0 0 1-9.80648082 10.58979427c-1.31221778-2.35328804-2.74661797-4.44379648-4.31491873-6.27654939 9.4131496-7.84485014 17.12242665-17.3868775 23.14289308-28.63278131l6.27654938 3.13827534c-0.52723049 1.31054394-1.56997459 3.00939629-3.13827534 5.09990473-0.7849873 1.31054394-1.43942171 2.35161422-1.95995684 3.13660149h26.67282318a70.06804774 70.06804774 0 0 0-6.27654937-9.02149351z m-23.92620523 14.9047117v6.66820677h26.28116712v-6.66820677h-26.28116712z m0 12.15976886v7.0615354h26.28116712v-7.0615354h-26.28116712z m0 12.55142366v6.66820676h26.28116712v-6.66820676h-26.28116712zM415.53697065 785.71947383h7.45319276v8.23818007h36.08764793v6.66653164H422.99016341v9.41482343h33.34102996v6.2765494h-33.34102996v9.4131509h40.40089151v6.2765481h-90.60826383v-6.2765481h42.75417956v-9.4131509h-30.5944107v-6.2765494h30.5944107v-9.41482343h-27.84946658c-2.88051725 4.97102697-6.66820547 9.9403801-11.37478156 14.90638553-3.13827404-3.13827404-4.97102697-4.83712769-5.49156209-5.09990471 7.31761966-7.31761966 13.20083783-15.81857805 17.64965583-25.49617982l6.66820676 2.35328804a54.15741378 54.15741378 0 0 1-3.52993143 6.66820548h23.92620523v-8.23650623z m-32.94937259-38.43926083h71.38863342v36.479304h-71.38863342v-36.479304z m7.45319278 6.27487555v8.62983614h56.87557779v-8.62983614h-56.87557779z m0 14.90638554v9.02316736h56.87557779v-9.02316736h-56.87557779zM582.82625491 742.18030698l7.8465227 1.17664338a10.54125555 10.54125555 0 0 1-1.96163067 2.74661797c12.02419445 14.64695488 26.40669718 25.10284989 43.14583693 31.37939928a434.31209869 434.31209869 0 0 1-5.09990601 7.84484886c-4.44881799-2.08883588-9.28594569-4.83545385-14.51305562-8.23650623v5.09990602h-55.69726059v-4.70824865c-2.35328804 1.83275292-6.41044866 4.31491872-12.1614414 7.45151893-1.31054394 0.7849873-2.22273516 1.31221778-2.74661798 1.56997459a176.33588407 176.33588407 0 0 0-4.70657479-7.05986285c21.18460877-10.19981074 36.47930401-22.61566257 45.89412743-37.2642913z m-31.37939798 52.169003h65.89707133v41.57753617h-7.0615367v-6.27487555h-51.38234185v6.27487555h-7.45319278v-41.57753617z m7.45319278 6.66820677v22.35790448h51.38234185v-22.35790448h-51.38234185z m25.49617979-48.63907287c-6.53932771 8.37207933-14.9047117 16.08135636-25.10284988 23.14289307h50.99068579c-10.72536739-7.58039798-19.35520353-15.29636908-25.88783591-23.14289307zM719.52280105 742.18030698l6.66653293 1.17664338a77.03752852 77.03752852 0 0 1-3.92158881 8.23818006h28.63278133v5.88321948h-14.904713c0 3.6638307-0.26277833 7.06153669-0.784986 10.19981073h18.43631697v5.88321818h-18.82797434a824.57621097 824.57621097 0 0 1 18.82797434 12.94308232l-4.31491873 5.4915621-4.70824863-3.52993142a2216.78177299 2216.78177299 0 0 1-12.94308104-9.80480698c-3.13827404 7.05986285-10.72536739 13.20753319-22.74956183 18.43631695-1.31221778-2.35328804-2.74661797-4.44379648-4.31491872-6.27654939 12.55142495-4.17934432 19.86904461-9.93535858 21.96457455-17.25967358H706.18806394v-5.88321818h21.96457456c0.52220897-3.13827404 0.7849873-6.5343062 0.78498729-10.19981073h-10.58979428c-2.09552995 3.13827404-4.70824863 6.2765494-7.84485014 9.41482344-0.52723049-0.52220897-1.31221778-1.43440019-2.35328676-2.74661797a379.06842231 379.06842231 0 0 1-2.35328804-2.35328676c6.27320171-5.22878378 10.84755109-11.76643765 13.72639448-19.61296163z m0.78498729 50.99235962h63.54378458v42.36252219h-7.06153669v-4.3132436h-49.42238503v4.3132436h-7.05986286v-42.36252219z m7.05986286 6.2765494v10.19813689h49.42238503v-10.19813689h-49.42238503z m0 16.08302892v9.80480696h49.42238503v-9.80480696h-49.42238503z m29.81109724-65.11375787h35.69264416v36.08597408h-35.69264416v-36.08597408z m6.66820676 6.27487556v23.92787905h22.35790447v-23.92787905h-22.35790447z" fill="#FFFFFF" p-id="1366"></path><path d="M114.66932953 310.52611803a497.89605149 497.89605149 0 0 0-13.13723589 15.75832376L123.0213241 343.48051212a478.12575945 478.12575945 0 0 0-4.28144327 5.43632803l-53.69880676-41.65285371c6.36190995-8.20135821 12.90458534-16.15332751 19.62132952-23.85758176 10.08599622-10.49271685 20.43477077-11.49026992 30.48227003-3.68391545 9.47340517 9.49516378 9.12191862 19.47738723-0.47534409 30.8036288zM88.39485777 289.47540981a533.78787072 533.78787072 0 0 0-13.12719285 15.78845028l20.95865229 16.77261261a506.65644052 506.65644052 0 0 1 12.44597833-14.9699888c6.81214777-8.19131518 7.12346481-15.2578721 0.64271883-21.62647738-6.42383937-5.36603072-13.50043931-4.16930258-20.9201566 4.03540329zM224.66459852 250.81019251c-15.30473697 9.03153525-29.49308614 6.10582698-43.26634551-10.2466756-13.49541779-18.70076912-12.15139967-35.42651686 4.95428988-48.39637932 17.60111712-10.12951343 32.93932955-5.03128125 45.23467152 13.70463589 10.30525734 19.51755675 7.75781445 33.98374749-6.92261589 44.93841903z m-35.07670415-52.62426233c-11.51035468 9.44662507-12.30203602 22.21898369-2.7566597 37.3998644 11.17393136 13.47700687 22.43991865 16.64206102 34.16451163 10.31697292 10.9663871-8.47585211 12.38070253-20.19040337 3.85129149-36.00228607-10.30190967-14.65532409-22.20392044-18.84471142-35.25914342-11.71455125zM309.87000979 204.59805267l-25.2467922-63.13539011a509.23735759 509.23735759 0 0 1 7.09501215-2.76502889l22.13864464 57.77940114a461.33138692 461.33138692 0 0 1 28.35828612-9.76463618l1.81434071 5.84472251a453.79115977 453.79115977 0 0 0-34.15949142 12.04093153zM452.67070906 104.91138742a550.32113874 550.32113874 0 0 0-22.61733512 42.26042454l2.84536923 27.72058881c-2.17084877 0.21926112-4.34169884 0.45525933-6.51087377 0.70799462l-3.24372065-27.67707161a556.21439996 556.21439996 0 0 0-30.32493832-36.55796921 530.82868699 530.82868699 0 0 1 8.08921626-1.27706848 560.49751706 560.49751706 0 0 1 21.85243385 26.59080901c0.48538583 0.62765429 1.22852977 1.68881062 2.21771366 3.17342335 0.48203946 0.63100196 0.84691541 1.16158013 1.10299968 1.58838553 0.35316039-0.49208118 0.76155487-1.44946473 1.23187744-2.865454 0.69293139-1.21011884 1.12475699-2.05033891 1.28543638-2.525683a575.29343575 575.29343575 0 0 1 14.92981927-30.59441199c3.04621813-0.20921809 6.09411141-0.3883097 9.14200209-0.54396757zM560.04823913 124.15110388a954.21289425 954.21289425 0 0 0-22.40811703 51.72211287 481.91512151 481.91512151 0 0 0-6.224663-0.74816546 1053.21164964 1053.21164964 0 0 0-10.18307364-69.2462373c2.50057673 0.19750253 5.00115475 0.41341598 7.4983838 0.64606521a1149.26628453 1149.26628453 0 0 1 6.56276016 55.36418495c0.31299087 2.31981259 0.27114752 5.05304114-0.11046685 8.19801054l0.28621076 0.03514931c0.2744939-2.24616759 0.98416236-4.89738198 2.15578424-7.95364315a991.3750879 991.3750879 0 0 1 21.9712699-51.85099189c2.4821658 0.37994051 4.96433162 0.77661811 7.4414772 1.19338175a563.37301278 563.37301278 0 0 0-4.85721245 5.40285256c-0.25106146 1.57332226-0.96742529 3.98016925-2.13235309 7.23728061z m6.99291321-12.63511295a1053.99161542 1053.99161542 0 0 1 3.64876745 55.9248909c0.14896382 3.26547926-0.00502151 6.00707571-0.45023782 8.2264632l0.28118925 0.05523406c0.22428263-1.10969375 0.81176741-3.07132441 1.77919268-5.88321817 0.37157132-0.84691541 0.60087548-1.49298193 0.69293009-1.94154591a1115.87504332 1115.87504332 0 0 1 23.97307139-50.47182449c2.56250614 0.58413709 5.12333845 1.18501257 7.67580028 1.80931918a1013.04173483 1013.04173483 0 0 0-32.11417273 62.44245872 483.08506954 483.08506954 0 0 0-6.16273488-1.22685593 990.38757657 990.38757657 0 0 0-4.42873324-55.99853458c0.01338941-2.75331332 0.20252275-5.24384702 0.56572747-7.48332058l-0.32136006-0.05188636a776.25347665 776.25347665 0 0 0-1.93485058-6.49580924c2.2679262 0.35148656 4.53250601 0.71636382 6.7954107 1.0946292zM677.95698174 142.92217034c2.25453678 0.91553889 4.49903054 1.84781616 6.74017662 2.79682921l-26.59248285 62.58472847a424.58595692 424.58595692 0 0 0-5.86648109-2.43530223c8.57460338-20.98041218 17.14753292-41.96417075 25.71878732-62.94625545zM799.30862138 212.68894276c-1.31221778 1.70722154-2.62443427 3.41444307-3.93999974 5.12166462a513.26439171 513.26439171 0 0 0-18.43464311-13.58245218c-11.77145917 16.79939274-23.54291705 33.59878676-35.31772388 50.3981795a436.8729297 436.8729297 0 0 0-5.59031335-3.86635474l34.56286435-50.91871464a510.05582034 510.05582034 0 0 0-19.04388778-12.3489009c1.13145234-1.83275292 2.26123084-3.66550454 3.3893368-5.49993129a516.30726347 516.30726347 0 0 1 44.37436671 30.69650963zM871.54082253 288.53308951c-7.43812953-8.22479066-14.19169555-9.74622523-19.95440516-4.98943787-4.31659257 3.7123694-3.32740739 10.64000683 2.42860688 21.08920517 9.4566681 16.26881587 9.05329515 27.65866068 0.12050985 33.40630576-10.03410983 6.33512983-19.62467721 3.92158751-29.37927164-6.45061948-10.28349876-11.24590252-11.45512061-22.09512743-3.15668625-33.77787707 2.34994037 1.13480002 4.70155329 2.2947063 7.04814598 3.48139271-7.55027019 9.20560534-7.29920874 17.66974189 0.5406199 26.0669275 6.82721231 7.63228436 13.51215487 9.20560534 20.35275789 4.3098972 5.6137458-3.07634592 5.40620154-10.8308127-1.3607565-22.87174554-8.449072-14.88462694-9.48846844-25.00409862-1.98004159-30.99443596 8.91772075-7.33770442 19.12087915-5.71919111 29.99855673 5.73090798 10.1763783 11.76978533 11.00488279 23.09937456 2.89558179 32.91422327a462.07285702 462.07285702 0 0 0-7.05986285-5.06140903c5.81459471-7.9385799 5.67400007-15.70978375-0.49375503-22.85333464z" fill="#FFFFFF" p-id="1367"></path><path d="M478.75102725 392.73887009l20.3176073 61.80810908 65.06187276 0.22595648-52.50542631 38.42252244 19.89414959 61.94702987-52.76820334-38.062668-52.76820464 38.06099545 19.89080192-61.94535732-52.50375118-38.42252244 65.06187148-0.22595648z" fill="#FFFFFF" p-id="1368"></path></svg>