<?xml version="1.0" standalone="no"?><!DOCTYPE svg PUBLIC "-//W3C//DTD SVG 1.1//EN" "http://www.w3.org/Graphics/SVG/1.1/DTD/svg11.dtd"><svg t="1604400500369" class="icon" viewBox="0 0 1024 1024" version="1.1" xmlns="http://www.w3.org/2000/svg" p-id="1177" xmlns:xlink="http://www.w3.org/1999/xlink" width="200" height="200"><defs><style type="text/css"></style></defs><path d="M77.40948002 538.82358855c147.51196679-197.25856463 514.60601863-429.26125507 766.83909091-317.18207636 64.18629205 29.14103076 118.23517825 88.5437113 123.86789316 209.58784202 10.13246919 132.25278909-9.00691353 316.06145733-81.07703178 428.14063602-30.40234422 41.47030814-119.36073391 89.66433028-432.40343125 51.56081581-134.00036235-23.54040406-288.26813137-65.00577552-373.84738579-130.01155106-108.10270901-80.70184657-70.94456259-153.55689181-3.37913525-242.09566643" fill="#F2B500" p-id="1178"></path><path d="M349.91242727 166.72130769c78.82345217-8.96742037 188.0517169 11.20865837 325.42874616 114.32041673 176.78875539 128.89093207 309.66356206 271.23176053 325.42874617 358.65238447 4.50469092 17.92990409 10.13493748 48.18908549-11.26049316 85.17691762-102.47246246 174.84618454-424.52207339 165.87876418-591.17835953 130.01155107-153.1422134-32.50288777-299.52862451-108.71238502-314.16825299-265.62619722-7.88135787-124.40598773 39.4117261-230.8820714 78.82345217-294.76475957 45.04444098-76.21443392 91.2119693-116.56165472 186.92616118-127.7703131" fill="#DB234F" p-id="1179" data-spm-anchor-id="a313x.7781069.0.i0" class="selected"></path><path d="M369.05674668 276.55924837c65.30937939-62.76453753 150.88863374-122.16721805 235.34480082-108.71732165 40.53728175 7.84680134 79.9490078 26.89979276 113.73048734 58.28206147 75.44431687 72.85257691 111.47937601 199.49980262 136.2514736 309.33774334 27.02320892 118.8028927 70.93962596 220.79650035-67.56295897 280.19918089-176.79122367 73.96825924-295.02640194 109.83547233-577.66428677 79.57382259-51.79777489-13.44989637-92.33505662-22.41731674-102.46999415-82.94061623-30.40234422-168.11506557 148.63752244-427.02001701 262.37047813-535.73487041" fill="#0089E0" p-id="1180"></path><path d="M333.02168756 313.54461213c72.06764993-44.83216511 152.01665774-81.81752894 230.84010988-101.99113928 34.90950346 16.81175341 72.06764993 39.22907012 111.47937599 69.48825157 50.67221926 36.98536379 97.9653032 75.09134656 139.63060895 112.07917864 16.89073974 47.07340315 29.27432025 96.38804428 39.41172606 142.34082847 27.02320892 118.8028927 70.93962596 220.79650035-67.56295897 280.19918089-59.6816011 24.65361812-111.47937601 44.82969684-165.53073055 59.39774388-82.20258741 2.24123803-162.15159523-7.84433302-222.95875201-20.17607872-117.10962258-25.77670541-230.84010991-75.09134656-283.76344044-166.99691487 34.90703515-133.37340811 135.12591804-282.43548227 218.45406109-374.34105058" p-id="1181"></path><path d="M498.78444051 116.39218544m-24.06122036 0a24.06122036 24.06122036 0 1 0 48.12244072 0 24.06122036 24.06122036 0 1 0-48.12244072 0Z" fill="#0089E0" p-id="1182"></path><path d="M409.92478382 81.83565228m-24.06122042 0a24.06122036 24.06122036 0 1 0 48.12244077 0 24.06122036 24.06122036 0 1 0-48.12244077 0Z" fill="#DB234F" p-id="1183"></path><path d="M563.68160979 68.272213m-24.06122037 0a24.06122036 24.06122036 0 1 0 48.12244075 0 24.06122036 24.06122036 0 1 0-48.12244075 0Z" fill="#F2B500" p-id="1184"></path><path d="M250.84131503 617.48413136h92.93485927l-2.95952019 21.05233365h-117.62056567l21.22264806-151.01698658h113.99212962l-3.16439109 22.50864468h-89.30395503l-5.61049999 39.93254243h84.22167631l-3.06072152 21.78048917H257.26883018l-6.42751515 45.74297665zM490.55011232 487.52194676h30.4936722l-66.31151883 74.05711887 49.44299398 76.9598677h-31.21442276l-29.98766582-50.09463146c-1.53282907-2.9027488-3.37173033-7.01003963-5.52410863-12.34161902-0.06911305 0.48872813-0.66151078 1.21441532-1.75991486 2.17706159-3.17920107 5.33404772-5.34145269 8.71318301-6.50896988 10.16455743l-46.24898298 50.09463146h-30.49367219l72.53169477-76.9598677-44.777862-74.05711887h30.49367221l26.04328439 47.19435096c0.7602437 1.4513744 1.66858687 3.62843596 2.71021951 6.53365314 1.45384272 3.3914769 2.32516099 5.80796588 2.60901828 7.25934029a63.61857758 63.61857758 0 0 1 10.02879953-14.52114892l38.47376308-46.46619547zM595.83399559 580.45433773h-40.65822962l-8.16274673 58.08212728h-25.41633017l21.22758463-151.01698658h67.52346586c32.70775863 1.45384272 48.22611035 16.70067883 46.56986507 45.74050827-4.83791466 30.98486864-25.20158598 46.72043285-61.08360904 47.19435103z m7.72338516-70.42374627h-38.48116799l-6.83972523 48.64572539h38.48363631c20.80303295 0 32.40662316-8.46141398 34.7885556-25.41139351 1.13296062-15.00000369-8.18002508-22.75054047-27.95129869-23.23433188zM758.04236229 485.34241682c45.57019395 2.90521712 66.61512266 28.80287038 63.13972276 77.68802321-8.52805874 50.34640049-37.34080242 76.23418049-86.43082609 77.6855549-47.10055471-2.42636226-68.1849766-28.06730991-63.23845571-76.96233605 9.42652855-49.84533079 38.26642385-75.98241146 86.52955904-78.41124206z m-21.15600327 135.04446334c32.62877229-1.4513744 51.97796256-20.32664649 58.05744407-56.63075294 2.46832377-34.85026372-11.08771053-53.72553575-40.68538118-56.63075293-31.32056067 2.42883058-50.43526015 21.30657104-57.33422519 56.63075293-3.51242478 35.33899182 9.80418212 54.21673222 39.9621623 56.63075294z" fill="#FCFCFC" p-id="1185"></path></svg>