<?xml version="1.0" standalone="no"?><!DOCTYPE svg PUBLIC "-//W3C//DTD SVG 1.1//EN" "http://www.w3.org/Graphics/SVG/1.1/DTD/svg11.dtd"><svg t="1608268928154" class="icon" viewBox="0 0 1024 1024" version="1.1" xmlns="http://www.w3.org/2000/svg" p-id="1503" xmlns:xlink="http://www.w3.org/1999/xlink" width="200" height="200"><defs><style type="text/css"></style></defs><path d="M630.135 339.843h1.602v0.535h-1.602zM639.196 339.843h0.533v0.535h-0.533zM641.323 339.843h0.533v0.535h-0.533z" p-id="1504"></path><path d="M307.76 394.727c1.601 0 3.196-1.597 3.196-3.196v-12.258h160.388v12.258c0 1.599 1.066 3.196 3.202 3.196h22.907c1.067 0 2.135-0.533 2.135-2.129V372.88c-0.534-10.122-9.061-18.116-19.184-18.116h-72.47v-10.656c0-1.068-1.063-2.663-1.596-2.663H376.5c-1.067 0-1.602 1.594-1.602 2.663v10.656h-72.464c-10.127 0.533-17.587 8.527-18.121 18.116v19.184c0 1.066 1.067 2.129 2.134 2.663h21.313zM166.556 527.408v-35.169h89.52c1.066 0 3.195-1.063 3.195-2.663v-22.914c0-1.596-2.129-2.663-4.264-2.663h-88.451V378.21h82.592c1.063 0 2.663-1.068 2.663-2.135V354.23c0-1.067-1.066-2.663-3.195-2.663H50.395c-3.729 0-3.729 1.596-3.729 3.729v18.116c0 4.263 5.858 3.196 4.797 3.196h80.458v88.458H41.867c-1.597 0-2.663 1.062-2.663 2.662v19.717c0 2.131 1.596 4.259 3.195 4.259h88.985v35.17c0 1.6 1.067 2.662 3.196 2.662h28.776c1.6 0.536 2.667-0.532 3.2-2.128z" p-id="1505"></path><path d="M317.354 437.355c0 25.042 17.583 46.36 41.558 52.221l-1.596 1.065c-8.526 3.196-17.054 5.326-25.576 6.393-14.919 1.067-29.839 0-45.292 0-1.601 0-2.662 2.131-2.662 3.198v19.717c0 1.596 1.062 3.196 2.662 3.196h43.692c21.313-1.068 42.63-7.463 61.279-17.584 19.183 10.121 39.962 16.516 61.808 17.584h42.096c1.603 0 3.197-1.068 3.197-2.663v-19.718c0-1.601 0-3.195-2.663-3.195h-45.292c-8.527-1.602-17.583-3.731-25.576-6.394l-1.6-1.066c23.979-5.865 41.029-27.178 41.029-52.22h37.3V413.91c0-1.067-0.534-1.597-1.597-1.597h-35.17v-18.12c0-1.063-1.066-2.129-2.129-2.663h-28.776c-1.597 0-2.663 2.134-2.663 3.196v14.92h-81.525v-14.92c0-1.597-1.067-3.196-2.663-3.196h-27.71c-1.6 0-2.663 1.067-2.663 2.663v16.521h-36.236c-1.063 0-1.597 1.067-1.597 1.599v23.977h1.067l37.298 1.065z m73.531 0h41.028l-1.066 12.258c-3.197 13.853-28.772 25.042-39.962 25.042-11.19 0-35.704-11.189-39.434-25.042l-1.063-12.258h40.497zM83.43 448.013c1.067 2.135 2.663 3.197 4.797 3.73h29.839c2.129 0 2.663-1.596 1.597-3.73l-26.109-53.286c-1.063-2.129-3.197-3.73-5.859-3.73h-29.84c-2.134 0-2.663 1.601-1.601 3.73l27.176 53.286zM177.746 451.743h29.839c2.663 0 4.797-1.596 5.858-3.73l26.11-53.286c1.067-2.129 0-3.73-1.596-3.73h-29.839c-2.668 0-4.798 1.601-5.865 3.73l-26.109 53.286c-1.061 2.134 0.001 3.73 1.602 3.73z" p-id="1506"></path><path d="M174.857 541.917l-0.567 0.381h-0.381v0.379l-0.38 40.79-36.996-41.359-0.948-0.381H124.96l-0.57 0.381v59.952h11.573l0.38-0.38v-0.757l0.379-40.603c3.225 6.641 26.751 31.684 36.238 41.172 0.567 0.378 1.138 0.946 1.706 0.757h10.625c0.568 0 0.949-0.379 0.949-1.139v-58.813l-1.141-0.381-10.242 0.001zM298.177 541.917h-10.624c-0.38 0-0.95 0.381-1.14 0.76l-29.218 57.486c-0.567 1.707-0.379 3.224 0.76 3.224h9.864c0.949 0 1.898-0.564 2.277-1.327l22.388-44.771 22.957 45.342c0.189 0.379 0.757 0.568 1.138 0.568h10.624c0.568 0 1.329-0.568 1.139-0.948l-29.218-59.572c0.002-0.573-0.568-0.762-0.947-0.762zM391.9 542.298l-0.948-0.381h-9.866l-0.568 0.381-0.38 0.379v40.79l-37.187-41.359-0.758-0.381h-10.625l-0.57 0.381v59.952h11.573l0.38-0.38v-0.757l0.381-40.603c3.224 6.641 26.75 31.684 36.237 41.172 0.567 0.378 1.138 0.946 1.706 0.757H391.9c0.57 0 0.95-0.379 0.95-1.139v-57.864l-0.95-0.948zM240.311 561.647c0 0.76 0.758 1.141 1.328 1.141h10.625c0.76 0 1.519-0.571 1.519-1.327 0-11.576-5.313-20.682-19.354-20.303h-23.716c-9.864 0-19.351 5.882-19.351 16.129v29.974c0.949 9.487 9.297 16.697 18.783 16.126h24.664c9.487 0.948 17.834-6.068 18.593-15.367v-19.73h-32.063v8.919c-0.189 0.567 0.189 0.947 0.57 1.138h18.214c0 3.984 0 7.97-0.381 11.951 0 0.381 0 0.57-0.568 0.57h-34.149s-0.379-0.379-0.379-0.57V553.87s0-0.568 0.379-0.568h34.718v0.568l0.568 7.777zM116.042 543.246c0-0.758-0.568-1.329-1.328-1.329H104.09c-0.758 0-1.328 0.571-1.328 1.329v57.295c0 0.761 0.57 1.329 1.138 1.519h10.624c0.762 0 1.329-0.566 1.329-1.328v-57.484l0.189-0.002zM79.427 541.538H40.152c-0.377 0-0.757 0.379-0.946 0.76v59.004c0 0.378 0.379 0.568 0.946 0.568h11.575c0.568 0 1.14-0.378 1.14-1.139v-17.075h28.836c8.539 0.566 15.937-6.071 16.507-14.608v-11.004c-0.95-9.487-9.107-16.694-18.783-16.506z m4.552 30.166c0 0.758 0 1.14-0.567 1.14H52.106v-20.302H83.22c0.758 0 0.758 0.57 0.758 1.138l0.001 18.024z" p-id="1507"></path><path d="M299.964 585.451h-14.417c-0.949 0-1.706 0.758-1.706 1.705v14.421c0 0.948 0.757 1.896 1.706 1.896h14.417c0.95 0 1.898-0.759 1.898-1.896v-14.421c0.001-0.947-0.948-1.705-1.898-1.705z" p-id="1508"></path><path d="M704.797 345.403h21.885c1.75 0 2.625 1.743 2.625 3.485v112.397h16.633c1.752 0 2.625 0.872 2.625 2.613v18.297c0 1.743-0.873 3.485-2.625 3.485h-16.633v33.979c0 1.743-0.875 3.485-2.625 3.485h-21.885c-1.754 0-2.625-1.742-2.625-3.485V485.68h-57.777c-1.748 0-2.625-1.743-2.625-3.485v-18.297c0-1.741 0.877-2.613 2.625-2.613h57.777V348.888c0-1.742 0.871-3.485 2.625-3.485M835.227 414.235h14.883c1.752 0 2.625 0.872 2.625 2.615v15.682c0 1.743-0.873 3.485-2.625 3.485h-12.256l-10.504 10.455v52.277c0 4.356 0 6.099-1.75 8.713-2.627 5.229-7.004 8.713-10.506 11.324-2.627 0.872-4.377 1.744-7.002 1.744h-29.765c-1.752 0-2.627-0.872-2.627-2.613V498.75c0-0.872 0.875-2.615 2.627-2.615h21.884v-27.881c-3.5 0.872-7.002 1.743-8.752 1.743h-17.507c-1.754 0-3.504-0.871-3.504-2.614V451.7c0-1.742 1.75-3.484 3.504-3.484h14.88l11.379-9.583v-43.565H775.7c-0.875 0-2.625-0.872-2.625-2.615v-18.297c0-1.743 1.75-2.614 2.625-2.614h24.511v-22.653c0-0.872 0.875-2.614 2.629-2.614h21.883c1.752 0 2.627 1.742 2.627 2.614v22.653h21.008c1.752 0 2.627 0.872 2.627 2.614v18.297c0 1.743-0.875 2.615-2.627 2.615H827.35v20.911c2.625-0.873 6.127-1.744 7.877-1.744M889.502 436.018l34.136 31.364 35.891-31.364h-70.027l-20.136-21.783h40.269v-22.654h-42.019c-1.752 0-3.502-1.743-3.502-2.613v-19.169c0-0.87 1.75-2.613 3.502-2.613h42.019v-18.297c0-0.872 1.75-2.614 3.502-2.614h21.883c1.752 0 2.627 1.742 2.627 2.614v18.297h48.146c1.752 0 2.627 1.743 2.627 2.613v19.169c0 0.87-0.875 2.613-2.627 2.613h-48.146v21.783h47.271l0.873 0.871v27.88c0 0.872 0 2.614-0.873 4.356l-40.269 38.337 14.006 11.326h29.763c2.627 1.743 2.627 3.486 2.627 5.229v17.424c0 2.615 0 2.615-2.627 2.615H956.03c-6.127 0-7.879 0-13.131-4.355-6.129-5.228-15.758-13.069-19.262-16.556-13.129 12.2-22.76 19.168-28.01 19.168l-35.892 0.872c-0.877-0.872-1.75-1.744-1.75-1.744v-20.909s0.873-0.872 1.75-0.872h9.629l21.011-0.872 14.881-12.197-38.517-34.852c-0.877-0.871-0.877-1.742-1.752-2.613v-30.494s0.875-1.743 3.502-1.743h0.876M603.252 353.245c1.752-0.872 3.502-1.743 7.004-6.1h24.51c6.127 0-3.502 29.624-30.637 29.624h-8.754v26.139h35.889c0.877 0 2.629 0.872 2.629 2.614v18.296c0 1.742-1.752 2.614-2.629 2.614h-35.889v93.227c0 1.743-1.753 3.486-3.505 3.486h-21.883c-1.75 0-2.627-1.743-2.627-3.486v-93.227h-37.643c-1.748 0-3.5-0.872-3.5-2.614v-18.296c0-1.743 1.752-2.614 3.5-2.614h37.643V376.77h-35.016c-1.75 0-2.627-0.871-2.627-2.614V355.86c0-1.743 0.877-2.614 2.627-2.614l70.908-0.001" p-id="1509"></path><path d="M527.971 521.402h18.383c1.75 0 3.5-0.871 3.5-2.615l11.381-79.283c0-0.872-0.875-2.615-2.625-2.615h-18.385c-1.75 0-3.502 1.743-3.502 2.615l-11.379 79.283c0 1.744 0.875 2.615 2.627 2.615M631.264 521.402h-18.383c-1.75 0-3.5-0.871-3.5-2.615l-11.384-79.283c0-0.872 0.878-2.615 2.63-2.615h18.381c1.75 0 3.504 1.743 3.504 2.615l11.381 79.283c0 1.744-0.879 2.615-2.629 2.615M645.272 404.651h21.885c1.75 0 3.5 0.871 4.377 2.614l14.881 32.238c0.875 1.74 0 2.611-1.752 2.611H662.78c-1.752 0-3.502-0.871-4.377-2.611l-14.885-32.238c-0.871-1.743 0-2.614 1.754-2.614M645.272 348.017h21.885c1.75 0 3.5 1.743 4.377 2.614l14.881 32.238c0.875 1.742 0 3.484-1.752 3.484H662.78c-1.752 0-3.502-1.742-4.377-3.484l-14.885-32.238c-0.871-0.871 0-2.614 1.754-2.614" p-id="1510"></path><path d="M462.595 552.608h-19.554v46.688h-13.58v-46.688h-19.557v-10.692h52.689l0.002 10.692zM515.937 599.296H468.95v-57.38h46.172v10.692h-32.591v12.259h30.418v10.692h-30.418v13.563h33.405l0.001 10.174zM573.754 558.607l-13.036 2.869c-1.812-5.909-5.978-9.041-12.494-9.392-9.234 0.521-14.123 6.697-14.665 18.52 0.357 11.996 5.247 18.347 14.665 19.039 7.423-0.171 11.77-4.434 13.037-12.779l13.037 3.913c-3.08 13.04-11.771 19.561-26.074 19.561-18.469-0.873-28.156-10.778-29.063-29.731 0.905-18.604 10.594-28.431 29.063-29.474 13.037 0.349 21.544 6.175 25.53 17.474zM632.657 599.296h-13.58v-23.215h-26.07v23.215h-13.58v-57.38h13.58v22.951h26.07v-22.951h13.58v57.38zM693.194 599.296h-13.853l-23.628-35.994c-1.088-1.734-2.174-3.476-3.261-5.217 0.179 2.436 0.272 5.653 0.272 9.651v31.56H639.96v-57.38h14.666l22.813 35.21c0.177 0.352 0.451 0.781 0.814 1.303 1.265 1.917 2.08 3.393 2.442 4.436v-0.263c-0.183-1.91-0.27-4.779-0.27-8.604v-32.08h12.766v57.379h0.003zM758.615 570.866c-1.086 18.606-10.955 28.43-29.604 29.472-18.832-1.042-28.789-10.864-29.876-29.472 0.904-19.126 10.865-29.037 29.876-29.733 18.47 1.043 28.334 10.953 29.604 29.733z m-14.938 0c-0.365-11.998-5.343-18.258-14.939-18.78-9.773 0.522-14.937 6.782-15.479 18.78 0.358 11.826 5.432 17.997 15.209 18.518 9.956-0.171 15.027-6.345 15.209-18.518zM808.556 599.296h-44.27v-57.38h13.576v47.206h30.692l0.002 10.174zM871.805 570.866c-1.086 18.606-10.956 28.43-29.604 29.472-18.832-1.042-28.788-10.864-29.874-29.472 0.903-19.126 10.864-29.037 29.874-29.733 18.471 1.043 28.335 10.953 29.604 29.733z m-14.937 0c-0.366-11.998-5.346-18.258-14.939-18.78-9.777 0.522-14.938 6.782-15.479 18.78 0.36 11.826 5.431 17.997 15.209 18.518 9.955-0.171 15.026-6.345 15.209-18.518zM931.796 555.478l-12.493 4.436c-2.898-5.217-7.876-7.826-14.938-7.826-9.058 0.874-13.944 7.043-14.666 18.521 0.359 11.825 5.608 18.172 15.754 19.039 7.06 0 11.855-1.998 14.393-5.999v-7.042h-17.65v-10.434h30.146v21.388c-4.167 8.346-13.307 12.604-27.432 12.779-18.834-0.873-28.699-10.777-29.605-29.731 0.906-18.604 10.5-28.431 28.791-29.474 13.577-0.002 22.811 4.782 27.7 14.343zM995.045 541.916l-23.9 34.688v22.691h-13.579v-22.432l-23.63-34.948h15.482l11.948 19.041c0.724 0.869 1.632 2.26 2.716 4.171 0.36 0.696 0.632 1.218 0.813 1.564 0.544-0.868 1.266-2.086 2.175-3.65 0.543-0.868 0.903-1.476 1.085-1.826l11.138-19.3h15.752v0.001z" p-id="1511"></path></svg>