<?xml version="1.0" standalone="no"?><!DOCTYPE svg PUBLIC "-//W3C//DTD SVG 1.1//EN" "http://www.w3.org/Graphics/SVG/1.1/DTD/svg11.dtd"><svg t="1614410407137" class="icon" viewBox="0 0 1024 1024" version="1.1" xmlns="http://www.w3.org/2000/svg" p-id="2073" xmlns:xlink="http://www.w3.org/1999/xlink" width="200" height="200"><defs><style type="text/css"></style></defs><path d="M784.849455 425.704727c40.029091 0 72.471273 32.442182 72.471272 72.471273v338.152727c0 40.029091-32.442182 72.471273-72.471272 72.471273H253.486545c-40.029091 0-72.471273-32.442182-72.471272-72.471273v-338.152727c0-40.029091 32.442182-72.471273 72.471272-72.471273h531.36291m0-72.471272H253.486545a144.942545 144.942545 0 0 0-144.942545 144.942545v338.152727-0.046545a144.942545 144.942545 0 0 0 144.896 144.942545h531.409455a144.942545 144.942545 0 0 0 144.942545-144.896v-338.152727a144.942545 144.942545 0 0 0-144.942545-144.942545zM519.168 87.505455a169.053091 169.053091 0 0 1 169.053091 169.05309V353.28H350.161455V256.605091a169.053091 169.053091 0 0 1 169.05309-169.006546m0-72.471272a241.570909 241.570909 0 0 0-241.570909 241.477818v169.099636h483.141819V256.651636a241.570909 241.570909 0 0 0-241.57091-241.570909h-0.09309 0.09309z m0 760.832a36.212364 36.212364 0 0 1-36.212363-36.212364v-144.989091a36.212364 36.212364 0 0 1 72.378182 0v144.942546c0 20.014545-16.197818 36.212364-36.165819 36.212363z" fill="#4A4A4A" p-id="2074"></path></svg>