<?xml version="1.0" standalone="no"?><!DOCTYPE svg PUBLIC "-//W3C//DTD SVG 1.1//EN" "http://www.w3.org/Graphics/SVG/1.1/DTD/svg11.dtd"><svg t="1607422601895" class="icon" viewBox="0 0 1024 1024" version="1.1" xmlns="http://www.w3.org/2000/svg" p-id="5298" xmlns:xlink="http://www.w3.org/1999/xlink" width="200" height="200"><defs><style type="text/css"></style></defs><path d="M204.8 332.8h614.4l153.6 294.4H51.2z" fill="#EBEEF5" p-id="5299"></path><path d="M238.9376 486.4h546.1248L921.6 806.4H102.4z" fill="#F2F6FC" p-id="5300"></path><path d="M972.8 627.2v281.6H51.2V627.2h283.4176c12.416 86.848 87.104 153.6 177.3824 153.6 90.2784 0 164.9664-66.752 177.3824-153.6H972.8z" fill="#E4E7ED" p-id="5301"></path><path d="M960 345.6a12.8 12.8 0 0 1 0 25.6h-76.8a12.8 12.8 0 0 1 0-25.6h76.8z m14.848-155.3152a12.8 12.8 0 0 1-4.6848 17.4848l-88.6784 51.2a12.8 12.8 0 0 1-12.8-22.1696l88.6784-51.2a12.8 12.8 0 0 1 17.4848 4.6848zM780.8 115.2a12.8 12.8 0 0 1 12.8 12.8v76.8a12.8 12.8 0 0 1-25.6 0v-76.8a12.8 12.8 0 0 1 12.8-12.8z" fill="#CAE4FF" p-id="5302"></path></svg>