<?xml version="1.0" standalone="no"?><!DOCTYPE svg PUBLIC "-//W3C//DTD SVG 1.1//EN" "http://www.w3.org/Graphics/SVG/1.1/DTD/svg11.dtd"><svg t="1601823463344" class="icon" viewBox="0 0 1024 1024" version="1.1" xmlns="http://www.w3.org/2000/svg" p-id="10012" xmlns:xlink="http://www.w3.org/1999/xlink" width="200" height="200"><defs><style type="text/css"></style></defs><path d="M688.839111 248.263111a42.638222 42.638222 0 0 1 45.056-72.419555l3.612445 2.332444C858.311111 253.525333 938.666667 387.612444 938.666667 540.444444c0 235.633778-191.032889 426.666667-426.666667 426.666667-235.633778 0-426.666667-191.032889-426.666667-426.666667 0-152.661333 80.156444-286.577778 200.704-361.984l0.085334 0.170667a42.666667 42.666667 0 0 1 43.235555 73.386667A341.077333 341.077333 0 0 0 170.666667 540.444444c0 188.501333 152.832 341.333333 341.333333 341.333334s341.333333-152.832 341.333333-341.333334c0-123.790222-65.905778-232.220444-164.551111-292.039111l0.056889-0.142222zM497.777778 56.888889h28.444444a28.444444 28.444444 0 0 1 28.444445 28.444444v312.888889a28.444444 28.444444 0 0 1-28.444445 28.444445h-28.444444a28.444444 28.444444 0 0 1-28.444445-28.444445V85.333333a28.444444 28.444444 0 0 1 28.444445-28.444444z" p-id="10013"></path></svg>