<?xml version="1.0" standalone="no"?><!DOCTYPE svg PUBLIC "-//W3C//DTD SVG 1.1//EN" "http://www.w3.org/Graphics/SVG/1.1/DTD/svg11.dtd"><svg t="1601724201206" class="icon" viewBox="0 0 1024 1024" version="1.1" xmlns="http://www.w3.org/2000/svg" p-id="7776" xmlns:xlink="http://www.w3.org/1999/xlink" width="200" height="200"><defs><style type="text/css"></style></defs><path d="M942.20288 486.1952C847.40096 286.5152 704.1024 185.99936 512 185.99936c-192.2048 0-335.40096 100.5056-430.20288 300.29824a60.29312 60.29312 0 0 0 0 51.5072C176.59904 737.4848 319.8976 838.00064 512 838.00064c192.2048 0 335.40096-100.5056 430.20288-300.29824a60.29312 60.29312 0 0 0 0-51.5072zM512 766.0032c-161.30048 0-279.3984-81.80736-362.7008-254.0032C232.6016 339.80416 350.69952 257.9968 512 257.9968c161.30048 0 279.3984 81.80736 362.7008 254.0032C791.5008 684.19584 673.40288 766.0032 512 766.0032z m-3.9936-430.00832c-97.20832 0-176.00512 78.80704-176.00512 176.00512 0 97.19808 78.7968 176.00512 175.99488 176.00512 97.20832 0 176.00512-78.80704 176.00512-176.00512 0-97.19808-78.7968-176.00512-176.00512-176.00512z m0 288.01024A111.94368 111.94368 0 0 1 395.99104 512a111.94368 111.94368 0 0 1 111.99488-112.00512A111.94368 111.94368 0 0 1 620.00128 512a111.94368 111.94368 0 0 1-112.00512 112.00512z" p-id="7777"></path></svg>