<?xml version="1.0" standalone="no"?><!DOCTYPE svg PUBLIC "-//W3C//DTD SVG 1.1//EN" "http://www.w3.org/Graphics/SVG/1.1/DTD/svg11.dtd"><svg t="1614410358838" class="icon" viewBox="0 0 1024 1024" version="1.1" xmlns="http://www.w3.org/2000/svg" p-id="1612" xmlns:xlink="http://www.w3.org/1999/xlink" width="200" height="200"><defs><style type="text/css"></style></defs><path d="M782 118.25H242C208.25 118.25 174.5 152 174.5 185.75v646.875c0 39.375 33.75 73.125 67.5 73.125h534.375c39.375 0 67.5-33.75 67.5-67.5V185.75c5.625-33.75-28.125-67.5-61.875-67.5z m11.25 720c0 5.625-5.625 11.25-11.25 11.25H242c-5.625 0-11.25-5.625-11.25-11.25v-140.625h562.5v140.625z m0-196.875H230.75V185.75c0-5.625 5.625-11.25 11.25-11.25h534.375c11.25 0 16.875 5.625 16.875 11.25v455.625z" fill="#2c2c2c" p-id="1613"></path><path d="M512 776.375m-39.375 0a39.375 39.375 0 1 0 78.75 0 39.375 39.375 0 1 0-78.75 0Z" fill="#2c2c2c" p-id="1614"></path></svg>