<?xml version="1.0" standalone="no"?><!DOCTYPE svg PUBLIC "-//W3C//DTD SVG 1.1//EN" "http://www.w3.org/Graphics/SVG/1.1/DTD/svg11.dtd"><svg t="1604413476608" class="icon" viewBox="0 0 1219 1024" version="1.1" xmlns="http://www.w3.org/2000/svg" p-id="3750" xmlns:xlink="http://www.w3.org/1999/xlink" width="238.0859375" height="200"><defs><style type="text/css"></style></defs><path d="M640.17 625.469L385.025 301.251 85.748 807.863V82.603h920.6v335.725c28.794 4.95 56.271 13.58 82.018 25.454V42.18a41.545 41.545 0 0 0-42.57-41.52H42.18C19.261 0.658 0.659 19.236 0.659 42.178v879.202a41.545 41.545 0 0 0 42.593 41.52h656.481a328.387 328.387 0 0 1-81.822-217.478v-0.463c0-42.13 7.9-82.408 22.21-119.467h0.05z" p-id="3751"></path><path d="M999.838 647.802v0.292l-0.048 0.122-0.073 0.293v0.293l-0.098 0.219s-32.841 152.698-32.841 152.99c0 0 2.243-11.483 0 0-2.268 11.557-8.046 17.872-17.871 17.872-9.85 0-15.019-7.315-18.091-19.14-3.048-11.849-32.012-148.357-32.012-148.48l-0.025-0.121v-0.122l-0.097-0.293v-0.195l-0.049-0.17-0.024-0.22v-0.17l-0.098-0.098-0.024-0.293v-0.17l-0.098-0.195-0.048-0.293v-0.244l-0.122-0.244v-0.243l-0.025-0.195-0.048-0.171v-0.195l-0.05-0.098-0.072-0.292v-0.195l-0.05-0.22a51.98 51.98 0 0 1 50.884-62.537h0.097a51.98 51.98 0 0 1 50.81 62.903l0.073-0.366z m-50.956 288.865a38.814 38.814 0 0 1-0.073-77.629h0.049a38.814 38.814 0 0 1 0.049 77.63z m0.854-460.702h-0.122c-148.578 0-269.044 120.417-269.117 268.97 0.073 148.578 120.54 269.02 269.117 269.02h0.244c148.601 0 269.043-120.442 269.116-268.995-0.073-148.578-120.515-268.995-269.116-268.995h-0.122z" p-id="3752"></path></svg>