<?xml version="1.0" standalone="no"?><!DOCTYPE svg PUBLIC "-//W3C//DTD SVG 1.1//EN" "http://www.w3.org/Graphics/SVG/1.1/DTD/svg11.dtd"><svg t="1603641128708" class="icon" viewBox="0 0 1024 1024" version="1.1" xmlns="http://www.w3.org/2000/svg" p-id="25270" xmlns:xlink="http://www.w3.org/1999/xlink" width="200" height="200"><defs><style type="text/css"></style></defs><path d="M282.101 444.434l34.666-57.332 463.02 279.966-34.666 57.331zM299.4 779.6c-5.8 0-11.6-1.5-16.9-4.6-16-9.4-21.3-29.9-11.9-45.8l80.9-138c9.4-16 29.9-21.3 45.8-11.9 16 9.4 21.3 29.9 11.9 45.8l-80.9 138c-6.2 10.6-17.4 16.5-28.9 16.5zM464.9 867.2c-5.8 0-11.6-1.5-16.9-4.6-16-9.4-21.3-29.9-11.9-45.8l74.9-130c9.4-16 29.9-21.3 45.8-11.9 16 9.4 21.3 29.9 11.9 45.8l-74.9 130c-6.3 10.6-17.4 16.5-28.9 16.5z" p-id="25271"></path><path d="M592.7 954.3c-15.4 0-31.1-4.2-45.1-13L161 698.9c-19.2-12-32.6-30.9-37.7-53.1s-1.3-45 10.8-64.2L309.4 302c24.9-39.8 77.5-51.8 117.3-26.9l131.1 82.2c15.7 9.8 20.4 30.5 10.6 46.1s-30.5 20.4-46.2 10.6l-131-82.2c-8.3-5.2-19.8-2.6-25 5.8L190.9 617.2c-3.4 5.5-2.9 10.9-2.3 13.7 0.6 2.8 2.5 7.9 8 11.3l386.6 242.4c8.3 5.2 19.8 2.6 25-5.7l175.3-279.6c3.4-5.5 2.9-10.9 2.3-13.7-0.6-2.7-2.5-7.9-8-11.3L654.7 497c-15.7-9.8-20.4-30.5-10.6-46.1 9.8-15.7 30.5-20.4 46.2-10.6l123.1 77.2c19.2 12 32.6 30.9 37.7 53.1 5.1 22.2 1.3 45-10.8 64.2L665 914.4c-16.2 25.8-43.9 39.9-72.3 39.9z" p-id="25272"></path><path d="M672.9 501.2c-6.1 0-12.2-1.7-17.8-5.1-15.7-9.8-20.4-30.5-10.6-46.1l149.7-238.8c6.3-10 8.3-22 5.6-33.7-2.7-11.7-9.7-21.6-19.7-27.9-10-6.3-22-8.3-33.7-5.6-11.7 2.7-21.6 9.7-27.9 19.7L571.2 399c-0.9 1.9-2 3.8-3.3 5.5-10.9 15-31.8 18.3-46.8 7.4-14.8-10.7-18.3-31.7-7.8-46.6l148.6-237.2c15.8-25.2 40.5-42.7 69.6-49.4 29.1-6.7 59-1.7 84.2 14.1 52.1 32.7 68 101.7 35.3 153.8L701.4 485.5c-6.4 10.1-17.3 15.7-28.5 15.7z" p-id="25273"></path></svg>