<?xml version="1.0" standalone="no"?><!DOCTYPE svg PUBLIC "-//W3C//DTD SVG 1.1//EN" "http://www.w3.org/Graphics/SVG/1.1/DTD/svg11.dtd"><svg t="1603645664786"  viewBox="0 0 1024 1024" version="1.1" xmlns="http://www.w3.org/2000/svg" p-id="1568" xmlns:xlink="http://www.w3.org/1999/xlink" width="200" height="200"><path d="M887.00000029 153.16666667H624.5c-20.62500029 0-37.50000029-16.875-37.50000029-37.50000029s16.875-37.50000029 37.50000029-37.49999942h262.50000029c20.62500029 0 37.50000029 16.875 37.49999942 37.49999942s-16.875 37.50000029-37.49999942 37.50000029M399.5 153.16666667H136.99999971c-20.62500029 0-37.50000029-16.875-37.49999942-37.50000029s16.875-37.50000029 37.49999942-37.49999942h262.50000029c20.62500029 0 37.50000029 16.875 37.50000029 37.49999942s-16.875 37.50000029-37.50000029 37.50000029"   p-id="1569"></path><path d="M849.5 378.16666667V115.66666638c0-20.62500029 16.875-37.50000029 37.50000029-37.49999942s37.50000029 16.875 37.49999942 37.49999942v262.50000029c0 20.62500029-16.875 37.50000029-37.49999942 37.50000029s-37.50000029-16.875-37.50000029-37.50000029M99.50000029 378.16666667V115.66666638c0-20.62500029 16.875-37.50000029 37.49999942-37.49999942s37.50000029 16.875 37.50000029 37.49999942v262.50000029c0 20.62500029-16.875 37.50000029-37.50000029 37.50000029s-37.50000029-16.875-37.49999942-37.50000029M136.99999971 828.16666667h262.50000029c20.62500029 0 37.50000029 16.875 37.50000029 37.50000029s-16.875 37.50000029-37.50000029 37.49999942H136.99999971c-20.62500029 0-37.50000029-16.875-37.49999942-37.49999942s16.875-37.50000029 37.49999942-37.50000029M624.5 828.16666667h262.50000029c20.62500029 0 37.50000029 16.875 37.49999942 37.50000029s-16.875 37.50000029-37.49999942 37.49999942H624.5c-20.62500029 0-37.50000029-16.875-37.50000029-37.49999942s16.875-37.50000029 37.50000029-37.50000029"   p-id="1570"></path><path d="M174.5 865.66666696c0 20.62500029-16.875 37.50000029-37.50000029 37.49999942s-37.50000029-16.875-37.49999942-37.49999942V603.16666667c0-20.62500029 16.875-37.50000029 37.49999942-37.50000029s37.50000029 16.875 37.50000029 37.50000029v262.50000029zM924.49999971 865.66666696c0 20.62500029-16.875 37.50000029-37.49999942 37.49999942s-37.50000029-16.875-37.50000029-37.49999942V603.16666667c0-20.62500029 16.875-37.50000029 37.50000029-37.50000029s37.50000029 16.875 37.49999942 37.50000029v262.50000029zM860.51750029 89.11666638c14.58749971-14.58749971 38.475-14.58749971 53.06249971 0 14.55000029 14.58749971 14.55000029 38.43749971 0 53.02500029L661.99249971 393.69166667a37.5975 37.5975 0 0 1-53.02499942 0 37.5975 37.5975 0 0 1 0-53.02500029l251.55-251.55z"   p-id="1571"></path><path d="M361.98500029 587.64166667c14.59500029-14.58749971 38.475-14.58749971 53.06999942 0 14.55000029 14.58749971 14.55000029 38.43749971 0 53.02500029l-251.58749942 251.55a37.5975 37.5975 0 0 1-53.02500029 0 37.5975 37.5975 0 0 1 0-53.02500029l251.55-251.55z"   p-id="1572"></path></svg>
