<?xml version="1.0" standalone="no"?><!DOCTYPE svg PUBLIC "-//W3C//DTD SVG 1.1//EN" "http://www.w3.org/Graphics/SVG/1.1/DTD/svg11.dtd"><svg t="1603519369016" class="icon" viewBox="0 0 1024 1024" version="1.1" xmlns="http://www.w3.org/2000/svg" p-id="7200" xmlns:xlink="http://www.w3.org/1999/xlink" width="200" height="200"><defs><style type="text/css"></style></defs><path d="M881.536 134.912L514.432 0.896 512 0 144 134.4c-28.672 3.712-50.304 28.288-50.304 57.216V677.12c0 34.432 68.352 118.784 131.712 177.408 76.288 70.656 244.864 151.168 279.04 167.168 1.92 0.768 3.712 1.408 5.76 1.92l2.048 0.384 1.792-0.512c1.792-0.512 3.712-1.024 5.632-1.92 1.92-0.896 195.328-89.6 278.912-167.04 63.36-58.496 131.712-143.104 131.712-177.408V191.744c0-28.8-21.632-53.376-48.768-56.832z m-25.984 536.704c-6.656 13.312-39.552 65.152-107.648 128.128-57.344 52.992-182.528 116.736-233.472 141.568L512 942.336l-2.048-0.896c-51.2-24.96-176.384-88.576-233.728-141.696-68.096-62.976-100.992-114.816-107.648-128.128v-466.56L512 79.744l343.552 125.312v466.56z" p-id="7201"></path><path d="M370.048 385.536c0 66.048 45.312 121.472 106.496 137.216v236.032c0 17.792 15.872 32.384 35.456 32.384 19.584 0 35.456-14.464 35.456-32.384V654.976H620.8c17.792 0 32.256-15.872 32.256-35.456 0-19.584-14.464-35.456-32.256-35.456h-73.344v-61.312c61.056-15.744 106.496-71.296 106.496-137.216 0-78.336-63.616-141.952-141.952-141.952-78.336-0.128-141.952 63.744-141.952 141.952z m223.104 0c0 44.672-36.352 81.152-81.152 81.152-44.672 0-81.152-36.352-81.152-81.152 0-44.672 36.352-81.152 81.152-81.152 44.672 0.128 81.152 36.48 81.152 81.152z" p-id="7202"></path></svg>