<?xml version="1.0" standalone="no"?><!DOCTYPE svg PUBLIC "-//W3C//DTD SVG 1.1//EN" "http://www.w3.org/Graphics/SVG/1.1/DTD/svg11.dtd"><svg t="1614347389669" class="icon" viewBox="0 0 1088 1024" version="1.1" xmlns="http://www.w3.org/2000/svg" p-id="6127" xmlns:xlink="http://www.w3.org/1999/xlink" width="212.5" height="200"><defs><style type="text/css"></style></defs><path d="M512 793.6C298.688 638.272 192 501.76 192 384a320 320 0 1 1 640 0c0 117.76-106.688 254.336-320 409.6zM256 384c0 85.44 83.328 197.76 256 329.728C684.672 581.76 768 469.44 768 384a256 256 0 1 0-512 0z m256 128a128 128 0 1 1 0-256 128 128 0 0 1 0 256z m0-64a64 64 0 1 0 0-128 64 64 0 0 0 0 128z m-160 384h320a32 32 0 1 1 0 64h-320a32 32 0 1 1 0-64z m428.992-192c18.56 0 33.664 14.336 33.664 32s-15.04 32-33.664 32a32.832 32.832 0 0 1-33.6-32c0-17.664 15.04-32 33.6-32h86.08c28.928 0 54.656 17.6 63.808 43.776l89.6 256c11.776 33.536-7.232 69.76-42.496 80.96a70.4 70.4 0 0 1-21.248 3.264H67.2C30.08 1024 0 995.328 0 960c0-6.848 1.152-13.696 3.456-20.224l89.664-256C102.272 657.6 128 640 156.928 640h86.016c18.56 0 33.664 14.336 33.664 32s-15.04 32-33.664 32h538.048v-64z m-624.064 64l-89.664 256h889.472l-89.664-256H156.928z"cc p-id="6128"></path></svg>
