<?xml version="1.0" standalone="no"?><!DOCTYPE svg PUBLIC "-//W3C//DTD SVG 1.1//EN" "http://www.w3.org/Graphics/SVG/1.1/DTD/svg11.dtd"><svg t="1600939080806" class="icon" viewBox="0 0 1024 1024" version="1.1" xmlns="http://www.w3.org/2000/svg" p-id="1375" xmlns:xlink="http://www.w3.org/1999/xlink" width="200" height="200"><defs><style type="text/css"></style></defs><path d="M870.09936523 120.94165039H153.90063477c-22.49450684 0-40.78674317 18.29223633-40.78674316 40.78674317V852.30151367c0 22.49450684 18.29223633 40.78674317 40.78674316 40.78674317h716.19873046c22.49450684 0 40.78674317-18.29223633 40.78674316-40.78674317V161.72839355c0-22.49450684-18.29223633-40.78674317-40.78674316-40.78674316z m-21.83532715 62.62207031v646.90246583H175.73596191V183.5637207h672.52807617z" p-id="1376"></path><path d="M341.43725586 548.83166503v196.76513672c0 17.55065918 14.00756836 31.80541991 31.31103516 31.80541992s31.31103516-14.25476075 31.31103515-31.80541991V548.83166503c18.45703125-5.43823242 35.18371583-15.57312012 48.44970704-29.58068848 18.62182617-19.6105957 28.92150879-45.15380859 28.9215088-71.93298339 0-26.61437989-10.21728516-52.07519531-28.75671388-71.76818847-13.34838867-14.08996583-30.1574707-24.30725098-48.69689942-29.74548341v-77.78320311c0-17.30346679-14.00756836-31.31103516-31.31103516-31.31103516s-31.31103516 14.00756836-31.31103516 31.31103516v77.78320312c-18.53942873 5.43823242-35.34851075 15.65551758-48.69689941 29.7454834-18.53942873 19.6105957-28.75671387 45.07141114-28.75671387 71.76818848 0 26.69677734 10.29968262 52.23999023 28.9215088 71.9329834 13.43078614 14.00756836 30.1574707 24.14245606 48.61450195 29.58068846z m-14.83154297-101.51367187c0-23.89526367 20.6817627-43.34106445 46.06018067-43.34106445s46.06018067 19.44580078 46.06018066 43.34106445-20.6817627 43.34106445-46.06018067 43.34106445-46.06018067-19.44580078-46.06018066-43.34106445zM619.94067383 668.3079834V746.00878906c0 17.30346679 14.00756836 31.31103516 31.31103515 31.31103516s31.31103516-14.00756836 31.31103516-31.31103516v-77.70080567c18.53942873-5.43823242 35.34851075-15.65551758 48.69689942-29.74548339 18.53942873-19.6105957 28.75671387-45.07141114 28.75671386-71.76818848 0-26.69677734-10.21728516-52.15759278-28.75671386-71.76818847-13.34838867-14.08996583-30.1574707-24.30725098-48.61450195-29.74548341V268.51550292c0-17.55065918-14.00756836-31.80541991-31.31103516-31.80541991s-31.31103516 14.25476075-31.31103516 31.80541992v196.76513671c-18.45703125 5.43823242-35.26611328 15.65551758-48.61450195 29.74548341-18.53942873 19.6105957-28.75671387 45.15380859-28.75671387 71.76818848s10.21728516 52.07519531 28.75671387 71.76818847c13.26599122 14.08996583 30.07507325 24.30725098 48.53210449 29.7454834z m-14.74914551-101.51367188c0-23.89526367 20.6817627-43.34106445 46.06018066-43.34106445 25.37841797 0 46.06018067 19.44580078 46.06018067 43.34106445s-20.6817627 43.34106445-46.06018067 43.34106445c-25.37841797 0-46.06018067-19.44580078-46.06018065-43.34106445z" p-id="1377"></path></svg>