<?xml version="1.0" standalone="no"?><!DOCTYPE svg PUBLIC "-//W3C//DTD SVG 1.1//EN" "http://www.w3.org/Graphics/SVG/1.1/DTD/svg11.dtd"><svg class="icon" width="200px" height="200.00px" viewBox="0 0 1024 1024" version="1.1" xmlns="http://www.w3.org/2000/svg"><path  d="M512.75 332c24.09375001 0 47.4375 4.78125001 69.5625 14.15625001 21.375 9.09375001 40.59375001 22.125 57.1875 38.62499998 16.59375001 16.59375001 29.53125001 35.8125 38.625 57.1875 9.375 22.03125001 14.15625001 45.46875001 14.15625001 69.56250002v240.28124999H332.09374999V512.5625c0-24.1875 4.78125001-47.8125 14.25000002-69.9375 9.09375001-21.46875001 22.21875001-40.875 38.90624999-57.5625 16.6875-16.6875 36-29.71875001 57.5625-38.90625001 22.125-9.375 45.65625001-14.15625001 69.9375-14.15624999m0-60c-132.375 0-240.65625001 108.28125001-240.65625001 240.65625001v287.90624999c0 6.1875 5.0625 11.25 11.25000002 11.25h457.59374999c6.1875 0 11.25-5.0625 11.25-11.25V511.4375c0-131.71875001-107.71875001-239.4375-239.4375-239.4375zM129.21874999 409.0625c-14.15625001 0-26.8125 10.125-29.53124999 24.46875001-3.09375001 16.21875001 7.6875 32.0625 23.90625001 35.15624999l58.40624999 11.0625c1.875 0.375 3.75 0.5625 5.625 0.5625 14.15625001 0 26.8125-10.125 29.53125001-24.46875001 3.09375001-16.21875001-7.6875-32.0625-23.90625001-35.15624999l-58.40625001-11.0625c-1.875-0.375-3.75-0.5625-5.625-0.5625z m133.87500002-226.875c-6.75 0-13.59375001 2.25-19.21875001 6.9375-12.75 10.59375001-14.4375 29.625-3.84374999 42.28125001l38.0625 45.75c5.90625001 7.125 14.53125001 10.78125001 23.15624999 10.78124999 6.75 0 13.59375001-2.25 19.21875001-6.9375 12.75-10.59375001 14.4375-29.625 3.84374999-42.28125001l-38.0625-45.75c-5.90625001-7.125-14.4375-10.78125001-23.15624999-10.78124999z m247.78124999-89.90625001h-0.09375001c-16.5 0.09375001-30 13.6875-29.90624999 30.18750002l0.28125001 59.4375c0.09375001 16.5 13.59375001 29.90625001 30.09374999 29.90624999h0.09375001c16.5-0.09375001 30-13.6875 29.90624999-30.1875l-0.28125001-59.4375c-0.09375001-16.5-13.59375001-29.90625001-30.09374999-29.90625001z m248.34375001 88.21875001c-8.71875001 0-17.4375 3.75-23.34375001 10.96875001l-37.6875 46.03124999c-10.5 12.84375001-8.53125001 31.78125001 4.21875001 42.28124999 5.53125001 4.5 12.28125001 6.75 18.93749998 6.75 8.71875001 0 17.4375-3.75 23.34375001-10.96874999l37.6875-46.03125001c10.5-12.84375001 8.53125001-31.78125001-4.21875001-42.28124999-5.53125001-4.5-12.1875-6.75-18.93749998-6.75z m135.37499998 226.03125001c-1.96875001 0-3.84375001 0.1875-5.8125 0.56249998l-58.3125 11.625c-16.21875001 3.1875-26.8125 19.125-23.625 35.34375001 2.8125 14.25 15.46875001 24.1875 29.53125001 24.1875 1.96875001 0 3.84375001-0.1875 5.8125-0.5625l58.3125-11.625c16.21875001-3.1875 26.8125-19.125 23.625-35.34375001-2.8125-14.25-15.46875001-24.1875-29.53125001-24.1875zM782.375 871.71875001H242.09374999c-16.5 0-30 13.5-29.99999998 29.99999998s13.5 30 30 30h540.28124999c16.5 0 30-13.5 30-30s-13.5-30-30-30z" /></svg>