<?xml version="1.0" standalone="no"?><!DOCTYPE svg PUBLIC "-//W3C//DTD SVG 1.1//EN" "http://www.w3.org/Graphics/SVG/1.1/DTD/svg11.dtd"><svg t="1601184558998" class="icon" viewBox="0 0 1024 1024" version="1.1" xmlns="http://www.w3.org/2000/svg" p-id="11680" xmlns:xlink="http://www.w3.org/1999/xlink" width="200" height="200"><defs><style type="text/css"></style></defs><path d="M264 341h116c12.7 0 23-10.3 23-23s-10.3-23-23-23H264c-12.7 0-23 10.3-23 23s10.3 23 23 23zM763 678.5H647c-12.7 0-23 10.3-23 23s10.3 23 23 23h116c12.7 0 23-10.3 23-23s-10.3-23-23-23z" p-id="11681"></path><path d="M290 480h440c89.3 0 162-72.7 162-162s-72.7-162-162-162H290c-89.3 0-162 72.7-162 162s72.7 162 162 162z m0-278h440c64 0 116 52 116 116s-52 116-116 116H290c-64 0-116-52-116-116s52-116 116-116zM730 538.5H290c-89.3 0-162 72.7-162 162v2c0 89.3 72.7 162 162 162h440c89.3 0 162-72.7 162-162v-2c0-89.3-72.7-162-162-162z m116 164c0 64-52 116-116 116H290c-64 0-116-52-116-116v-2c0-64 52-116 116-116h440c64 0 116 52 116 116v2z" p-id="11682"></path></svg>