<?xml version="1.0" standalone="no"?><!DOCTYPE svg PUBLIC "-//W3C//DTD SVG 1.1//EN" "http://www.w3.org/Graphics/SVG/1.1/DTD/svg11.dtd"><svg t="1601186374769" class="icon" viewBox="0 0 1024 1024" version="1.1" xmlns="http://www.w3.org/2000/svg" p-id="13927" xmlns:xlink="http://www.w3.org/1999/xlink" width="200" height="200"><defs><style type="text/css"></style></defs><path d="M364.6 348.26a32 32 0 0 0 26.17-13.37 143.77 143.77 0 0 1 235.15 0 32 32 0 0 0 26.17 13.37c25.93 0 41-29.26 26-50.41a207.71 207.71 0 0 0-339.47 0c-15 21.15 0.06 50.41 26 50.41z" p-id="13928"></path><path d="M271.23 345.58a32.11 32.11 0 0 0 29.39-19.2 226.75 226.75 0 0 1 47.34-69c46.29-46.29 109.06-70.11 175.09-66a227.26 227.26 0 0 1 192.61 134 33.73 33.73 0 0 0 30.77 20.12c22.51 0 37.78-23.07 28.8-43.72a291.17 291.17 0 0 0-533.39-0.78c-9.22 21 6.42 44.6 29.39 44.6z" p-id="13929"></path><path d="M509.03 335.62q32 0 32 32v85.36q0 32-32 32t-32-32v-85.36q0-32 32-32z" p-id="13930"></path><path d="M830.34 441.59H191.71a64 64 0 0 0-64 64v286.86a64 64 0 0 0 64 64h638.63a64 64 0 0 0 64-64V505.59a64 64 0 0 0-64-64zM349.75 660.26a12 12 0 0 1-12 12H268.3a12 12 0 0 1-12-12v-71.79a12 12 0 0 1 12-12h69.45a12 12 0 0 1 12 12z m157.79-1.54a12 12 0 0 1-12 12h-69.45a12 12 0 0 1-12-12v-71.78a12 12 0 0 1 12-12h69.45a12 12 0 0 1 12 12z m256.59 76a31.75 31.75 0 0 1-31.66 31.66 31.76 31.76 0 0 1-31.66-31.66v-193a31.76 31.76 0 0 1 31.66-31.66 31.75 31.75 0 0 1 31.66 31.66z" p-id="13931"></path></svg>