<?xml version="1.0" standalone="no"?><!DOCTYPE svg PUBLIC "-//W3C//DTD SVG 1.1//EN" "http://www.w3.org/Graphics/SVG/1.1/DTD/svg11.dtd"><svg class="icon" width="200px" height="200.00px" viewBox="0 0 1024 1024" version="1.1" xmlns="http://www.w3.org/2000/svg"><path  d="M282.29785156 519.21582031h-54.45703125a63.20917969 63.20917969 0 0 0-64.8852539 61.15957031v253.39482422a63.20917969 63.20917969 0 0 0 64.884375 61.15957032h54.45791015a63.20917969 63.20917969 0 0 0 64.88525391-61.15957032V580.42197266a63.20917969 63.20917969 0 0 0-64.88525391-61.20703125z m9.31025391 314.55351563a9.02988281 9.02988281 0 0 1-9.31025391 8.74951172h-54.45703125a9.02988281 9.02988281 0 0 1-9.31113281-8.74951172V580.42197266a9.02988281 9.02988281 0 0 1 9.31025391-8.75039063h54.45791015a9.02988281 9.02988281 0 0 1 9.31025391 8.75039063zM528.85039062 550.54003906h-54.46054687a65.16386719 65.16386719 0 0 0-64.88349609 65.16298828v214.11035157a65.16386719 65.16386719 0 0 0 64.88349609 65.16210937h54.45791016a65.16386719 65.16386719 0 0 0 64.8852539-65.16386719V615.70302734a65.16386719 65.16386719 0 0 0-64.8852539-65.16298828z m9.3084961 279.27246094a9.31025391 9.31025391 0 0 1-9.31025391 9.309375h-54.45703125a9.31025391 9.31025391 0 0 1-9.309375-9.31025391V615.70302734a9.31025391 9.31025391 0 0 1 9.309375-9.309375h54.45703125a9.31025391 9.31025391 0 0 1 9.31025391 9.31025391z m238.82431641-391.02890625h-54.68994141a65.16386719 65.16386719 0 0 0-64.88525391 65.16474609v325.81757813a65.16386719 65.16386719 0 0 0 64.884375 65.16298828h54.45878907a65.16386719 65.16386719 0 0 0 64.88349609-65.16210938v-325.81933593a65.16386719 65.16386719 0 0 0-64.65234375-65.16386719z m9.309375 390.98232422a9.31025391 9.31025391 0 0 1-9.309375 9.309375h-54.68994141a9.31025391 9.31025391 0 0 1-9.31025391-9.31025391V503.94921875a9.31025391 9.31025391 0 0 1 9.31025391-9.31025391h54.45703125a9.31025391 9.31025391 0 0 1 9.309375 9.31025391z m44.73017578-689.52480469l-183.20273438 48.68701172a14.24267578 14.24267578 0 0 0-6.93632812 24.57597656l49.10625 44.35839844-136.88964844 98.20898437L449.0703125 281.60087891a33.51269531 33.51269531 0 0 0-38.44599609 0L183.52900391 444.50966797a26.15888672 26.15888672 0 0 0-4.97988282 39.23701172 32.21015625 32.21015625 0 0 0 24.24990235 10.56621093 32.95371094 32.95371094 0 0 0 19.22255859-6.05126953l207.87275391-148.94560547 104.02910156 74.47324219a33.56015625 33.56015625 0 0 0 38.44599609 0l161.65283204-115.99101562 41.6109375 37.5618164a16.98925781 16.98925781 0 0 0 27.36914062-6.75l48.50068359-170.40234375a15.64013672 15.64013672 0 0 0-20.48027343-17.96660156z" /></svg>