<?xml version="1.0" standalone="no"?><!DOCTYPE svg PUBLIC "-//W3C//DTD SVG 1.1//EN" "http://www.w3.org/Graphics/SVG/1.1/DTD/svg11.dtd"><svg t="1601823389366" class="icon" viewBox="0 0 1024 1024" version="1.1" xmlns="http://www.w3.org/2000/svg" p-id="4485" xmlns:xlink="http://www.w3.org/1999/xlink" width="200" height="200"><defs><style type="text/css"></style></defs><path d="M736 224 288 224C128.944 224 0 352.944 0 512s128.944 288 288 288l448 0c159.056 0 288-128.944 288-288S895.056 224 736 224zM736 752 288 752C155.456 752 48 644.544 48 512s107.456-240 240-240l448 0c132.544 0 240 107.456 240 240S868.544 752 736 752z" p-id="4486"></path><path d="M731.664 512m-176 0a11 11 0 1 0 352 0 11 11 0 1 0-352 0Z" p-id="4487"></path></svg>