<?xml version="1.0" standalone="no"?><!DOCTYPE svg PUBLIC "-//W3C//DTD SVG 1.1//EN" "http://www.w3.org/Graphics/SVG/1.1/DTD/svg11.dtd"><svg t="1603639051599" class="icon" viewBox="0 0 1024 1024" version="1.1" xmlns="http://www.w3.org/2000/svg" p-id="4513" xmlns:xlink="http://www.w3.org/1999/xlink" width="200" height="200"><defs><style type="text/css"></style></defs><path d="M862.91 480.1c-17.62 0-31.9 14.28-31.9 31.9 0 85.22-33.18 165.33-93.43 225.58-124.38 124.38-326.78 124.38-451.16 0-124.36-124.38-124.36-326.78 0-451.16 116.34-116.31 300.84-123.79 426.01-22.55h-48c-17.62 0-31.9 14.28-31.9 31.9s14.28 31.9 31.9 31.9h127.6c17.62 0 31.9-14.28 31.9-31.9v-127.6c0-17.62-14.28-31.9-31.9-31.9-17.62 0-31.9 14.28-31.9 31.9v52.77C609.91 92.73 383.33 99.29 241.31 241.31c-149.24 149.25-149.24 392.12 0 541.38C315.94 857.32 413.98 894.64 512 894.64s196.06-37.32 270.69-111.95C854.99 710.4 894.81 614.26 894.81 512c0-17.62-14.29-31.9-31.9-31.9z" p-id="4514"></path></svg>