<?xml version="1.0" encoding="utf-8"?>
<!-- Generator: Adobe Illustrator 15.0.0, SVG Export Plug-In . SVG Version: 6.00 Build 0)  -->
<!DOCTYPE svg PUBLIC "-//W3C//DTD SVG 1.1//EN" "http://www.w3.org/Graphics/SVG/1.1/DTD/svg11.dtd">
<svg version="1.1" id="图层_1" xmlns="http://www.w3.org/2000/svg" xmlns:xlink="http://www.w3.org/1999/xlink" x="0px" y="0px"
	 width="200px" height="200px" viewBox="0 0 200 200" enable-background="new 0 0 200 200" xml:space="preserve">
<path fill="#1890FF" d="M287.215,64.599c0,0,0.077,1.036,1.077,1.842c0.424,0.384,0.847,0.652,1.193,1.113
	c0.615,0.767,0.924,1.727,0.461,2.609c0,0-2.539-0.345-3.424-2.763C286.021,66.096,287.215,64.599,287.215,64.599 M270.203,83.938
	c0,0,4.118-0.345,8.429-2.264c4.041-1.804,7.582-5.104,10.623-8.173c0,0-1.617,7.789-7.12,11.779
	c-3.08,2.341-9.814,3.607-11.932-1.112C270.164,84.015,270.203,83.938,270.203,83.938 M275.168,72.005c0,0,9.275,2.417,14.048,0.307
	c-1.193,1.228-3.579,3.031-6.966,3.646c-2.193,0.383-5.465,0.806-6.582-1.458c-0.115-0.192-0.192-0.384-0.27-0.576
	c-0.191-0.576-0.27-1.074-0.23-1.688V72.005 M279.363,64.369c0,0,1.617,0.614,2.963,2.11c0.616,0.729,1.116,1.458,1.887,2.11
	c1.809,1.611,4.349,2.916,5.196,2.993c-2.926,0.038-8.237-0.845-9.737-3.146c-0.693-0.998-0.385-2.494-0.309-3.646V64.369"/>
<g>
	<path fill-rule="evenodd" clip-rule="evenodd" fill="#F08D1D" d="M118.936,62.086c-8.911-3.559-12.487-7.381-15.931-11.647
		c-1.538-1.909-3.671-2.604-4.516-2.815c-0.046-0.009-0.09-0.018-0.134-0.019h-0.002h-0.019c-0.14,0.003-0.225,0.062-0.271,0.114
		c-0.087,0.088-0.123,0.222-0.112,0.393c0.099,1.577,0.099,1.577-0.029,2.719c-0.021,0.203-0.049,0.407-0.075,0.622
		c-0.149,1.175-0.306,2.389,0.051,3.643c0.408,1.435,1.429,2.645,3.127,3.7c2.204,1.368,4.728,2.428,7.502,3.147
		c2.513,0.656,5.162,1.001,7.664,1.001l0,0c0.912,0,1.804-0.047,2.648-0.138c0.409-0.042,0.621-0.1,0.646-0.281
		C119.512,62.332,119.296,62.228,118.936,62.086L118.936,62.086z"/>
	<path fill-rule="evenodd" clip-rule="evenodd" fill="#F08D1D" d="M117.734,52.885c-1.048-0.955-2.788-1.629-3.543-3.905
		c-0.122-0.373-0.392-0.47-0.64-0.14c-2.833,3.743,0.313,10.094,6.32,10.863c0.234,0.029,0.452,0.008,0.472-0.413
		C120.448,57.146,119.95,54.893,117.734,52.885L117.734,52.885z"/>
	<path fill-rule="evenodd" clip-rule="evenodd" fill="#7F1083" d="M118.413,66.363c-9.387,9.452-24.321,21.629-38.602,21.593
		c-0.567,0-0.844,0.066-0.845,0.305c0,0.186,0.167,0.475,0.499,0.919c3.517,4.738,8.16,6.63,12.546,6.635h0.034
		c2.81-0.003,5.514-0.78,7.749-2.078c12.071-7.012,17.583-21.561,19.026-27.073C118.934,66.247,118.623,66.152,118.413,66.363
		L118.413,66.363z"/>
	<path fill-rule="evenodd" clip-rule="evenodd" fill="#BC1641" d="M119.229,63.974c-0.07-0.188-0.352-0.127-0.401-0.116
		c-0.87,0.208-5.792,1.305-12.667,1.307c-5.58,0-10.986-0.714-16.069-2.117c-0.305-0.083-0.474-0.117-0.585-0.117
		c-0.215,0-0.229,0.108-0.254,0.522l-0.012,0.184c-0.189,2.643,0.925,7.872,6.498,8.748c0.834,0.131,1.755,0.2,2.74,0.2
		c5.351,0,13.896-2.095,20.367-7.997C119.138,64.318,119.276,64.101,119.229,63.974L119.229,63.974z"/>
</g>
<g>
	<path fill="#36404A" d="M18.578,119.835c-0.129-0.129-0.345-0.322-0.646-0.581c-0.302-0.259-0.496-0.432-0.582-0.519
		c1.078-1.162,1.939-2.219,2.587-3.167l1.357,0.905c-0.129,0.172-0.302,0.409-0.517,0.71
		C19.828,118.435,19.095,119.318,18.578,119.835z M27.436,112.076v-1.229h-4.591v1.229h-1.681v-1.229h-3.75v-1.553h3.75v-1.745
		h1.681v1.745h4.591v-1.745h1.746v1.745h3.686v1.553h-3.686v1.229H27.436z M32.092,119.9c-0.431-0.561-1.207-1.487-2.328-2.78
		c0,0.99-0.044,1.854-0.129,2.586c-0.043,1.983-0.992,2.975-2.846,2.975c-0.775,0-1.659,0-2.651,0
		c-0.087-0.561-0.194-1.077-0.323-1.553c0.302,0,0.733,0.022,1.294,0.065c0.559,0,0.969,0,1.228,0
		c1.035,0.043,1.574-0.539,1.617-1.746c0-0.086,0.021-0.259,0.064-0.518c0.086-1.767,0.151-3.103,0.193-4.008H24.72l-0.064,0.388
		c-0.258,3.491-2.177,6.121-5.755,7.888l-1.229-1.423c3.363-1.421,5.13-3.599,5.302-6.53v-0.322h-4.591v-1.552h4.785l0.064-1.552
		h1.681c0,0.561-0.022,1.078-0.065,1.552h5.108c0,0.991-0.043,2.004-0.129,3.039l0.775-0.777c0.862,0.905,1.724,1.897,2.586,2.975
		L32.092,119.9z"/>
	<path fill="#36404A" d="M35.26,116.731c-0.517-0.215-0.992-0.345-1.422-0.388c0.517-1.509,0.927-2.996,1.229-4.462l1.358,0.259
		C35.949,114.124,35.561,115.654,35.26,116.731z M35.842,123.069c-0.517-0.389-1.013-0.756-1.488-1.1
		c1.035-1.078,1.724-2.177,2.07-3.298c0.344-1.078,0.517-2.674,0.517-4.785v-6.014h1.682v6.337
		C38.794,118.047,37.868,120.999,35.842,123.069z M40.109,116.537c-0.301-1.422-0.711-2.759-1.229-4.009l1.294-0.388
		c0.559,1.379,1.012,2.673,1.357,3.881L40.109,116.537z M41.855,122.486v-14.354h1.682v14.354H41.855z M45.153,116.537
		c-0.388-1.422-0.798-2.759-1.228-4.009l1.293-0.388c0.215,0.646,0.559,1.66,1.034,3.038c0.086,0.39,0.172,0.69,0.259,0.906
		L45.153,116.537z M46.834,122.81v-15.001h1.616v15.001H46.834z"/>
	<path fill="#36404A" d="M51.295,118.672v-8.018h6.014v-3.104h1.875v3.104h6.013v7.952h-1.81v-0.84h-4.203v5.366h-1.875v-5.366
		h-4.203v0.905H51.295z M53.106,112.334v3.751h4.203v-3.751H53.106z M63.388,112.334h-4.203v3.751h4.203V112.334z"/>
	<path fill="#36404A" d="M68.561,119.254c-0.216-0.13-0.604-0.28-1.165-0.453c-0.258-0.086-0.431-0.151-0.517-0.194
		c0.776-2.328,1.357-4.375,1.746-6.143l1.746,0.517C69.81,115.137,69.207,117.228,68.561,119.254z M73.733,122.486
		c-1.811,0.044-2.694-0.797-2.65-2.521v-8.924h1.875v8.535c-0.043,0.949,0.409,1.402,1.358,1.358h2.005
		c0.905,0.044,1.444-0.389,1.616-1.294c0-0.128,0.022-0.365,0.065-0.711c0.086-0.603,0.151-1.077,0.194-1.422
		c0.216,0.043,0.517,0.151,0.906,0.323c0.43,0.13,0.732,0.237,0.905,0.323c-0.129,0.948-0.281,1.811-0.453,2.586
		c-0.216,1.207-1.186,1.79-2.91,1.746H73.733z M76.255,112.528c-0.776-0.904-1.983-2.155-3.622-3.749l1.229-1.229
		c1.465,1.294,2.694,2.479,3.687,3.557L76.255,112.528z M81.04,118.22c-0.776-1.596-1.681-3.363-2.716-5.303l1.552-0.841
		c0.776,1.38,1.724,3.126,2.845,5.237L81.04,118.22z"/>
	<path fill="#36404A" d="M85.178,123.004c-0.086-0.044-0.216-0.15-0.388-0.323c-0.604-0.431-1.035-0.733-1.292-0.906
		c0.775-1.034,1.292-2.026,1.552-2.974c0.258-0.948,0.388-2.371,0.388-4.268v-4.721h6.078c-0.302-0.775-0.582-1.443-0.841-2.004
		l2.135-0.324c0.171,0.389,0.43,0.992,0.775,1.811c0.043,0.174,0.086,0.302,0.13,0.389l-0.583,0.129h5.949v1.682H87.312v3.039
		c0,2.112-0.151,3.75-0.453,4.914C86.601,120.611,86.04,121.797,85.178,123.004z"/>
	<path fill="#36404A" d="M100.309,113.305v-1.681h1.681v-3.944h1.681v3.944h1.552v1.681h-1.552v4.979l1.423-0.452l0.064,1.035
		c1.035-0.905,1.788-2.178,2.263-3.815h-1.874v-1.681l6.013-3.429h-5.496v-1.486h8.276v1.746l-5.885,3.362h6.791l-0.259,6.337
		c0.043,1.896-0.754,2.823-2.393,2.78c-0.389,0.043-1.057,0.064-2.004,0.064c-0.045-0.215-0.108-0.561-0.194-1.034
		c-0.086-0.303-0.131-0.475-0.131-0.518c0.519,0,1.078,0,1.683,0c0.99,0.043,1.466-0.453,1.422-1.487
		c0.044-0.474,0.086-1.4,0.13-2.779c0.043-0.863,0.064-1.488,0.064-1.876h-1.422c-0.519,3.577-1.984,6.272-4.397,8.082
		c-0.347-0.388-0.755-0.797-1.229-1.229c2.199-1.551,3.557-3.836,4.075-6.854h-1.617c-0.604,2.5-1.897,4.525-3.88,6.077
		c-0.087-0.086-0.237-0.257-0.452-0.517c-0.259-0.303-0.476-0.538-0.647-0.711c-0.216,0.086-0.539,0.215-0.97,0.388
		c-0.561,0.216-1.422,0.518-2.586,0.905l-0.389-1.746c0.302-0.043,0.733-0.172,1.294-0.388c0.301-0.086,0.517-0.151,0.646-0.193
		v-5.562H100.309z"/>
	<path fill="#36404A" d="M117.378,122.81l-0.775-1.616c0.259-0.302,0.732-0.755,1.423-1.358c0.173-0.129,0.301-0.236,0.388-0.322
		v-4.85h-1.682v-1.617h3.299v6.337c0.731,1.208,1.918,1.811,3.556,1.811c4.181,0,7.111-0.021,8.794-0.065
		c-0.216,0.562-0.389,1.057-0.518,1.487c-2.457,0-4.269,0-5.432,0c-1.38,0-2.479-0.021-3.297-0.064
		c-1.726-0.043-2.997-0.625-3.815-1.745c-0.432,0.345-1.034,0.969-1.812,1.875C117.465,122.724,117.421,122.767,117.378,122.81z
		 M119.447,111.688c-0.302-0.474-0.842-1.228-1.616-2.262c-0.259-0.346-0.453-0.604-0.582-0.776l1.423-0.841
		c0.173,0.215,0.431,0.561,0.775,1.035c0.732,0.861,1.229,1.486,1.487,1.875L119.447,111.688z M128.112,120.481
		c-0.087-0.474-0.194-0.905-0.323-1.293c0.431,0.044,0.84,0.065,1.229,0.065c0.604,0.042,0.883-0.28,0.84-0.971v-0.258h-2.587v2.198
		h-1.551v-2.198h-2.522v2.393h-1.616v-8.666h3.557c-0.389-0.258-1.056-0.625-2.004-1.098c-0.217-0.13-0.367-0.216-0.453-0.26
		l0.905-0.775h-2.198v-1.293h9.893v1.422l-3.621,2.004h3.815v6.726c0.042,1.294-0.561,1.94-1.812,1.94
		C129.318,120.461,128.802,120.481,128.112,120.481z M123.197,112.98v1.358h2.522v-1.358H123.197z M123.197,115.504v1.292h2.522
		v-1.292H123.197z M128.952,109.619h-5.043c0.862,0.43,1.682,0.905,2.457,1.422L128.952,109.619z M129.857,112.98h-2.587v1.358
		h2.587V112.98z M127.271,115.504v1.292h2.587v-1.292H127.271z"/>
	<path fill="#36404A" d="M133.737,118.542c-0.086-0.301-0.237-0.733-0.452-1.293c-0.044-0.173-0.086-0.302-0.131-0.388
		c1.511-1.25,2.933-2.91,4.27-4.979l1.422,0.97c-0.302,0.519-0.797,1.207-1.487,2.07c-0.043,0.042-0.086,0.086-0.129,0.129v8.019
		h-1.746v-6.143C134.966,117.486,134.385,118.025,133.737,118.542z M134.189,113.176c-0.302-0.776-0.561-1.337-0.775-1.682
		c1.552-1.207,2.845-2.521,3.879-3.944l1.488,1.034C137.229,110.395,135.698,111.926,134.189,113.176z M139.234,115.115v-1.682
		h9.634v1.682h-2.651v5.238c0.042,1.594-0.754,2.392-2.393,2.392c-1.035,0-1.918,0-2.65,0c-0.131-0.518-0.259-1.056-0.39-1.617
		c0.477,0.044,1.251,0.065,2.329,0.065c0.905,0,1.336-0.388,1.293-1.165v-4.913H139.234z M140.009,110.266v-1.616h8.148v1.616
		H140.009z"/>
	<path fill="#36404A" d="M150.808,122.551c-0.345-0.474-0.712-0.927-1.1-1.357c1.165-0.603,2.544-1.553,4.139-2.845l1.164,1.164
		c-0.776,0.603-1.854,1.379-3.232,2.327C151.348,122.141,151.023,122.378,150.808,122.551z M151.778,114.146l-0.518-1.487
		c0.561-0.13,1.034-0.301,1.422-0.518c1.035-0.561,2.09-1.207,3.169-1.939c-1.768,0.044-3.427,0.107-4.979,0.193
		c-0.086-0.516-0.195-1.033-0.323-1.551c4.783-0.13,9.354-0.346,13.707-0.647l0.388,1.487c-0.904,0.043-2.326,0.129-4.268,0.258
		c-0.646,0.045-1.142,0.087-1.486,0.131c-1.595,0.99-3.081,1.854-4.462,2.586c1.811-0.086,3.341-0.13,4.592-0.13
		c1.034-0.646,2.047-1.271,3.038-1.874l1.358,1.164c-3.234,1.811-6.229,3.36-8.988,4.655c0.604,0,1.616-0.044,3.04-0.13
		c1.767-0.043,3.081-0.087,3.943-0.129l-1.423-1.424l1.229-0.774c1.638,1.552,2.91,2.779,3.814,3.685l-1.228,1.034l-1.099-1.162
		l-4.01,0.128v2.975c0.086,1.381-0.625,2.091-2.134,2.134c-0.388,0.044-1.078,0.065-2.069,0.065
		c-0.086-0.647-0.215-1.208-0.388-1.682c0.604,0.043,1.207,0.065,1.811,0.065c0.733,0.042,1.076-0.28,1.034-0.971v-2.521
		l-4.138,0.194c-0.518,0-1.013,0.042-1.487,0.128l-0.583-1.615c0.388-0.044,1.013-0.237,1.877-0.583
		c1.292-0.603,2.628-1.271,4.008-2.004c-0.388,0.043-0.97,0.064-1.746,0.064c-0.775,0.043-1.357,0.065-1.746,0.065
		c-0.042,0-0.107,0-0.194,0C152.553,114.103,152.166,114.146,151.778,114.146z M164.128,122.423
		c-1.164-0.863-2.565-1.812-4.203-2.847l1.164-1.228c1.207,0.775,2.585,1.725,4.138,2.845L164.128,122.423z"/>
	<path fill="#36404A" d="M167.037,118.606l-0.452-1.486c0.517-0.432,0.971-0.927,1.358-1.488c0.042-0.043,0.106-0.107,0.193-0.193
		c0.217-0.302,0.518-0.775,0.905-1.422c-0.905,0.042-1.681,0.107-2.327,0.193l-0.453-1.487c0.344-0.259,0.711-0.732,1.1-1.422
		c0.905-1.596,1.529-2.846,1.874-3.751l1.746,0.582c-0.647,1.208-1.594,2.716-2.845,4.526l1.812-0.064
		c0.085-0.173,0.215-0.431,0.386-0.775c0.173-0.303,0.303-0.539,0.389-0.712l1.488,0.712c-1.725,2.586-2.867,4.267-3.428,5.043
		l2.781-0.194c0,0.173-0.023,0.409-0.065,0.711c0,0.303-0.021,0.539-0.064,0.711c-0.303,0.045-0.712,0.087-1.229,0.131
		C168.523,118.392,167.469,118.521,167.037,118.606z M166.521,121.904l-0.259-1.551c2.285-0.302,4.139-0.561,5.561-0.777
		l-0.064,1.552C170.119,121.301,168.374,121.56,166.521,121.904z M171.692,111.041v-1.486h4.204c-0.086-0.215-0.194-0.582-0.325-1.1
		c-0.128-0.301-0.215-0.539-0.257-0.711l1.81-0.194c0.044,0.087,0.107,0.259,0.194,0.518c0.258,0.689,0.409,1.186,0.452,1.487h3.944
		v1.486h-4.85c-0.388,0.518-0.99,1.23-1.81,2.135c-0.475,0.561-0.84,0.99-1.1,1.293c0.603-0.043,1.703-0.086,3.299-0.13
		c0.646-0.042,1.119-0.064,1.422-0.064l-1.229-1.616l1.229-0.776c1.077,1.294,2.111,2.587,3.103,3.88l-1.358,0.905l-0.709-1.035
		l-1.101,0.065v4.784c-0.043,0.476,0.172,0.712,0.647,0.712h0.258c0.562,0.043,0.862-0.194,0.904-0.712
		c0.088-0.474,0.152-1.099,0.194-1.875c0.131,0.043,0.303,0.108,0.519,0.194c0.345,0.173,0.625,0.28,0.84,0.323
		c0,0.043,0,0.086,0,0.13c-0.086,0.905-0.173,1.552-0.259,1.939c-0.129,0.991-0.84,1.466-2.134,1.422h-0.711
		c-1.294,0.044-1.919-0.538-1.875-1.744v-5.109l-1.424,0.065c0,0.215-0.021,0.517-0.063,0.904c0,0.432-0.021,0.732-0.064,0.905
		c-0.087,2.284-1.272,4.116-3.557,5.496c-0.129-0.173-0.322-0.431-0.582-0.775c-0.216-0.259-0.389-0.474-0.517-0.646
		c1.983-0.992,2.996-2.328,3.039-4.01c0-0.128,0-0.388,0-0.774c0.043-0.432,0.064-0.756,0.064-0.971
		c-0.259,0-0.69,0.042-1.293,0.129c-0.13,0.044-0.238,0.064-0.324,0.064l-0.646-1.552c0.474-0.345,0.862-0.711,1.165-1.099
		c0.689-0.689,1.336-1.509,1.938-2.458H171.692z"/>
</g>
<g>
	<path fill="#808695" d="M17.596,132.804v-0.739c0.085,0.074,0.186,0.144,0.302,0.202c0.116,0.06,0.238,0.107,0.366,0.148
		c0.127,0.04,0.257,0.072,0.388,0.097c0.13,0.022,0.252,0.034,0.362,0.034c0.381,0,0.666-0.073,0.852-0.216s0.279-0.349,0.279-0.617
		c0-0.143-0.03-0.27-0.09-0.375c-0.06-0.108-0.146-0.205-0.256-0.296c-0.11-0.089-0.241-0.175-0.392-0.255
		c-0.15-0.082-0.314-0.166-0.49-0.253c-0.186-0.096-0.358-0.194-0.517-0.29c-0.158-0.097-0.296-0.204-0.414-0.32
		c-0.119-0.117-0.212-0.251-0.279-0.397c-0.068-0.148-0.102-0.322-0.102-0.52c0-0.245,0.052-0.46,0.158-0.639
		c0.104-0.181,0.243-0.33,0.415-0.443c0.17-0.116,0.367-0.202,0.588-0.26c0.221-0.061,0.445-0.09,0.671-0.09
		c0.523,0,0.902,0.063,1.138,0.192v0.703c-0.311-0.219-0.711-0.33-1.199-0.33c-0.135,0-0.271,0.017-0.407,0.047
		c-0.136,0.031-0.257,0.078-0.362,0.142c-0.105,0.064-0.19,0.146-0.255,0.248c-0.066,0.103-0.099,0.227-0.099,0.376
		c0,0.137,0.025,0.255,0.076,0.355c0.051,0.099,0.125,0.189,0.222,0.271c0.099,0.081,0.217,0.16,0.358,0.236
		c0.141,0.078,0.304,0.16,0.491,0.253c0.186,0.096,0.364,0.197,0.534,0.302c0.172,0.105,0.321,0.221,0.449,0.348
		c0.128,0.127,0.229,0.267,0.302,0.42c0.073,0.153,0.109,0.33,0.109,0.528c0,0.265-0.05,0.489-0.15,0.674
		c-0.101,0.183-0.237,0.332-0.411,0.445c-0.173,0.116-0.374,0.199-0.599,0.25c-0.226,0.051-0.465,0.075-0.716,0.075
		c-0.08,0-0.182-0.007-0.305-0.022c-0.124-0.015-0.249-0.034-0.377-0.061c-0.128-0.025-0.249-0.059-0.362-0.095
		C17.759,132.892,17.667,132.851,17.596,132.804z"/>
	<path fill="#808695" d="M25.708,130.856c0,1.503-0.669,2.254-2.006,2.254c-1.282,0-1.922-0.722-1.922-2.171v-3.271h0.619v3.232
		c0,1.097,0.457,1.646,1.372,1.646c0.88,0,1.319-0.531,1.319-1.591v-3.287h0.619V130.856z"/>
	<path fill="#808695" d="M30.473,127.812l-3.091,4.642h3.016v0.566h-3.943v-0.177l3.069-4.611h-2.82v-0.563h3.769V127.812z"/>
	<path fill="#808695" d="M35.283,133.02h-0.618v-2.438h-2.729v2.438h-0.617v-5.352h0.617v2.348h2.729v-2.348h0.618V133.02z"/>
	<path fill="#808695" d="M38.789,133.11c-0.75,0-1.349-0.249-1.799-0.752c-0.448-0.502-0.673-1.153-0.673-1.953
		c0-0.86,0.229-1.549,0.689-2.061c0.46-0.513,1.084-0.77,1.874-0.77c0.728,0,1.316,0.25,1.76,0.747
		c0.445,0.497,0.667,1.146,0.667,1.952c0,0.871-0.229,1.563-0.687,2.072C40.164,132.855,39.552,133.11,38.789,133.11z
		 M38.834,128.141c-0.553,0-1.002,0.204-1.35,0.609c-0.347,0.404-0.521,0.939-0.521,1.602c0,0.656,0.168,1.188,0.505,1.59
		c0.337,0.402,0.777,0.604,1.32,0.604c0.578,0,1.034-0.192,1.369-0.573c0.334-0.382,0.501-0.92,0.501-1.614
		c0-0.702-0.163-1.248-0.487-1.635C39.848,128.335,39.402,128.141,38.834,128.141z"/>
	<path fill="#808695" d="M46.208,130.856c0,1.503-0.669,2.254-2.006,2.254c-1.281,0-1.922-0.722-1.922-2.171v-3.271h0.618v3.232
		c0,1.097,0.458,1.646,1.373,1.646c0.879,0,1.319-0.531,1.319-1.591v-3.287h0.618V130.856z"/>
	<path fill="#808695" d="M53.619,132.798c-0.387,0.209-0.873,0.313-1.456,0.313c-0.748,0-1.348-0.245-1.801-0.737
		c-0.453-0.491-0.678-1.135-0.678-1.929c0-0.857,0.253-1.551,0.761-2.076c0.509-0.528,1.151-0.793,1.931-0.793
		c0.502,0,0.917,0.074,1.244,0.223v0.666c-0.377-0.215-0.795-0.323-1.252-0.323c-0.603,0-1.093,0.207-1.47,0.616
		c-0.377,0.411-0.566,0.958-0.566,1.648c0,0.65,0.177,1.171,0.529,1.559c0.351,0.387,0.814,0.582,1.387,0.582
		c0.528,0,0.985-0.121,1.373-0.36V132.798z"/>
	<path fill="#808695" d="M57.493,133.02h-2.796v-5.352h2.676v0.563h-2.059v1.784h1.907v0.565h-1.907v1.872h2.179V133.02z"/>
	<path fill="#808695" d="M62.756,133.02h-0.754l-2.722-4.268c-0.065-0.105-0.12-0.217-0.166-0.334h-0.021
		c0.02,0.11,0.029,0.355,0.029,0.732v3.869h-0.618v-5.352h0.799l2.646,4.196c0.111,0.174,0.182,0.294,0.211,0.36h0.016
		c-0.025-0.153-0.038-0.417-0.038-0.788v-3.769h0.618V133.02z"/>
	<path fill="#808695" d="M67.271,128.231h-1.523v4.788H65.13v-4.788h-1.522v-0.563h3.664V128.231z"/>
	<path fill="#808695" d="M70.882,133.02h-2.796v-5.352h2.676v0.563h-2.058v1.784h1.907v0.565h-1.907v1.872h2.179V133.02z"/>
	<path fill="#808695" d="M75.677,133.02h-0.739l-0.882-1.498c-0.081-0.143-0.159-0.263-0.234-0.36
		c-0.075-0.097-0.153-0.177-0.233-0.241c-0.081-0.063-0.167-0.109-0.26-0.136c-0.093-0.029-0.198-0.043-0.313-0.043H72.51v2.278
		h-0.618v-5.352h1.576c0.23,0,0.443,0.029,0.637,0.088c0.193,0.057,0.361,0.148,0.505,0.267c0.143,0.12,0.256,0.269,0.339,0.444
		c0.083,0.177,0.124,0.384,0.124,0.623c0,0.188-0.027,0.361-0.083,0.516c-0.055,0.156-0.134,0.296-0.238,0.416
		c-0.103,0.123-0.226,0.229-0.369,0.314c-0.144,0.086-0.305,0.153-0.487,0.198v0.016c0.09,0.041,0.168,0.086,0.234,0.137
		c0.065,0.052,0.126,0.11,0.184,0.18c0.058,0.07,0.116,0.148,0.174,0.237c0.057,0.091,0.122,0.192,0.192,0.31L75.677,133.02z
		 M72.51,128.231v1.944h0.837c0.156,0,0.299-0.025,0.43-0.073c0.13-0.048,0.244-0.115,0.339-0.201
		c0.095-0.088,0.17-0.196,0.226-0.326s0.083-0.273,0.083-0.431c0-0.286-0.092-0.511-0.275-0.671
		c-0.184-0.16-0.449-0.242-0.796-0.242H72.51z"/>
	<path fill="#808695" d="M79.529,130.993v2.026h-0.618v-5.352h1.447c0.563,0,1,0.14,1.312,0.417
		c0.312,0.277,0.467,0.671,0.467,1.183c0,0.503-0.172,0.917-0.517,1.241c-0.344,0.322-0.81,0.484-1.398,0.484H79.529z
		 M79.529,128.231v2.195h0.649c0.427,0,0.752-0.1,0.977-0.297c0.223-0.199,0.335-0.478,0.335-0.835c0-0.708-0.412-1.063-1.236-1.063
		H79.529z"/>
	<path fill="#808695" d="M85.87,133.02h-2.736v-5.352h0.617v4.785h2.119V133.02z"/>
	<path fill="#808695" d="M90.763,133.02h-0.686l-0.558-1.498H87.28l-0.527,1.498h-0.686l2.021-5.352h0.64L90.763,133.02z
		 M89.315,130.955l-0.829-2.277c-0.025-0.078-0.052-0.196-0.083-0.36h-0.016c-0.025,0.153-0.053,0.272-0.082,0.36l-0.823,2.277
		H89.315z"/>
	<path fill="#808695" d="M94.992,127.812l-3.091,4.642h3.015v0.566h-3.943v-0.177l3.069-4.611h-2.82v-0.563h3.77V127.812z"/>
	<path fill="#808695" d="M99.922,133.02h-0.685l-0.559-1.498H96.44l-0.527,1.498h-0.687l2.021-5.352h0.641L99.922,133.02z
		 M98.476,130.955l-0.83-2.277c-0.025-0.078-0.053-0.196-0.083-0.36h-0.016c-0.025,0.153-0.052,0.272-0.083,0.36l-0.822,2.277
		H98.476z"/>
	<path fill="#808695" d="M103.827,130.993v2.026h-0.618v-5.352h1.447c0.563,0,0.999,0.14,1.311,0.417
		c0.313,0.277,0.469,0.671,0.469,1.183c0,0.503-0.172,0.917-0.517,1.241c-0.345,0.322-0.811,0.484-1.398,0.484H103.827z
		 M103.827,128.231v2.195h0.648c0.427,0,0.752-0.1,0.977-0.297c0.223-0.199,0.335-0.478,0.335-0.835
		c0-0.708-0.413-1.063-1.236-1.063H103.827z"/>
	<path fill="#808695" d="M111.517,133.02h-0.686l-0.559-1.498h-2.238l-0.527,1.498h-0.687l2.021-5.352h0.642L111.517,133.02z
		 M110.069,130.955l-0.829-2.277c-0.025-0.078-0.053-0.196-0.083-0.36h-0.015c-0.025,0.153-0.053,0.272-0.084,0.36l-0.821,2.277
		H110.069z"/>
	<path fill="#808695" d="M112.052,132.804v-0.739c0.086,0.074,0.186,0.144,0.301,0.202c0.116,0.06,0.237,0.107,0.366,0.148
		c0.128,0.04,0.258,0.072,0.388,0.097c0.132,0.022,0.252,0.034,0.361,0.034c0.383,0,0.666-0.073,0.854-0.216
		c0.187-0.143,0.278-0.349,0.278-0.617c0-0.143-0.031-0.27-0.09-0.375c-0.062-0.108-0.147-0.205-0.258-0.296
		c-0.11-0.089-0.241-0.175-0.391-0.255c-0.151-0.082-0.314-0.166-0.489-0.253c-0.187-0.096-0.359-0.194-0.519-0.29
		c-0.157-0.097-0.296-0.204-0.415-0.32c-0.117-0.117-0.21-0.251-0.278-0.397c-0.067-0.148-0.102-0.322-0.102-0.52
		c0-0.245,0.053-0.46,0.158-0.639c0.106-0.181,0.243-0.33,0.415-0.443c0.171-0.116,0.366-0.202,0.589-0.26
		c0.221-0.061,0.443-0.09,0.671-0.09c0.522,0,0.901,0.063,1.139,0.192v0.703c-0.313-0.219-0.712-0.33-1.199-0.33
		c-0.137,0-0.271,0.017-0.407,0.047c-0.136,0.031-0.256,0.078-0.362,0.142c-0.105,0.064-0.191,0.146-0.256,0.248
		c-0.066,0.103-0.099,0.227-0.099,0.376c0,0.137,0.025,0.255,0.075,0.355c0.051,0.099,0.124,0.189,0.223,0.271
		c0.098,0.081,0.219,0.16,0.358,0.236c0.14,0.078,0.305,0.16,0.49,0.253c0.186,0.096,0.363,0.197,0.534,0.302
		c0.172,0.105,0.32,0.221,0.449,0.348s0.229,0.267,0.303,0.42c0.072,0.153,0.107,0.33,0.107,0.528c0,0.265-0.05,0.489-0.151,0.674
		c-0.098,0.183-0.236,0.332-0.41,0.445c-0.173,0.116-0.373,0.199-0.599,0.25s-0.465,0.075-0.715,0.075
		c-0.081,0-0.184-0.007-0.307-0.022c-0.124-0.015-0.249-0.034-0.378-0.061c-0.127-0.025-0.249-0.059-0.361-0.095
		C112.214,132.892,112.121,132.851,112.052,132.804z"/>
	<path fill="#808695" d="M116.054,132.804v-0.739c0.086,0.074,0.187,0.144,0.304,0.202c0.114,0.06,0.236,0.107,0.365,0.148
		c0.128,0.04,0.257,0.072,0.388,0.097c0.131,0.022,0.251,0.034,0.362,0.034c0.381,0,0.666-0.073,0.852-0.216
		s0.278-0.349,0.278-0.617c0-0.143-0.03-0.27-0.09-0.375c-0.061-0.108-0.146-0.205-0.257-0.296c-0.111-0.089-0.24-0.175-0.392-0.255
		c-0.152-0.082-0.314-0.166-0.489-0.253c-0.187-0.096-0.359-0.194-0.519-0.29c-0.157-0.097-0.297-0.204-0.413-0.32
		c-0.117-0.117-0.211-0.251-0.279-0.397c-0.067-0.148-0.101-0.322-0.101-0.52c0-0.245,0.052-0.46,0.156-0.639
		c0.107-0.181,0.244-0.33,0.416-0.443c0.17-0.116,0.366-0.202,0.587-0.26c0.222-0.061,0.446-0.09,0.672-0.09
		c0.523,0,0.9,0.063,1.138,0.192v0.703c-0.312-0.219-0.711-0.33-1.198-0.33c-0.135,0-0.27,0.017-0.407,0.047
		c-0.136,0.031-0.256,0.078-0.362,0.142c-0.105,0.064-0.191,0.146-0.255,0.248c-0.066,0.103-0.1,0.227-0.1,0.376
		c0,0.137,0.026,0.255,0.075,0.355c0.05,0.099,0.125,0.189,0.223,0.271c0.1,0.081,0.219,0.16,0.359,0.236
		c0.14,0.078,0.304,0.16,0.49,0.253c0.185,0.096,0.364,0.197,0.533,0.302c0.172,0.105,0.322,0.221,0.449,0.348
		c0.128,0.127,0.229,0.267,0.302,0.42s0.11,0.33,0.11,0.528c0,0.265-0.05,0.489-0.151,0.674c-0.101,0.183-0.237,0.332-0.411,0.445
		c-0.173,0.116-0.373,0.199-0.6,0.25c-0.226,0.051-0.465,0.075-0.715,0.075c-0.082,0-0.185-0.007-0.307-0.022
		c-0.124-0.015-0.249-0.034-0.377-0.061c-0.127-0.025-0.248-0.059-0.362-0.095C116.218,132.892,116.124,132.851,116.054,132.804z"/>
	<path fill="#808695" d="M128.192,133.02h-0.617v-3.593c0-0.28,0.018-0.628,0.054-1.041h-0.016c-0.061,0.24-0.114,0.413-0.158,0.521
		l-1.804,4.113h-0.301l-1.801-4.082c-0.051-0.123-0.104-0.307-0.159-0.552h-0.015c0.021,0.214,0.03,0.564,0.03,1.048v3.586h-0.596
		v-5.352h0.814l1.62,3.73c0.126,0.286,0.207,0.501,0.242,0.644h0.021c0.105-0.297,0.192-0.516,0.257-0.659l1.652-3.715h0.774V133.02
		z"/>
	<path fill="#808695" d="M133.659,133.02h-0.687l-0.558-1.498h-2.239l-0.528,1.498h-0.685l2.02-5.352h0.643L133.659,133.02z
		 M132.211,130.955l-0.829-2.277c-0.024-0.078-0.053-0.196-0.082-0.36h-0.015c-0.026,0.153-0.054,0.272-0.083,0.36l-0.823,2.277
		H132.211z"/>
	<path fill="#808695" d="M138.688,133.02h-0.756l-2.721-4.268c-0.065-0.105-0.121-0.217-0.165-0.334h-0.022
		c0.021,0.11,0.029,0.355,0.029,0.732v3.869h-0.619v-5.352h0.802l2.645,4.196c0.111,0.174,0.182,0.294,0.211,0.36h0.015
		c-0.024-0.153-0.036-0.417-0.036-0.788v-3.769h0.618V133.02z"/>
	<path fill="#808695" d="M144.161,133.02h-0.687l-0.558-1.498h-2.238l-0.529,1.498h-0.686l2.021-5.352h0.641L144.161,133.02z
		 M142.714,130.955l-0.829-2.277c-0.026-0.078-0.054-0.196-0.083-0.36h-0.016c-0.024,0.153-0.052,0.272-0.083,0.36l-0.821,2.277
		H142.714z"/>
	<path fill="#808695" d="M148.879,132.653c-0.525,0.305-1.115,0.457-1.763,0.457c-0.756,0-1.363-0.246-1.829-0.74
		s-0.697-1.147-0.697-1.959c0-0.824,0.258-1.504,0.773-2.036c0.515-0.533,1.169-0.8,1.964-0.8c0.573,0,1.055,0.094,1.447,0.283
		v0.696c-0.428-0.274-0.933-0.414-1.516-0.414c-0.593,0-1.077,0.208-1.455,0.621c-0.377,0.411-0.566,0.948-0.566,1.605
		c0,0.678,0.176,1.209,0.525,1.597c0.349,0.387,0.824,0.582,1.428,0.582c0.414,0,0.771-0.084,1.07-0.253v-1.498h-1.153v-0.565h1.771
		V132.653z"/>
	<path fill="#808695" d="M152.907,133.02h-2.799v-5.352h2.678v0.563h-2.059v1.784h1.907v0.565h-1.907v1.872h2.18V133.02z"/>
	<path fill="#808695" d="M156.184,132.804v-0.739c0.087,0.074,0.188,0.144,0.303,0.202c0.115,0.06,0.236,0.107,0.367,0.148
		c0.127,0.04,0.256,0.072,0.388,0.097c0.129,0.022,0.249,0.034,0.361,0.034c0.382,0,0.666-0.073,0.852-0.216
		s0.279-0.349,0.279-0.617c0-0.143-0.031-0.27-0.091-0.375c-0.06-0.108-0.146-0.205-0.256-0.296
		c-0.111-0.089-0.242-0.175-0.394-0.255c-0.151-0.082-0.314-0.166-0.489-0.253c-0.187-0.096-0.357-0.194-0.517-0.29
		c-0.158-0.097-0.297-0.204-0.415-0.32c-0.117-0.117-0.209-0.251-0.278-0.397c-0.068-0.148-0.102-0.322-0.102-0.52
		c0-0.245,0.053-0.46,0.158-0.639c0.105-0.181,0.243-0.33,0.415-0.443c0.17-0.116,0.366-0.202,0.588-0.26
		c0.221-0.061,0.444-0.09,0.671-0.09c0.522,0,0.901,0.063,1.138,0.192v0.703c-0.312-0.219-0.711-0.33-1.199-0.33
		c-0.135,0-0.27,0.017-0.406,0.047c-0.136,0.031-0.257,0.078-0.362,0.142c-0.104,0.064-0.191,0.146-0.255,0.248
		c-0.066,0.103-0.1,0.227-0.1,0.376c0,0.137,0.025,0.255,0.076,0.355c0.05,0.099,0.123,0.189,0.223,0.271
		c0.098,0.081,0.218,0.16,0.358,0.236c0.14,0.078,0.304,0.16,0.49,0.253c0.186,0.096,0.363,0.197,0.534,0.302
		c0.17,0.105,0.321,0.221,0.449,0.348c0.127,0.127,0.229,0.267,0.301,0.42c0.073,0.153,0.11,0.33,0.11,0.528
		c0,0.265-0.051,0.489-0.151,0.674c-0.101,0.183-0.237,0.332-0.411,0.445c-0.172,0.116-0.374,0.199-0.6,0.25
		c-0.227,0.051-0.465,0.075-0.716,0.075c-0.081,0-0.182-0.007-0.304-0.022c-0.126-0.015-0.251-0.034-0.378-0.061
		c-0.128-0.025-0.25-0.059-0.363-0.095C156.348,132.892,156.254,132.851,156.184,132.804z"/>
	<path fill="#808695" d="M163.86,127.668l-1.742,3.371v1.98H161.5v-1.965l-1.696-3.387h0.701l1.184,2.415
		c0.016,0.031,0.058,0.142,0.128,0.328h0.009c0.023-0.08,0.072-0.19,0.143-0.328l1.236-2.415H163.86z"/>
	<path fill="#808695" d="M164.349,132.804v-0.739c0.087,0.074,0.187,0.144,0.303,0.202c0.114,0.06,0.236,0.107,0.366,0.148
		c0.127,0.04,0.257,0.072,0.388,0.097c0.13,0.022,0.25,0.034,0.361,0.034c0.383,0,0.667-0.073,0.853-0.216
		c0.185-0.143,0.277-0.349,0.277-0.617c0-0.143-0.03-0.27-0.089-0.375c-0.061-0.108-0.147-0.205-0.256-0.296
		c-0.112-0.089-0.242-0.175-0.394-0.255c-0.151-0.082-0.313-0.166-0.489-0.253c-0.187-0.096-0.358-0.194-0.518-0.29
		c-0.158-0.097-0.296-0.204-0.414-0.32c-0.117-0.117-0.21-0.251-0.278-0.397c-0.068-0.148-0.102-0.322-0.102-0.52
		c0-0.245,0.052-0.46,0.158-0.639c0.105-0.181,0.243-0.33,0.414-0.443c0.171-0.116,0.367-0.202,0.589-0.26
		c0.221-0.061,0.444-0.09,0.671-0.09c0.522,0,0.901,0.063,1.138,0.192v0.703c-0.313-0.219-0.711-0.33-1.199-0.33
		c-0.135,0-0.27,0.017-0.405,0.047c-0.138,0.031-0.258,0.078-0.363,0.142c-0.105,0.064-0.192,0.146-0.256,0.248
		c-0.065,0.103-0.099,0.227-0.099,0.376c0,0.137,0.025,0.255,0.075,0.355c0.051,0.099,0.124,0.189,0.223,0.271
		s0.219,0.16,0.359,0.236c0.14,0.078,0.303,0.16,0.49,0.253c0.185,0.096,0.363,0.197,0.534,0.302c0.17,0.105,0.32,0.221,0.448,0.348
		s0.229,0.267,0.302,0.42s0.109,0.33,0.109,0.528c0,0.265-0.05,0.489-0.151,0.674c-0.1,0.183-0.237,0.332-0.411,0.445
		c-0.172,0.116-0.373,0.199-0.6,0.25c-0.226,0.051-0.465,0.075-0.715,0.075c-0.082,0-0.182-0.007-0.305-0.022
		c-0.126-0.015-0.25-0.034-0.378-0.061c-0.128-0.025-0.249-0.059-0.363-0.095C164.512,132.892,164.418,132.851,164.349,132.804z"/>
	<path fill="#808695" d="M171.723,128.231h-1.523v4.788h-0.618v-4.788h-1.522v-0.563h3.664V128.231z"/>
	<path fill="#808695" d="M175.334,133.02h-2.797v-5.352h2.676v0.563h-2.058v1.784h1.906v0.565h-1.906v1.872h2.179V133.02z"/>
	<path fill="#808695" d="M181.727,133.02h-0.619v-3.593c0-0.28,0.019-0.628,0.055-1.041h-0.017c-0.059,0.24-0.112,0.413-0.157,0.521
		l-1.802,4.113h-0.302l-1.802-4.082c-0.052-0.123-0.104-0.307-0.159-0.552h-0.015c0.02,0.214,0.03,0.564,0.03,1.048v3.586h-0.596
		v-5.352h0.814l1.621,3.73c0.125,0.286,0.206,0.501,0.24,0.644h0.024c0.104-0.297,0.19-0.516,0.255-0.659l1.651-3.715h0.776V133.02z
		"/>
</g>
</svg>
