<?xml version="1.0" encoding="utf-8"?>
<!-- Generator: Adobe Illustrator 15.0.0, SVG Export Plug-In . SVG Version: 6.00 Build 0)  -->
<!DOCTYPE svg PUBLIC "-//W3C//DTD SVG 1.1//EN" "http://www.w3.org/Graphics/SVG/1.1/DTD/svg11.dtd">
<svg version="1.1" id="图层_1" xmlns="http://www.w3.org/2000/svg" xmlns:xlink="http://www.w3.org/1999/xlink" x="0px" y="0px"
	 width="200px" height="200px" viewBox="0 0 200 200" enable-background="new 0 0 200 200" xml:space="preserve">
<g>
	<path fill="#FFFFFF" d="M7.086,123.636c-0.151-0.149-0.402-0.373-0.753-0.671c-0.351-0.299-0.577-0.498-0.677-0.598
		c1.254-1.341,2.257-2.56,3.01-3.653l1.58,1.044c-0.15,0.198-0.351,0.472-0.602,0.819C8.541,122.02,7.688,123.039,7.086,123.636z
		 M17.395,114.685v-1.417h-5.343v1.417h-1.957v-1.417H5.732v-1.791h4.364v-2.013h1.957v2.013h5.343v-2.013h2.032v2.013h4.289v1.791
		h-4.289v1.417H17.395z M22.813,123.71c-0.501-0.646-1.405-1.715-2.709-3.207c0,1.144-0.051,2.139-0.15,2.983
		c-0.051,2.288-1.154,3.432-3.312,3.432c-0.902,0-1.931,0-3.085,0c-0.102-0.646-0.226-1.242-0.376-1.791
		c0.351,0,0.853,0.025,1.506,0.075c0.651,0,1.128,0,1.429,0c1.205,0.049,1.832-0.621,1.882-2.014c0-0.1,0.025-0.299,0.075-0.598
		c0.1-2.038,0.176-3.579,0.225-4.623h-4.063l-0.075,0.447c-0.301,4.027-2.533,7.061-6.697,9.1l-1.43-1.643
		c3.914-1.639,5.97-4.151,6.171-7.533v-0.371H6.86v-1.791h5.569l0.075-1.789h1.957c0,0.646-0.025,1.243-0.075,1.789h5.945
		c0,1.145-0.05,2.313-0.15,3.507l0.902-0.897c1.003,1.044,2.006,2.189,3.01,3.432L22.813,123.71z"/>
	<path fill="#FFFFFF" d="M26.5,120.055c-0.602-0.247-1.154-0.397-1.655-0.447c0.602-1.74,1.079-3.456,1.429-5.147l1.581,0.3
		C27.303,117.048,26.851,118.813,26.5,120.055z M27.178,127.366c-0.602-0.448-1.179-0.872-1.731-1.269
		c1.204-1.243,2.006-2.511,2.409-3.804c0.401-1.244,0.602-3.085,0.602-5.521v-6.937h1.957v7.31
		C30.613,121.572,29.535,124.978,27.178,127.366z M32.145,119.83c-0.351-1.64-0.827-3.182-1.43-4.623l1.506-0.447
		c0.65,1.59,1.178,3.083,1.579,4.477L32.145,119.83z M34.176,126.693v-16.558h1.957v16.558H34.176z M38.014,119.83
		c-0.451-1.64-0.929-3.182-1.429-4.623l1.505-0.447c0.25,0.745,0.651,1.914,1.204,3.505c0.1,0.449,0.2,0.796,0.302,1.045
		L38.014,119.83z M39.971,127.067v-17.306h1.881v17.306H39.971z"/>
	<path fill="#FFFFFF" d="M45.163,122.294v-9.249h6.999v-3.581h2.183v3.581h6.999v9.173h-2.106v-0.969h-4.892v6.19h-2.183v-6.19
		h-4.891v1.045H45.163z M47.271,114.982v4.327h4.891v-4.327H47.271z M59.236,114.982h-4.892v4.327h4.892V114.982z"/>
	<path fill="#FFFFFF" d="M65.256,122.965c-0.251-0.15-0.703-0.323-1.354-0.522c-0.301-0.1-0.502-0.175-0.602-0.225
		c0.903-2.686,1.58-5.047,2.031-7.086l2.032,0.596C66.711,118.216,66.009,120.627,65.256,122.965z M71.276,126.693
		c-2.107,0.051-3.135-0.919-3.084-2.908v-10.294h2.182v9.846c-0.05,1.095,0.476,1.617,1.58,1.567h2.333
		c1.053,0.05,1.68-0.449,1.88-1.493c0-0.148,0.025-0.422,0.076-0.82c0.101-0.695,0.176-1.242,0.226-1.641
		c0.251,0.05,0.602,0.175,1.054,0.373c0.501,0.15,0.853,0.273,1.054,0.373c-0.151,1.094-0.327,2.089-0.527,2.983
		c-0.251,1.393-1.38,2.064-3.387,2.014H71.276z M74.211,115.207c-0.903-1.044-2.308-2.486-4.215-4.325l1.43-1.418
		c1.705,1.492,3.135,2.858,4.291,4.103L74.211,115.207z M79.779,121.771c-0.902-1.84-1.956-3.88-3.16-6.116l1.807-0.971
		c0.903,1.593,2.006,3.606,3.311,6.042L79.779,121.771z"/>
	<path fill="#FFFFFF" d="M84.596,127.291c-0.1-0.051-0.251-0.174-0.452-0.373c-0.703-0.497-1.204-0.846-1.504-1.046
		c0.902-1.192,1.504-2.338,1.806-3.43c0.3-1.094,0.451-2.735,0.451-4.923v-5.446h7.074c-0.351-0.894-0.677-1.664-0.979-2.312
		l2.484-0.374c0.199,0.449,0.5,1.145,0.902,2.089c0.05,0.201,0.1,0.348,0.15,0.448l-0.677,0.148h6.923v1.939H87.079v3.507
		c0,2.437-0.176,4.325-0.526,5.669C86.251,124.53,85.599,125.898,84.596,127.291z"/>
	<path fill="#FFFFFF" d="M102.205,116.103v-1.939h1.956v-4.55h1.956v4.55h1.806v1.939h-1.806v5.742l1.655-0.521l0.076,1.194
		c1.204-1.044,2.08-2.513,2.633-4.401h-2.181v-1.939l6.997-3.954h-6.396v-1.715h9.633v2.014l-6.849,3.879h7.902l-0.301,7.31
		c0.051,2.188-0.877,3.257-2.784,3.208c-0.452,0.049-1.229,0.074-2.333,0.074c-0.052-0.248-0.125-0.646-0.226-1.192
		c-0.101-0.35-0.152-0.549-0.152-0.598c0.604,0,1.255,0,1.958,0c1.152,0.049,1.706-0.522,1.655-1.716
		c0.051-0.547,0.1-1.616,0.15-3.206c0.051-0.996,0.076-1.717,0.076-2.164h-1.655c-0.604,4.127-2.31,7.236-5.118,9.323
		c-0.403-0.447-0.878-0.919-1.43-1.417c2.559-1.789,4.139-4.426,4.741-7.906h-1.882c-0.703,2.884-2.208,5.221-4.516,7.011
		c-0.101-0.1-0.275-0.297-0.525-0.597c-0.301-0.349-0.554-0.62-0.754-0.82c-0.251,0.1-0.628,0.249-1.128,0.448
		c-0.653,0.249-1.655,0.597-3.011,1.044l-0.451-2.014c0.351-0.05,0.854-0.199,1.505-0.447c0.351-0.1,0.602-0.175,0.753-0.224v-6.415
		H102.205z"/>
	<path fill="#FFFFFF" d="M122.07,127.067l-0.902-1.865c0.302-0.348,0.853-0.871,1.656-1.566c0.201-0.149,0.35-0.272,0.451-0.373
		v-5.594h-1.957v-1.865h3.839v7.31c0.852,1.394,2.232,2.089,4.139,2.089c4.865,0,8.275-0.024,10.234-0.075
		c-0.252,0.647-0.452,1.219-0.603,1.716c-2.859,0-4.968,0-6.321,0c-1.605,0-2.885-0.025-3.837-0.075
		c-2.008-0.049-3.488-0.721-4.44-2.013c-0.502,0.397-1.203,1.117-2.108,2.163C122.172,126.967,122.121,127.018,122.07,127.067z
		 M124.479,114.236c-0.352-0.547-0.979-1.416-1.881-2.608c-0.302-0.399-0.528-0.698-0.678-0.896l1.656-0.971
		c0.2,0.248,0.5,0.647,0.902,1.194c0.852,0.994,1.431,1.715,1.73,2.163L124.479,114.236z M134.563,124.381
		c-0.102-0.546-0.227-1.044-0.376-1.491c0.501,0.05,0.978,0.075,1.43,0.075c0.703,0.049,1.027-0.323,0.978-1.12v-0.297h-3.011v2.536
		h-1.805v-2.536h-2.936v2.76h-1.881v-9.997h4.139c-0.452-0.298-1.229-0.721-2.332-1.266c-0.252-0.149-0.428-0.25-0.528-0.3
		l1.055-0.895h-2.559v-1.492h11.513v1.641l-4.214,2.312h4.44v7.759c0.049,1.492-0.652,2.238-2.108,2.238
		C135.968,124.357,135.366,124.381,134.563,124.381z M128.844,115.728v1.567h2.936v-1.567H128.844z M128.844,118.639v1.491h2.936
		v-1.491H128.844z M135.54,111.851h-5.868c1.004,0.496,1.957,1.045,2.859,1.641L135.54,111.851z M136.595,115.728h-3.011v1.567
		h3.011V115.728z M133.584,118.639v1.491h3.011v-1.491H133.584z"/>
	<path fill="#FFFFFF" d="M141.11,122.145c-0.101-0.348-0.277-0.847-0.526-1.492c-0.052-0.2-0.1-0.348-0.152-0.447
		c1.758-1.441,3.413-3.357,4.969-5.745l1.654,1.119c-0.351,0.598-0.928,1.393-1.73,2.389c-0.05,0.048-0.101,0.099-0.149,0.148v9.25
		h-2.032v-7.086C142.539,120.927,141.863,121.548,141.11,122.145z M141.636,115.953c-0.352-0.895-0.652-1.542-0.902-1.94
		c1.806-1.392,3.312-2.908,4.515-4.549l1.732,1.192C145.175,112.745,143.393,114.511,141.636,115.953z M147.508,118.19v-1.939
		h11.211v1.939h-3.085v6.043c0.049,1.839-0.877,2.759-2.784,2.759c-1.205,0-2.233,0-3.085,0c-0.152-0.597-0.301-1.218-0.453-1.865
		c0.554,0.051,1.455,0.075,2.71,0.075c1.055,0,1.555-0.447,1.506-1.344v-5.668H147.508z M148.408,112.597v-1.864h9.484v1.864
		H148.408z"/>
	<path fill="#FFFFFF" d="M160.977,126.768c-0.401-0.546-0.828-1.069-1.279-1.565c1.355-0.695,2.96-1.791,4.816-3.281l1.354,1.342
		c-0.903,0.696-2.157,1.592-3.763,2.686C161.605,126.295,161.228,126.569,160.977,126.768z M162.105,117.072l-0.602-1.716
		c0.652-0.149,1.204-0.348,1.655-0.597c1.204-0.646,2.432-1.393,3.688-2.238c-2.057,0.051-3.987,0.124-5.794,0.224
		c-0.1-0.595-0.227-1.191-0.376-1.789c5.567-0.15,10.885-0.398,15.952-0.747l0.451,1.716c-1.052,0.05-2.707,0.148-4.967,0.298
		c-0.752,0.052-1.328,0.1-1.729,0.15c-1.856,1.143-3.586,2.138-5.193,2.983c2.107-0.1,3.888-0.149,5.344-0.149
		c1.204-0.747,2.383-1.467,3.536-2.162l1.581,1.343c-3.765,2.089-7.25,3.877-10.461,5.37c0.703,0,1.881-0.051,3.539-0.15
		c2.056-0.05,3.586-0.1,4.589-0.148l-1.656-1.642l1.431-0.894c1.905,1.79,3.387,3.206,4.438,4.25l-1.429,1.193l-1.278-1.341
		l-4.666,0.147v3.432c0.1,1.592-0.729,2.412-2.483,2.462c-0.452,0.05-1.255,0.074-2.409,0.074c-0.1-0.746-0.249-1.394-0.451-1.939
		c0.702,0.049,1.405,0.075,2.107,0.075c0.854,0.049,1.252-0.323,1.204-1.119v-2.909l-4.815,0.225c-0.603,0-1.18,0.049-1.731,0.147
		l-0.679-1.863c0.451-0.051,1.179-0.273,2.185-0.673c1.503-0.695,3.058-1.467,4.664-2.312c-0.451,0.05-1.129,0.074-2.032,0.074
		c-0.902,0.05-1.58,0.076-2.032,0.076c-0.048,0-0.125,0-0.227,0C163.007,117.022,162.558,117.072,162.105,117.072z M176.479,126.621
		c-1.354-0.996-2.986-2.091-4.893-3.284l1.355-1.416c1.405,0.894,3.008,1.989,4.814,3.281L176.479,126.621z"/>
	<path fill="#FFFFFF" d="M179.864,122.218l-0.526-1.715c0.602-0.498,1.13-1.068,1.581-1.717c0.05-0.049,0.124-0.124,0.226-0.223
		c0.252-0.348,0.603-0.895,1.054-1.64c-1.054,0.048-1.956,0.124-2.708,0.223l-0.527-1.716c0.399-0.299,0.826-0.845,1.279-1.641
		c1.054-1.84,1.779-3.282,2.181-4.326l2.032,0.672c-0.754,1.393-1.854,3.132-3.311,5.221l2.107-0.074
		c0.1-0.2,0.251-0.498,0.449-0.895c0.202-0.35,0.353-0.622,0.452-0.821l1.732,0.821c-2.007,2.983-3.336,4.922-3.989,5.817
		l3.237-0.224c0,0.198-0.027,0.471-0.076,0.819c0,0.35-0.024,0.622-0.075,0.82c-0.353,0.052-0.829,0.1-1.43,0.15
		C181.595,121.971,180.367,122.119,179.864,122.218z M179.264,126.022l-0.301-1.789c2.659-0.349,4.816-0.646,6.471-0.896
		l-0.074,1.79C183.452,125.326,181.421,125.625,179.264,126.022z M185.282,113.491v-1.715h4.894
		c-0.101-0.248-0.227-0.672-0.379-1.269c-0.148-0.347-0.25-0.622-0.299-0.819l2.105-0.225c0.052,0.1,0.125,0.298,0.227,0.597
		c0.3,0.795,0.477,1.367,0.525,1.716h4.592v1.715h-5.645c-0.451,0.597-1.152,1.419-2.105,2.462c-0.554,0.647-0.979,1.143-1.28,1.491
		c0.701-0.05,1.981-0.099,3.84-0.149c0.751-0.048,1.302-0.073,1.654-0.073l-1.43-1.865l1.43-0.896
		c1.254,1.493,2.457,2.984,3.61,4.477l-1.581,1.045l-0.825-1.195l-1.28,0.076v5.519c-0.05,0.549,0.2,0.821,0.753,0.821h0.3
		c0.654,0.049,1.004-0.225,1.053-0.821c0.103-0.546,0.178-1.268,0.227-2.163c0.152,0.05,0.353,0.125,0.604,0.225
		c0.401,0.199,0.728,0.323,0.978,0.372c0,0.051,0,0.101,0,0.15c-0.1,1.045-0.201,1.79-0.301,2.237
		c-0.15,1.144-0.979,1.691-2.483,1.641h-0.828c-1.506,0.051-2.232-0.621-2.182-2.013v-5.894l-1.657,0.075
		c0,0.248-0.024,0.596-0.073,1.043c0,0.498-0.025,0.846-0.075,1.044c-0.102,2.636-1.481,4.749-4.14,6.341
		c-0.149-0.199-0.375-0.497-0.678-0.895c-0.25-0.299-0.452-0.546-0.601-0.745c2.308-1.146,3.487-2.687,3.536-4.626
		c0-0.147,0-0.447,0-0.894c0.051-0.498,0.076-0.872,0.076-1.12c-0.302,0-0.804,0.049-1.506,0.149
		c-0.151,0.051-0.277,0.073-0.377,0.073l-0.752-1.789c0.551-0.397,1.003-0.82,1.355-1.268c0.803-0.795,1.555-1.74,2.256-2.835
		H185.282z"/>
</g>
<g>
	<path fill="#FFFFFF" d="M5.943,138.595v-0.852c0.099,0.085,0.216,0.165,0.351,0.233c0.135,0.067,0.277,0.123,0.426,0.171
		c0.148,0.046,0.299,0.083,0.451,0.11c0.151,0.026,0.293,0.04,0.422,0.04c0.444,0,0.774-0.085,0.991-0.249
		c0.217-0.164,0.325-0.401,0.325-0.712c0-0.164-0.035-0.311-0.105-0.433c-0.07-0.125-0.17-0.236-0.298-0.341
		c-0.128-0.103-0.28-0.201-0.456-0.295c-0.175-0.094-0.366-0.19-0.57-0.291c-0.216-0.11-0.417-0.224-0.602-0.334
		c-0.184-0.112-0.345-0.236-0.482-0.37c-0.138-0.135-0.247-0.289-0.324-0.458c-0.08-0.172-0.118-0.373-0.118-0.6
		c0-0.282,0.061-0.531,0.184-0.737c0.122-0.208,0.283-0.38,0.483-0.511c0.198-0.135,0.427-0.234,0.684-0.301
		c0.257-0.069,0.518-0.104,0.781-0.104c0.609,0,1.05,0.074,1.325,0.222v0.813c-0.362-0.253-0.828-0.381-1.395-0.381
		c-0.157,0-0.316,0.019-0.474,0.054c-0.158,0.036-0.299,0.09-0.421,0.164c-0.123,0.073-0.222,0.167-0.297,0.285
		c-0.077,0.118-0.115,0.262-0.115,0.435c0,0.157,0.029,0.293,0.088,0.409c0.059,0.114,0.145,0.219,0.258,0.313
		c0.115,0.094,0.253,0.185,0.417,0.272c0.164,0.09,0.353,0.185,0.571,0.291c0.216,0.11,0.423,0.228,0.622,0.349
		c0.2,0.122,0.374,0.254,0.522,0.401c0.15,0.146,0.267,0.307,0.352,0.484c0.084,0.177,0.126,0.38,0.126,0.609
		c0,0.306-0.058,0.564-0.175,0.777c-0.117,0.21-0.276,0.383-0.479,0.514c-0.201,0.134-0.435,0.23-0.697,0.289
		c-0.263,0.058-0.542,0.086-0.833,0.086c-0.094,0-0.212-0.008-0.355-0.026c-0.144-0.017-0.289-0.039-0.438-0.069
		c-0.15-0.029-0.29-0.067-0.421-0.109C6.132,138.697,6.024,138.649,5.943,138.595z"/>
	<path fill="#FFFFFF" d="M15.384,136.35c0,1.733-0.779,2.6-2.334,2.6c-1.493,0-2.238-0.832-2.238-2.505v-3.773h0.721v3.729
		c0,1.266,0.531,1.898,1.596,1.898c1.024,0,1.536-0.612,1.536-1.835v-3.792h0.72V136.35z"/>
	<path fill="#FFFFFF" d="M20.928,132.836l-3.597,5.355h3.51v0.653h-4.589v-0.204l3.571-5.319h-3.282v-0.65h4.386V132.836z"/>
	<path fill="#FFFFFF" d="M26.527,138.845h-0.72v-2.813H22.63v2.813h-0.718v-6.174h0.718v2.708h3.177v-2.708h0.72V138.845z"/>
	<path fill="#FFFFFF" d="M30.606,138.949c-0.872,0-1.569-0.287-2.093-0.867c-0.522-0.579-0.784-1.33-0.784-2.254
		c0-0.992,0.267-1.786,0.801-2.377c0.536-0.591,1.262-0.888,2.182-0.888c0.847,0,1.531,0.289,2.048,0.862s0.776,1.322,0.776,2.252
		c0,1.005-0.266,1.803-0.798,2.391C32.207,138.655,31.496,138.949,30.606,138.949z M30.66,133.217c-0.644,0-1.167,0.234-1.571,0.702
		c-0.403,0.466-0.606,1.084-0.606,1.848c0,0.758,0.196,1.37,0.588,1.834c0.393,0.465,0.904,0.697,1.536,0.697
		c0.673,0,1.203-0.222,1.593-0.661c0.389-0.44,0.583-1.061,0.583-1.862c0-0.81-0.189-1.439-0.566-1.886
		C31.84,133.44,31.321,133.217,30.66,133.217z"/>
	<path fill="#FFFFFF" d="M39.241,136.35c0,1.733-0.778,2.6-2.335,2.6c-1.491,0-2.236-0.832-2.236-2.505v-3.773h0.719v3.729
		c0,1.266,0.533,1.898,1.598,1.898c1.023,0,1.535-0.612,1.535-1.835v-3.792h0.719V136.35z"/>
	<path fill="#FFFFFF" d="M47.866,138.589c-0.45,0.241-1.015,0.36-1.694,0.36c-0.871,0-1.569-0.283-2.097-0.851
		c-0.527-0.566-0.789-1.309-0.789-2.225c0-0.989,0.294-1.789,0.885-2.396c0.592-0.609,1.339-0.915,2.248-0.915
		c0.584,0,1.066,0.086,1.447,0.258v0.769c-0.439-0.249-0.925-0.373-1.457-0.373c-0.702,0-1.272,0.238-1.711,0.711
		c-0.438,0.474-0.659,1.104-0.659,1.9c0,0.751,0.206,1.352,0.616,1.799c0.408,0.446,0.947,0.671,1.614,0.671
		c0.615,0,1.147-0.14,1.597-0.416V138.589z"/>
	<path fill="#FFFFFF" d="M52.375,138.845h-3.254v-6.174h3.115v0.65h-2.396v2.058h2.22v0.653h-2.22v2.159h2.535V138.845z"/>
	<path fill="#FFFFFF" d="M58.5,138.845h-0.878l-3.167-4.923c-0.075-0.122-0.14-0.251-0.193-0.386h-0.025
		c0.023,0.127,0.035,0.41,0.035,0.846v4.463h-0.719v-6.174h0.93l3.079,4.841c0.129,0.2,0.211,0.339,0.246,0.415h0.018
		c-0.03-0.176-0.044-0.48-0.044-0.908v-4.348h0.72V138.845z"/>
	<path fill="#FFFFFF" d="M63.755,133.321h-1.772v5.523h-0.72v-5.523h-1.772v-0.65h4.264V133.321z"/>
	<path fill="#FFFFFF" d="M67.958,138.845h-3.254v-6.174h3.114v0.65h-2.395v2.058h2.22v0.653h-2.22v2.159h2.535V138.845z"/>
	<path fill="#FFFFFF" d="M73.538,138.845h-0.86l-1.026-1.729c-0.094-0.164-0.185-0.303-0.273-0.415
		c-0.087-0.111-0.178-0.205-0.271-0.278c-0.094-0.072-0.195-0.127-0.303-0.157c-0.108-0.033-0.23-0.05-0.365-0.05h-0.588v2.629
		h-0.719v-6.174h1.834c0.268,0,0.516,0.034,0.742,0.102c0.224,0.064,0.419,0.171,0.587,0.308c0.166,0.139,0.299,0.31,0.395,0.513
		c0.097,0.204,0.145,0.442,0.145,0.719c0,0.218-0.032,0.416-0.097,0.595c-0.064,0.181-0.156,0.342-0.277,0.479
		c-0.12,0.143-0.262,0.265-0.429,0.363c-0.167,0.099-0.355,0.177-0.567,0.229v0.018c0.105,0.047,0.196,0.1,0.273,0.158
		c0.076,0.06,0.147,0.127,0.214,0.207c0.068,0.081,0.136,0.172,0.203,0.274c0.067,0.104,0.142,0.222,0.224,0.356L73.538,138.845z
		 M69.853,133.321v2.242h0.975c0.181,0,0.348-0.028,0.5-0.084c0.151-0.055,0.283-0.133,0.395-0.231
		c0.11-0.102,0.198-0.227,0.263-0.377s0.097-0.315,0.097-0.496c0-0.33-0.107-0.59-0.32-0.774c-0.214-0.185-0.522-0.279-0.927-0.279
		H69.853z"/>
	<path fill="#FFFFFF" d="M78.021,136.507v2.338h-0.719v-6.174h1.685c0.655,0,1.165,0.162,1.527,0.481
		c0.363,0.319,0.544,0.774,0.544,1.364c0,0.58-0.201,1.058-0.603,1.432c-0.4,0.371-0.942,0.559-1.626,0.559H78.021z M78.021,133.321
		v2.532h0.755c0.498,0,0.875-0.115,1.136-0.343c0.259-0.229,0.391-0.551,0.391-0.963c0-0.817-0.48-1.227-1.439-1.227H78.021z"/>
	<path fill="#FFFFFF" d="M85.399,138.845h-3.183v-6.174h0.718v5.521h2.465V138.845z"/>
	<path fill="#FFFFFF" d="M91.095,138.845h-0.798l-0.648-1.729h-2.607l-0.614,1.729h-0.798l2.351-6.174h0.745L91.095,138.845z
		 M89.41,136.463l-0.964-2.627c-0.029-0.09-0.062-0.227-0.097-0.416h-0.019c-0.028,0.178-0.061,0.314-0.095,0.416l-0.958,2.627
		H89.41z"/>
	<path fill="#FFFFFF" d="M96.018,132.836l-3.598,5.355h3.509v0.653h-4.589v-0.204l3.572-5.319H91.63v-0.65h4.387V132.836z"/>
	<path fill="#FFFFFF" d="M101.755,138.845h-0.797l-0.65-1.729h-2.606l-0.612,1.729H96.29l2.352-6.174h0.746L101.755,138.845z
		 M100.072,136.463l-0.965-2.627c-0.03-0.09-0.061-0.227-0.097-0.416h-0.018c-0.03,0.178-0.06,0.314-0.097,0.416l-0.957,2.627
		H100.072z"/>
	<path fill="#FFFFFF" d="M106.3,136.507v2.338h-0.719v-6.174h1.685c0.654,0,1.161,0.162,1.524,0.481
		c0.364,0.319,0.545,0.774,0.545,1.364c0,0.58-0.199,1.058-0.601,1.432c-0.401,0.371-0.943,0.559-1.628,0.559H106.3z M106.3,133.321
		v2.532h0.755c0.496,0,0.875-0.115,1.137-0.343c0.259-0.229,0.39-0.551,0.39-0.963c0-0.817-0.481-1.227-1.438-1.227H106.3z"/>
	<path fill="#FFFFFF" d="M115.249,138.845h-0.798l-0.649-1.729h-2.605l-0.614,1.729h-0.799l2.353-6.174h0.746L115.249,138.845z
		 M113.565,136.463l-0.966-2.627c-0.029-0.09-0.062-0.227-0.097-0.416h-0.018c-0.028,0.178-0.061,0.314-0.097,0.416l-0.956,2.627
		H113.565z"/>
	<path fill="#FFFFFF" d="M115.872,138.595v-0.852c0.1,0.085,0.216,0.165,0.35,0.233c0.136,0.067,0.276,0.123,0.426,0.171
		c0.149,0.046,0.301,0.083,0.451,0.11c0.154,0.026,0.294,0.04,0.422,0.04c0.445,0,0.774-0.085,0.993-0.249
		c0.217-0.164,0.323-0.401,0.323-0.712c0-0.164-0.036-0.311-0.104-0.433c-0.071-0.125-0.172-0.236-0.3-0.341
		c-0.128-0.103-0.281-0.201-0.454-0.295c-0.177-0.094-0.366-0.19-0.569-0.291c-0.218-0.11-0.419-0.224-0.604-0.334
		c-0.183-0.112-0.344-0.236-0.483-0.37c-0.135-0.135-0.244-0.289-0.323-0.458c-0.078-0.172-0.118-0.373-0.118-0.6
		c0-0.282,0.062-0.531,0.185-0.737c0.124-0.208,0.282-0.38,0.482-0.511c0.199-0.135,0.427-0.234,0.686-0.301
		c0.257-0.069,0.517-0.104,0.78-0.104c0.608,0,1.05,0.074,1.326,0.222v0.813c-0.365-0.253-0.829-0.381-1.396-0.381
		c-0.159,0-0.315,0.019-0.474,0.054c-0.157,0.036-0.298,0.09-0.422,0.164c-0.122,0.073-0.223,0.167-0.297,0.285
		c-0.078,0.118-0.115,0.262-0.115,0.435c0,0.157,0.029,0.293,0.088,0.409c0.059,0.114,0.144,0.219,0.258,0.313
		s0.255,0.185,0.418,0.272c0.162,0.09,0.354,0.185,0.57,0.291c0.216,0.11,0.423,0.228,0.622,0.349
		c0.199,0.122,0.373,0.254,0.523,0.401c0.149,0.146,0.265,0.307,0.352,0.484c0.084,0.177,0.125,0.38,0.125,0.609
		c0,0.306-0.058,0.564-0.176,0.777c-0.114,0.21-0.275,0.383-0.478,0.514c-0.201,0.134-0.435,0.23-0.697,0.289
		c-0.262,0.058-0.541,0.086-0.831,0.086c-0.096,0-0.214-0.008-0.357-0.026c-0.145-0.017-0.29-0.039-0.439-0.069
		c-0.148-0.029-0.291-0.067-0.422-0.109C116.061,138.697,115.953,138.649,115.872,138.595z"/>
	<path fill="#FFFFFF" d="M120.529,138.595v-0.852c0.101,0.085,0.218,0.165,0.354,0.233c0.134,0.067,0.274,0.123,0.425,0.171
		c0.149,0.046,0.299,0.083,0.451,0.11c0.153,0.026,0.292,0.04,0.422,0.04c0.443,0,0.775-0.085,0.991-0.249s0.324-0.401,0.324-0.712
		c0-0.164-0.035-0.311-0.104-0.433c-0.071-0.125-0.171-0.236-0.3-0.341c-0.129-0.103-0.278-0.201-0.455-0.295
		s-0.366-0.19-0.569-0.291c-0.218-0.11-0.418-0.224-0.604-0.334c-0.184-0.112-0.346-0.236-0.48-0.37
		c-0.137-0.135-0.246-0.289-0.325-0.458c-0.079-0.172-0.117-0.373-0.117-0.6c0-0.282,0.06-0.531,0.182-0.737
		c0.125-0.208,0.284-0.38,0.484-0.511c0.197-0.135,0.426-0.234,0.683-0.301c0.259-0.069,0.52-0.104,0.782-0.104
		c0.608,0,1.049,0.074,1.324,0.222v0.813c-0.363-0.253-0.828-0.381-1.396-0.381c-0.156,0-0.313,0.019-0.473,0.054
		c-0.158,0.036-0.299,0.09-0.423,0.164c-0.121,0.073-0.223,0.167-0.296,0.285c-0.077,0.118-0.116,0.262-0.116,0.435
		c0,0.157,0.031,0.293,0.088,0.409c0.058,0.114,0.146,0.219,0.259,0.313c0.116,0.094,0.255,0.185,0.418,0.272
		c0.163,0.09,0.354,0.185,0.571,0.291c0.214,0.11,0.423,0.228,0.62,0.349c0.2,0.122,0.375,0.254,0.523,0.401
		c0.148,0.146,0.267,0.307,0.351,0.484c0.084,0.177,0.129,0.38,0.129,0.609c0,0.306-0.059,0.564-0.177,0.777
		c-0.117,0.21-0.275,0.383-0.478,0.514c-0.202,0.134-0.435,0.23-0.698,0.289c-0.263,0.058-0.541,0.086-0.832,0.086
		c-0.096,0-0.215-0.008-0.357-0.026c-0.144-0.017-0.289-0.039-0.438-0.069c-0.147-0.029-0.288-0.067-0.422-0.109
		C120.721,138.697,120.611,138.649,120.529,138.595z"/>
	<path fill="#FFFFFF" d="M134.656,138.845h-0.718V134.7c0-0.323,0.021-0.725,0.063-1.201h-0.019
		c-0.07,0.276-0.132,0.477-0.184,0.601l-2.099,4.745h-0.351l-2.097-4.709c-0.059-0.143-0.12-0.354-0.185-0.637h-0.018
		c0.024,0.247,0.036,0.651,0.036,1.209v4.137h-0.693v-6.174h0.948l1.885,4.304c0.147,0.33,0.241,0.577,0.281,0.742h0.025
		c0.123-0.343,0.224-0.595,0.299-0.761l1.923-4.285h0.901V138.845z"/>
	<path fill="#FFFFFF" d="M141.02,138.845h-0.8l-0.648-1.729h-2.606l-0.615,1.729h-0.797l2.351-6.174h0.748L141.02,138.845z
		 M139.334,136.463l-0.966-2.627c-0.027-0.09-0.061-0.227-0.096-0.416h-0.017c-0.03,0.178-0.063,0.314-0.097,0.416l-0.958,2.627
		H139.334z"/>
	<path fill="#FFFFFF" d="M146.871,138.845h-0.879l-3.167-4.923c-0.077-0.122-0.142-0.251-0.192-0.386h-0.025
		c0.022,0.127,0.033,0.41,0.033,0.846v4.463h-0.72v-6.174h0.932l3.078,4.841c0.13,0.2,0.212,0.339,0.246,0.415h0.017
		c-0.028-0.176-0.042-0.48-0.042-0.908v-4.348h0.72V138.845z"/>
	<path fill="#FFFFFF" d="M153.241,138.845h-0.799l-0.649-1.729h-2.604l-0.615,1.729h-0.799l2.353-6.174h0.746L153.241,138.845z
		 M151.557,136.463l-0.964-2.627c-0.031-0.09-0.063-0.227-0.097-0.416h-0.019c-0.028,0.178-0.061,0.314-0.097,0.416l-0.956,2.627
		H151.557z"/>
	<path fill="#FFFFFF" d="M158.731,138.423c-0.61,0.351-1.297,0.526-2.051,0.526c-0.88,0-1.587-0.284-2.129-0.854
		c-0.542-0.569-0.812-1.323-0.812-2.26c0-0.95,0.3-1.734,0.9-2.348c0.599-0.615,1.36-0.924,2.285-0.924
		c0.667,0,1.228,0.108,1.685,0.327v0.804c-0.498-0.316-1.086-0.478-1.764-0.478c-0.69,0-1.254,0.239-1.694,0.717
		c-0.438,0.474-0.658,1.093-0.658,1.851c0,0.782,0.204,1.396,0.611,1.843c0.405,0.446,0.959,0.671,1.661,0.671
		c0.482,0,0.897-0.096,1.246-0.292v-1.728h-1.342v-0.652h2.061V138.423z"/>
	<path fill="#FFFFFF" d="M163.421,138.845h-3.258v-6.174h3.116v0.65h-2.396v2.058h2.22v0.653h-2.22v2.159h2.538V138.845z"/>
	<path fill="#FFFFFF" d="M167.233,138.595v-0.852c0.102,0.085,0.218,0.165,0.353,0.233c0.133,0.067,0.274,0.123,0.427,0.171
		c0.148,0.046,0.298,0.083,0.451,0.11c0.15,0.026,0.29,0.04,0.421,0.04c0.444,0,0.774-0.085,0.99-0.249s0.325-0.401,0.325-0.712
		c0-0.164-0.035-0.311-0.105-0.433c-0.069-0.125-0.17-0.236-0.298-0.341c-0.129-0.103-0.282-0.201-0.458-0.295
		s-0.366-0.19-0.569-0.291c-0.217-0.11-0.415-0.224-0.602-0.334c-0.184-0.112-0.345-0.236-0.482-0.37
		c-0.137-0.135-0.243-0.289-0.323-0.458c-0.08-0.172-0.118-0.373-0.118-0.6c0-0.282,0.061-0.531,0.184-0.737
		c0.123-0.208,0.283-0.38,0.483-0.511c0.197-0.135,0.426-0.234,0.684-0.301c0.257-0.069,0.518-0.104,0.781-0.104
		c0.607,0,1.048,0.074,1.323,0.222v0.813c-0.362-0.253-0.827-0.381-1.396-0.381c-0.156,0-0.313,0.019-0.472,0.054
		c-0.159,0.036-0.3,0.09-0.423,0.164c-0.122,0.073-0.223,0.167-0.296,0.285c-0.077,0.118-0.116,0.262-0.116,0.435
		c0,0.157,0.029,0.293,0.088,0.409c0.059,0.114,0.144,0.219,0.26,0.313c0.114,0.094,0.254,0.185,0.417,0.272
		c0.163,0.09,0.354,0.185,0.57,0.291c0.216,0.11,0.423,0.228,0.622,0.349c0.198,0.122,0.374,0.254,0.522,0.401
		c0.148,0.146,0.267,0.307,0.351,0.484c0.085,0.177,0.129,0.38,0.129,0.609c0,0.306-0.06,0.564-0.177,0.777
		c-0.117,0.21-0.276,0.383-0.479,0.514c-0.2,0.134-0.436,0.23-0.697,0.289c-0.265,0.058-0.541,0.086-0.834,0.086
		c-0.094,0-0.211-0.008-0.354-0.026c-0.146-0.017-0.292-0.039-0.439-0.069c-0.149-0.029-0.291-0.067-0.423-0.109
		C167.424,138.697,167.315,138.649,167.233,138.595z"/>
	<path fill="#FFFFFF" d="M176.167,132.671l-2.027,3.889v2.285h-0.719v-2.267l-1.975-3.907h0.816l1.377,2.786
		c0.019,0.035,0.067,0.163,0.149,0.378h0.01c0.027-0.092,0.085-0.22,0.166-0.378l1.438-2.786H176.167z"/>
	<path fill="#FFFFFF" d="M176.735,138.595v-0.852c0.102,0.085,0.217,0.165,0.353,0.233c0.133,0.067,0.275,0.123,0.426,0.171
		c0.148,0.046,0.3,0.083,0.451,0.11c0.151,0.026,0.292,0.04,0.422,0.04c0.445,0,0.775-0.085,0.991-0.249
		c0.215-0.164,0.323-0.401,0.323-0.712c0-0.164-0.035-0.311-0.104-0.433c-0.071-0.125-0.172-0.236-0.297-0.341
		c-0.132-0.103-0.283-0.201-0.459-0.295c-0.177-0.094-0.364-0.19-0.569-0.291c-0.217-0.11-0.418-0.224-0.603-0.334
		c-0.184-0.112-0.345-0.236-0.482-0.37c-0.136-0.135-0.244-0.289-0.323-0.458c-0.079-0.172-0.118-0.373-0.118-0.6
		c0-0.282,0.061-0.531,0.185-0.737c0.123-0.208,0.282-0.38,0.481-0.511c0.199-0.135,0.427-0.234,0.686-0.301
		c0.257-0.069,0.518-0.104,0.78-0.104c0.608,0,1.05,0.074,1.324,0.222v0.813c-0.363-0.253-0.827-0.381-1.396-0.381
		c-0.157,0-0.313,0.019-0.472,0.054c-0.16,0.036-0.3,0.09-0.423,0.164c-0.123,0.073-0.224,0.167-0.298,0.285
		c-0.076,0.118-0.114,0.262-0.114,0.435c0,0.157,0.029,0.293,0.087,0.409c0.059,0.114,0.145,0.219,0.259,0.313
		c0.115,0.094,0.255,0.185,0.419,0.272c0.162,0.09,0.353,0.185,0.57,0.291c0.215,0.11,0.423,0.228,0.622,0.349
		c0.197,0.122,0.373,0.254,0.521,0.401c0.149,0.146,0.267,0.307,0.352,0.484c0.086,0.177,0.128,0.38,0.128,0.609
		c0,0.306-0.058,0.564-0.176,0.777c-0.116,0.21-0.277,0.383-0.479,0.514c-0.199,0.134-0.434,0.23-0.697,0.289
		c-0.263,0.058-0.541,0.086-0.832,0.086c-0.096,0-0.211-0.008-0.354-0.026c-0.146-0.017-0.291-0.039-0.439-0.069
		c-0.149-0.029-0.291-0.067-0.424-0.109C176.926,138.697,176.816,138.649,176.735,138.595z"/>
	<path fill="#FFFFFF" d="M185.317,133.321h-1.772v5.523h-0.72v-5.523h-1.771v-0.65h4.264V133.321z"/>
	<path fill="#FFFFFF" d="M189.521,138.845h-3.256v-6.174h3.114v0.65h-2.395v2.058h2.219v0.653h-2.219v2.159h2.536V138.845z"/>
	<path fill="#FFFFFF" d="M196.961,138.845h-0.721V134.7c0-0.323,0.021-0.725,0.063-1.201h-0.019
		c-0.068,0.276-0.13,0.477-0.183,0.601l-2.097,4.745h-0.352l-2.097-4.709c-0.061-0.143-0.12-0.354-0.186-0.637h-0.018
		c0.023,0.247,0.035,0.651,0.035,1.209v4.137h-0.693v-6.174h0.948l1.887,4.304c0.146,0.33,0.24,0.577,0.28,0.742h0.027
		c0.122-0.343,0.222-0.595,0.298-0.761l1.922-4.285h0.903V138.845z"/>
</g>
<g>
	<path fill-rule="evenodd" clip-rule="evenodd" fill="#F08D1D" d="M122.811,57.96c-9.875-3.944-13.838-8.18-17.653-12.907
		c-1.705-2.115-4.068-2.886-5.003-3.12c-0.051-0.01-0.1-0.02-0.148-0.021h-0.002h-0.021c-0.155,0.003-0.249,0.069-0.3,0.126
		c-0.098,0.098-0.137,0.246-0.126,0.436c0.11,1.747,0.11,1.747-0.032,3.014c-0.024,0.225-0.055,0.451-0.082,0.688
		c-0.167,1.302-0.34,2.647,0.056,4.037c0.451,1.589,1.583,2.931,3.464,4.1c2.443,1.516,5.239,2.69,8.313,3.488
		c2.784,0.727,5.721,1.11,8.493,1.11l0,0c1.011,0,1.998-0.052,2.935-0.153c0.453-0.047,0.688-0.111,0.717-0.312
		C123.448,58.232,123.209,58.117,122.811,57.96L122.811,57.96z"/>
	<path fill-rule="evenodd" clip-rule="evenodd" fill="#F08D1D" d="M121.479,47.764c-1.161-1.058-3.09-1.806-3.927-4.327
		c-0.135-0.413-0.434-0.521-0.709-0.155c-3.139,4.147,0.347,11.186,7.004,12.037c0.26,0.032,0.501,0.009,0.522-0.458
		C124.486,52.486,123.935,49.989,121.479,47.764L121.479,47.764z"/>
	<path fill-rule="evenodd" clip-rule="evenodd" fill="#7F1083" d="M122.231,62.699c-10.402,10.474-26.951,23.968-42.776,23.928
		c-0.628,0-0.935,0.073-0.937,0.338c0,0.205,0.185,0.526,0.552,1.018c3.897,5.25,9.042,7.348,13.903,7.354h0.038
		c3.113-0.004,6.11-0.865,8.585-2.303c13.377-7.77,19.484-23.893,21.084-30C122.808,62.571,122.464,62.466,122.231,62.699
		L122.231,62.699z"/>
	<path fill-rule="evenodd" clip-rule="evenodd" fill="#BC1641" d="M123.136,60.052c-0.078-0.209-0.39-0.141-0.444-0.129
		c-0.965,0.23-6.419,1.446-14.037,1.448c-6.184,0-12.172-0.791-17.806-2.346c-0.338-0.093-0.524-0.13-0.648-0.13
		c-0.239,0-0.254,0.119-0.281,0.579l-0.013,0.204c-0.209,2.929,1.025,8.723,7.2,9.693c0.924,0.146,1.946,0.222,3.036,0.222
		c5.929,0,15.399-2.323,22.57-8.862C123.034,60.434,123.188,60.192,123.136,60.052L123.136,60.052z"/>
</g>
</svg>
