<?xml version="1.0" standalone="no"?><!DOCTYPE svg PUBLIC "-//W3C//DTD SVG 1.1//EN" "http://www.w3.org/Graphics/SVG/1.1/DTD/svg11.dtd"><svg t="1603645322767" class="icon" viewBox="0 0 1024 1024" version="1.1" xmlns="http://www.w3.org/2000/svg" p-id="10418" xmlns:xlink="http://www.w3.org/1999/xlink" width="200" height="200"><defs><style type="text/css"></style></defs><path d="M956.0064 660.00213333v249.0368c0 27.30666667-21.84533333 49.152-49.152 49.152s-49.152-21.84533333-49.152-49.152v-249.0368c0-27.30666667 21.84533333-49.152 49.152-49.152s49.152 21.84533333 49.152 49.152z" fill="#2c2c2c" p-id="10419"></path><path d="M657.8176 859.88693333h249.0368c27.30666667 0 49.152 21.84533333 49.152 49.152s-21.84533333 49.152-49.152 49.152h-249.0368c-27.30666667 0-49.152-21.84533333-49.152-49.152s22.39146667-49.152 49.152-49.152zM67.44746667 361.2672V112.2304c0-27.30666667 21.84533333-49.152 49.152-49.152s49.152 21.84533333 49.152 49.152v249.0368c0 27.30666667-21.84533333 49.152-49.152 49.152-26.76053333 0-49.152-22.39146667-49.152-49.152z" fill="#2c2c2c" p-id="10420"></path><path d="M365.63626667 161.3824H116.59946667c-27.30666667 0-49.152-21.84533333-49.152-49.152s21.84533333-49.152 49.152-49.152h249.0368c27.30666667 0 49.152 21.84533333 49.152 49.152s-21.84533333 49.152-49.152 49.152zM113.32266667 607.57333333h249.0368c27.30666667 0 49.152 21.84533333 49.152 49.152s-21.84533333 49.152-49.152 49.152H113.32266667c-27.30666667 0-49.152-21.84533333-49.152-49.152s22.39146667-49.152 49.152-49.152z" fill="#2c2c2c" p-id="10421"></path><path d="M313.20746667 905.76213333v-249.0368c0-27.30666667 21.84533333-49.152 49.152-49.152s49.152 21.84533333 49.152 49.152v249.0368c0 27.30666667-21.84533333 49.152-49.152 49.152s-49.152-22.39146667-49.152-49.152zM904.66986667 421.888h-249.0368c-27.30666667 0-49.152-21.84533333-49.152-49.152s21.84533333-49.152 49.152-49.152h249.0368c27.30666667 0 49.152 21.84533333 49.152 49.152 0 26.76053333-21.84533333 49.152-49.152 49.152z" fill="#2c2c2c" p-id="10422"></path><path d="M705.3312 123.6992v249.0368c0 27.30666667-21.84533333 49.152-49.152 49.152s-49.152-21.84533333-49.152-49.152V123.6992c0-27.30666667 21.84533333-49.152 49.152-49.152 26.76053333 0 49.152 21.84533333 49.152 49.152z" fill="#2c2c2c" p-id="10423"></path><path d="M945.08373333 150.45973333l-217.36106666 217.36106667c-19.11466667 19.11466667-50.24426667 19.11466667-69.35893334 0s-19.11466667-50.24426667 0-69.35893333l217.36106667-217.36106667c19.11466667-19.11466667 50.24426667-19.11466667 69.35893333 0s19.11466667 50.24426667 0 69.35893333zM366.1824 712.43093333l-217.36106667 217.36106667c-19.11466667 19.11466667-50.24426667 19.11466667-69.35893333 0s-19.11466667-50.24426667 0-69.35893333L296.82346667 643.072c19.11466667-19.11466667 50.24426667-19.11466667 69.35893333 0s19.11466667 50.24426667 0 69.35893333z" fill="#2c2c2c" p-id="10424"></path></svg>