<?xml version="1.0" standalone="no"?><!DOCTYPE svg PUBLIC "-//W3C//DTD SVG 1.1//EN" "http://www.w3.org/Graphics/SVG/1.1/DTD/svg11.dtd"><svg t="1603645676253" class="icon" viewBox="0 0 1024 1024" version="1.1" xmlns="http://www.w3.org/2000/svg" p-id="1707" xmlns:xlink="http://www.w3.org/1999/xlink" width="200" height="200"><defs><style type="text/css"></style></defs><path d="M928.256 650.752v233.472c0 25.6-20.48 46.08-46.08 46.08s-46.08-20.48-46.08-46.08v-233.472c0-25.6 20.48-46.08 46.08-46.08s46.08 20.48 46.08 46.08z"  p-id="1708"></path><path d="M648.704 838.144h233.472c25.6 0 46.08 20.48 46.08 46.08s-20.48 46.08-46.08 46.08h-233.472c-25.6 0-46.08-20.48-46.08-46.08s20.992-46.08 46.08-46.08zM95.232 370.688V137.216c0-25.6 20.48-46.08 46.08-46.08s46.08 20.48 46.08 46.08v233.472c0 25.6-20.48 46.08-46.08 46.08-25.088 0-46.08-20.992-46.08-46.08z"  p-id="1709"></path><path d="M374.784 183.296H141.312c-25.6 0-46.08-20.48-46.08-46.08s20.48-46.08 46.08-46.08h233.472c25.6 0 46.08 20.48 46.08 46.08s-20.48 46.08-46.08 46.08zM138.24 601.6h233.472c25.6 0 46.08 20.48 46.08 46.08s-20.48 46.08-46.08 46.08H138.24c-25.6 0-46.08-20.48-46.08-46.08s20.992-46.08 46.08-46.08z"  p-id="1710"></path><path d="M325.632 881.152v-233.472c0-25.6 20.48-46.08 46.08-46.08s46.08 20.48 46.08 46.08v233.472c0 25.6-20.48 46.08-46.08 46.08s-46.08-20.992-46.08-46.08zM880.128 427.52h-233.472c-25.6 0-46.08-20.48-46.08-46.08s20.48-46.08 46.08-46.08h233.472c25.6 0 46.08 20.48 46.08 46.08 0 25.088-20.48 46.08-46.08 46.08z"  p-id="1711"></path><path d="M693.248 147.968v233.472c0 25.6-20.48 46.08-46.08 46.08s-46.08-20.48-46.08-46.08V147.968c0-25.6 20.48-46.08 46.08-46.08 25.088 0 46.08 20.48 46.08 46.08z"  p-id="1712"></path><path d="M918.016 173.056l-203.776 203.776c-17.92 17.92-47.104 17.92-65.024 0s-17.92-47.104 0-65.024l203.776-203.776c17.92-17.92 47.104-17.92 65.024 0s17.92 47.104 0 65.024zM375.296 699.904l-203.776 203.776c-17.92 17.92-47.104 17.92-65.024 0s-17.92-47.104 0-65.024L310.272 634.88c17.92-17.92 47.104-17.92 65.024 0s17.92 47.104 0 65.024z"  p-id="1713"></path></svg>