<?xml version="1.0" standalone="no"?><!DOCTYPE svg PUBLIC "-//W3C//DTD SVG 1.1//EN" "http://www.w3.org/Graphics/SVG/1.1/DTD/svg11.dtd"><svg t="1614347600598" class="icon" viewBox="0 0 1024 1024" version="1.1" xmlns="http://www.w3.org/2000/svg" p-id="14790" xmlns:xlink="http://www.w3.org/1999/xlink" width="200" height="200"><defs><style type="text/css"></style></defs><path d="M814.69 63.82H209.31c-61.76 0-112 50.24-112 112v672.35c0 61.76 50.24 112 112 112H814.7c61.76 0 112-50.24 112-112V175.82c-0.01-61.75-50.25-112-112.01-112z m48 784.36c0 26.47-21.53 48-48 48H209.31c-26.47 0-48-21.53-48-48V175.82c0-26.47 21.53-48 48-48H814.7c26.47 0 48 21.53 48 48v672.36z" p-id="14791"></path><path d="M678.67 387.73c0-17.67-14.33-32-32-32H260.68c-17.67 0-32 14.33-32 32s14.33 32 32 32h385.99c17.67 0 32-14.33 32-32zM768.15 224.31h-512.1c-17.67 0-32 14.33-32 32s14.33 32 32 32h512.1c17.67 0 32-14.33 32-32s-14.33-32-32-32zM506.69 604.98l-94.14-86.59c-0.24-0.22-0.5-0.44-0.75-0.65l-0.25-0.22c-0.56-0.48-1.13-0.93-1.72-1.36-0.01-0.01-0.02-0.01-0.03-0.02-0.6-0.44-1.22-0.86-1.85-1.26l-0.09-0.06a31.505 31.505 0 0 0-8.51-3.73l-0.1-0.03c-1.41-0.38-2.84-0.66-4.27-0.85-0.14-0.02-0.27-0.04-0.41-0.05-0.68-0.08-1.36-0.14-2.05-0.17-0.09 0-0.19 0-0.28-0.01-0.59-0.02-1.17-0.03-1.76-0.02-0.19 0-0.37 0-0.55 0.01-0.66 0.02-1.32 0.05-1.98 0.11l-0.28 0.03c-0.59 0.06-1.18 0.14-1.77 0.23-0.16 0.03-0.33 0.05-0.49 0.08-0.68 0.12-1.35 0.25-2.02 0.41-0.01 0-0.02 0-0.03 0.01-0.67 0.16-1.34 0.35-2 0.56-0.11 0.03-0.22 0.07-0.33 0.11a32.5 32.5 0 0 0-3.99 1.59l-0.24 0.12c-1.29 0.63-2.54 1.35-3.75 2.17l-0.3 0.21c-0.55 0.38-1.09 0.77-1.62 1.19-0.05 0.04-0.1 0.07-0.14 0.11-0.54 0.43-1.06 0.88-1.57 1.34-0.06 0.06-0.13 0.11-0.2 0.17L275.08 605c-13.01 11.96-13.85 32.21-1.89 45.22 11.96 13.01 32.21 13.85 45.22 1.89l40.48-37.23v198.53c0 17.67 14.33 32 32 32s32-14.33 32-32V614.85l40.49 37.24a31.907 31.907 0 0 0 21.65 8.45c8.64 0 17.25-3.48 23.56-10.34 11.96-13.01 11.11-33.26-1.9-45.22zM712.61 703.24l-40.48 37.23V541.94c0-17.67-14.33-32-32-32s-32 14.33-32 32v198.54l-40.49-37.24c-13.01-11.96-33.25-11.12-45.22 1.89-11.96 13.01-11.12 33.25 1.89 45.22l94.14 86.59c0.27 0.25 0.55 0.49 0.83 0.73 0.04 0.03 0.08 0.07 0.12 0.1 0.57 0.48 1.15 0.94 1.75 1.38 0.02 0.02 0.05 0.04 0.08 0.05 3.31 2.42 6.96 4.13 10.75 5.12 0.02 0.01 0.05 0.01 0.07 0.02 0.48 0.12 0.96 0.24 1.44 0.34l0.27 0.06c0.41 0.08 0.82 0.16 1.24 0.22l0.41 0.06c0.37 0.06 0.75 0.1 1.12 0.14 0.16 0.02 0.32 0.04 0.48 0.05 0.36 0.03 0.72 0.06 1.07 0.08 0.17 0.01 0.34 0.03 0.5 0.03 0.42 0.02 0.85 0.03 1.27 0.03 0.09 0 0.18 0.01 0.27 0.01 0.52 0 1.05-0.01 1.57-0.04 0.12-0.01 0.23-0.02 0.35-0.02 0.4-0.02 0.8-0.05 1.2-0.09l0.55-0.06 0.97-0.12c0.22-0.03 0.44-0.07 0.67-0.11 0.28-0.05 0.56-0.09 0.84-0.15 0.25-0.05 0.5-0.1 0.74-0.16 0.25-0.05 0.49-0.11 0.74-0.17l0.81-0.21 0.64-0.18c0.29-0.09 0.58-0.17 0.87-0.27 0.18-0.06 0.37-0.12 0.55-0.19l0.93-0.33c0.15-0.06 0.29-0.12 0.44-0.18 0.34-0.13 0.67-0.27 1.01-0.42 0.08-0.04 0.16-0.08 0.24-0.11 1.19-0.53 2.35-1.14 3.48-1.83 0.1-0.06 0.2-0.11 0.29-0.17 0.26-0.16 0.52-0.34 0.78-0.51 0.19-0.13 0.38-0.25 0.57-0.38 0.22-0.15 0.43-0.31 0.64-0.46l0.69-0.51c0.18-0.14 0.35-0.28 0.53-0.42 0.27-0.21 0.53-0.43 0.79-0.65 0.14-0.12 0.27-0.24 0.41-0.36 0.13-0.12 0.27-0.23 0.39-0.35l94.14-86.59c13.01-11.96 13.85-32.21 1.89-45.22-11.98-12.98-32.22-13.82-45.23-1.86z" p-id="14792"></path></svg>