<?xml version="1.0" standalone="no"?><!DOCTYPE svg PUBLIC "-//W3C//DTD SVG 1.1//EN" "http://www.w3.org/Graphics/SVG/1.1/DTD/svg11.dtd"><svg t="1601723938404" class="icon" viewBox="0 0 1024 1024" version="1.1" xmlns="http://www.w3.org/2000/svg" p-id="3253" xmlns:xlink="http://www.w3.org/1999/xlink" width="200" height="200"><defs><style type="text/css"></style></defs><path d="M612.608 1024H411.36c-190.72 0-341.488 0-341.488-100.288v-20.128c0-188.048 153.216-341.008 341.536-341.008h201.136c188.336 0 341.584 152.96 341.584 341.008v20.064C954.08 1024 795.792 1024 612.576 1024h0.032z m-198.88-397.872c-151.952 0-275.632 123.136-275.632 274.432v19.632c0 39.248 159.264 39.248 275.632 39.248H610.24c96.32 0 275.6 0 275.6-39.28v-19.552c0-151.328-123.664-274.416-275.6-274.416H413.728v-0.064z m88.208-84c-149.584-0.112-270.848-121.392-271.04-271.072C231.056 121.344 352.336 0.08 501.936 0c149.616 0.08 270.896 121.344 271.072 271.056-0.208 149.664-121.488 270.928-271.072 271.072zM299.152 271.072c0 111.792 90.976 202.784 202.752 202.784 111.84 0 202.832-90.992 202.832-202.784 0-111.856-90.992-202.816-202.832-202.816S299.152 159.216 299.152 271.072z" p-id="3254"></path></svg>