<?xml version="1.0" standalone="no"?><!DOCTYPE svg PUBLIC "-//W3C//DTD SVG 1.1//EN" "http://www.w3.org/Graphics/SVG/1.1/DTD/svg11.dtd"><svg class="icon" width="200px" height="200.00px" viewBox="0 0 1024 1024" version="1.1" xmlns="http://www.w3.org/2000/svg"><path  d="M819.2 170.66666667a68.26666667 68.26666667 0 0 1 68.26666667 68.26666666v375.46666667a68.26666667 68.26666667 0 0 1-68.26666667 68.26666667H546.13333333v102.4h277.7088v68.26666666h-614.4v-68.26666666L477.86666667 785.03253333V682.66666667H204.8a68.26666667 68.26666667 0 0 1-68.26666667-68.26666667V238.93333333a68.26666667 68.26666667 0 0 1 68.26666667-68.26666666h614.4zM204.8 614.4h614.4V470.86933333H441.344l-30.99306667-34.13333333-92.70613333 100.62506667-34.16746667-66.4576-78.67733333-0.03413334V614.4z m614.4-375.46666667H204.8v163.66933334h35.9424l52.8384-84.992 45.02186667 101.81973333 67.92533333-79.59893333 55.5008 62.80533333L819.2 402.60266667V238.93333333z" /></svg>
