<?xml version="1.0" standalone="no"?><!DOCTYPE svg PUBLIC "-//W3C//DTD SVG 1.1//EN" "http://www.w3.org/Graphics/SVG/1.1/DTD/svg11.dtd"><svg t="1603512441265" class="icon" viewBox="0 0 1024 1024" version="1.1" xmlns="http://www.w3.org/2000/svg" p-id="1420" xmlns:xlink="http://www.w3.org/1999/xlink" width="200" height="200"><defs><style type="text/css"></style></defs><path d="M512 71.991296a425.63447467 425.63447467 0 1 0 425.63447467 425.63447467A426.115072 426.115072 0 0 0 512 71.991296z m0 590.56674133a164.93226667 164.93226667 0 1 1 104.55176533-292.20317866l-126.70293333 99.30888533a35.651584 35.651584 0 0 0 22.23854933 63.78837333 39.3216 39.3216 0 0 0 13.84994134-3.36418133 30.58346667 30.58346667 0 0 0 7.25265066-4.10692267L660.54826667 426.36629333a162.791424 162.791424 0 0 1 16.34030933 71.25947734A165.10702933 165.10702933 0 0 1 512 662.55803733z m161.65546667-337.117184a236.27912533 236.27912533 0 1 0 44.12757333 56.05512534l93.06112-72.876032a355.77309867 355.77309867 0 1 1-44.08388267-56.098816z" p-id="1421"></path></svg>