<?xml version="1.0" standalone="no"?><!DOCTYPE svg PUBLIC "-//W3C//DTD SVG 1.1//EN" "http://www.w3.org/Graphics/SVG/1.1/DTD/svg11.dtd"><svg t="1600936573157" class="icon" viewBox="0 0 1024 1024" version="1.1" xmlns="http://www.w3.org/2000/svg" p-id="2111" xmlns:xlink="http://www.w3.org/1999/xlink" width="200" height="200"><defs><style type="text/css"></style></defs><path d="M844.17042963 428.01682963l-10.67994074-11.65084445s-6.67496297-4.36906667-16.86945186-6.5536c-10.19448889-2.3058963-18.81125925-2.66998518-18.81125925-2.66998518H629.9648l61.53102222-289.20794075 0.72817778-7.5245037v-9.22358518c0-14.68491852-5.94678518-29.61256297-15.17037037-39.68568889-22.69487408-24.75804445-61.40965925-24.75804445-84.10453333 0L175.82459259 515.39816297l-2.30589629 5.09724444c-2.66998518 5.70405925-3.76225185 8.49540741-5.21860741 12.50038518-2.42725925 6.91768889-3.76225185 13.71401482-3.76225186 20.99579259 0 34.22435555 26.45712592 60.56011852 58.61831112 60.56011852h172.94222222L332.38281482 897.20604445l-0.84954074 9.8304c-3.76225185 19.29671111 2.06317037 38.95751111 15.17037037 53.15697777 9.8304 10.67994075 25.12213333 17.84035555 40.65659258 17.84035556 7.88859259 0 15.04900741-1.69908148 22.08805927-4.6117926 4.00497778-1.69908148 6.67496297-3.03407408 12.13629629-5.94678518l5.21860741-2.91271111 417.24586667-454.01884444c21.23851852-22.9376 21.23851852-59.58921482 0.12136296-82.52681482z m-433.50850371 446.6157037l75.00231111-332.77724444H248.03555555L611.15354075 146.69748148l-70.5118815 331.56361482h234.23051853L410.66192592 874.63253333z" p-id="2112"></path></svg>