<?xml version="1.0" standalone="no"?><!DOCTYPE svg PUBLIC "-//W3C//DTD SVG 1.1//EN" "http://www.w3.org/Graphics/SVG/1.1/DTD/svg11.dtd"><svg t="1614347684994" class="icon" viewBox="0 0 1024 1024" version="1.1" xmlns="http://www.w3.org/2000/svg" p-id="17772" xmlns:xlink="http://www.w3.org/1999/xlink" width="200" height="200"><defs><style type="text/css"></style></defs><path d="M746.666667 128a96 96 0 0 1 95.957333 93.173333L842.666667 224v197.866667a53.301333 53.301333 0 0 1 53.333333 53.333333V778.666667c0 64.8-52.533333 117.333333-117.333333 117.333333H245.333333c-64.8 0-117.333333-52.533333-117.333333-117.333333V475.2a53.333333 53.333333 0 0 1 53.333333-53.333333V224a96 96 0 0 1 93.173334-95.957333L277.333333 128h469.333334z m85.333333 366.133333L572.810667 651.232a117.333333 117.333333 0 0 1-121.621334 0L192 494.144V778.666667a53.333333 53.333333 0 0 0 51.018667 53.28L245.333333 832h533.333334a53.333333 53.333333 0 0 0 53.333333-53.333333V494.133333zM746.666667 192H277.333333a32 32 0 0 0-31.946666 30.122667L245.333333 224v218.666667c0 2.88-0.373333 5.653333-1.088 8.298666l240.106667 145.525334a53.333333 53.333333 0 0 0 55.296 0l240.106667-145.525334a31.936 31.936 0 0 1-1.034667-6.421333L778.666667 442.666667V224a32 32 0 0 0-30.122667-31.946667L746.666667 192zM533.333333 405.333333a32 32 0 0 1 0 64H384a32 32 0 0 1 0-64h149.333333z m106.666667-128a32 32 0 0 1 0 64H384a32 32 0 0 1 0-64h256z" p-id="17773"></path></svg>