<?xml version="1.0" standalone="no"?><!DOCTYPE svg PUBLIC "-//W3C//DTD SVG 1.1//EN" "http://www.w3.org/Graphics/SVG/1.1/DTD/svg11.dtd"><svg t="1603645687422" class="icon" viewBox="0 0 1024 1024" version="1.1" xmlns="http://www.w3.org/2000/svg" p-id="1844" xmlns:xlink="http://www.w3.org/1999/xlink" width="200" height="200"><defs><style type="text/css"></style></defs><path d="M832.41624043 939.75037578l-190.44812022-260.55338291a42.00902227 42.00902227 0 0 0-3.41052626 3.51879697l-108.27067676 164.57142833a51.37443633 51.37443633 0 0 1-89.2150374-4.06015049l-93.87067676-173.23308281a51.32030097 51.32030097 0 0 0-31.56090206-25.9849626l-183.24812021-54.13533839a56.78796972 56.78796972 0 0 1-24.03609082-92.0300748l128.51729384-142.26766963a55.16391006 55.16391006 0 0 0 14.50827071-40.33082636l-6.60451201-195.48270703A53.16090205 53.16090205 0 0 1 319.26736865 67.08872217L494.77413536 150.78195459a48.72180411 48.72180411 0 0 0 39.41052626 1.73233125L715.80872217 84.52030098a53.64812021 53.64812021 0 0 1 70.05112734 59.27819501l-22.73684238 193.80451114a55.54285752 55.54285752 0 0 0 11.15187979 41.57594034l116.17443632 152.93233036a56.51729297 56.51729297 0 0 1-31.23608994 89.43157969l-109.5699252 22.14135264 174.74887266 239.11578984a54.7849626 54.7849626 0 0 1-91.97594033 56.95037578zM692.20571416 449.06766875a171.71729297 171.71729297 0 0 1-33.56391006-124.83608994l12.23458682-104.37293233-101.12481211 37.89473731a148.76391006 148.76391006 0 0 1-118.17744345-5.41353428l-98.03909796-46.71879697 3.57293233 105.88872217a170.47218076 170.47218076 0 0 1-43.3082707 121.04661621L245.85984951 507.75037578l98.74285752 29.12481211a156.99248086 156.99248086 0 0 1 94.79097685 77.95488692l52.29473731 96.46917363 60.36090206-92.03007568c39.08571416-59.54887177 201.87067675-89.48571416 201.87067675-89.48571417z" p-id="1845"></path></svg>