<?xml version="1.0" standalone="no"?><!DOCTYPE svg PUBLIC "-//W3C//DTD SVG 1.1//EN" "http://www.w3.org/Graphics/SVG/1.1/DTD/svg11.dtd"><svg t="1603516022574" class="icon" viewBox="0 0 1024 1024" version="1.1" xmlns="http://www.w3.org/2000/svg" p-id="1697" xmlns:xlink="http://www.w3.org/1999/xlink" width="200" height="200"><defs><style type="text/css"></style></defs><path d="M858.251636 661.643636v-138.798545a34.909091 34.909091 0 0 0-34.909091-34.909091h-273.733818V364.078545a159.650909 159.650909 0 0 0 124.555637-155.368727 159.650909 159.650909 0 0 0-159.464728-159.464727 159.650909 159.650909 0 0 0-159.511272 159.464727 159.557818 159.557818 0 0 0 124.602181 155.368727v123.857455H206.056727a34.909091 34.909091 0 0 0-34.909091 34.909091v137.169454A159.511273 159.511273 0 0 0 46.545455 815.336727c0 87.924364 71.540364 159.464727 159.464727 159.464728s159.464727-71.540364 159.464727-159.464728a159.557818 159.557818 0 0 0-124.555636-155.322182v-102.260363h547.514182v101.096727a159.511273 159.511273 0 0 0-129.908364 156.439273c0 87.924364 71.540364 159.464727 159.464727 159.464727S977.454545 903.214545 977.454545 815.336727c0-73.914182-50.827636-135.68-119.202909-153.693091zM425.053091 208.709818c0-49.431273 40.215273-89.646545 89.693091-89.646545 49.431273 0 89.646545 40.215273 89.646545 89.646545a89.739636 89.739636 0 0 1-89.646545 89.693091 89.832727 89.832727 0 0 1-89.693091-89.693091zM295.703273 815.336727c0 49.431273-40.215273 89.646545-89.646546 89.646546S116.363636 864.721455 116.363636 815.336727s40.215273-89.646545 89.646546-89.646545 89.693091 40.215273 89.693091 89.646545z m522.286545 89.6c-49.431273 0-89.646545-40.215273-89.646545-89.646545s40.215273-89.646545 89.646545-89.646546 89.646545 40.215273 89.646546 89.646546-40.215273 89.646545-89.646546 89.646545z" p-id="1698"></path></svg>